<svg width="128" height="128" viewBox="0 0 128 128" fill="none" xmlns="http://www.w3.org/2000/svg">
<path d="M23.5919 3.1058C24.6683 2.92829 26.6492 3.0275 27.8114 3.02883L35.4121 3.04033L60.3578 3.03856L91.1393 3.03634L99.9358 3.03048C106.896 3.02882 111.134 3.27922 116.875 7.94838C121.346 11.5264 124.205 16.7472 124.816 22.4496C125.056 24.7857 124.993 27.2264 124.991 29.5822L124.98 39.138L124.973 69.3634L124.972 92.7866C124.971 96.3932 125.143 102.926 124.655 106.262C124.078 110.133 122.48 113.778 120.025 116.82C116.155 121.58 110.87 124.31 104.812 124.923C98.7775 125.086 92.0185 124.939 85.9468 124.939L50.1244 124.943L32.5694 124.94C24.5277 124.953 18.2956 125.685 11.497 120.22C6.82452 116.495 3.8277 111.055 3.17121 105.106C2.94419 103.011 3.0085 100.714 3.00982 98.5907L3.01104 89.6313L3.00905 59.5373L3.01468 35.2039L3.01633 28.1628C3.01887 26.2418 2.98589 24.0183 3.25737 22.1293C3.78622 18.45 5.56781 14.4569 7.90108 11.5712C11.7829 6.74863 17.4388 3.69716 23.5919 3.1058Z" fill="#000109"/>
<path d="M98.0389 0.0239668C100.991 0.0201901 105.659 -0.132328 108.417 0.388225C113.108 1.32062 117.421 3.57072 120.828 6.86283C125.66 11.5823 127.932 17.523 127.959 24.1382L127.956 82.0357L127.959 97.6236C127.964 101.033 128.177 105.017 127.585 108.345C125.813 118.28 117.316 126.46 107.061 127.764C104.935 128.035 102.668 127.961 100.516 127.955L45.2655 127.956L30.5116 127.961C27.0582 127.961 22.5965 128.196 19.3172 127.513C11.6642 125.921 5.08041 120.472 1.9891 113.466C0.378002 109.816 0.034629 106.933 0.0262136 103.018L0.0320729 45.9605L0.0271901 30.9869C0.0222394 27.3357 -0.167928 22.4292 0.532073 19.0025C1.51178 14.4263 3.82943 10.2262 7.20102 6.91557C11.0232 3.19772 16.0012 0.830798 21.3485 0.189982C23.2691 -0.0231284 25.5644 0.0330499 27.5321 0.0376386L83.1434 0.0268964L98.0389 0.0239668ZM56.2547 119.035C56.0349 118.837 55.722 118.772 55.4393 118.866C55.0194 119.003 54.7878 119.445 54.9168 119.86C55.046 120.275 55.4896 120.514 55.9168 120.4C56.2043 120.322 56.4267 120.099 56.4969 119.815C56.5671 119.532 56.4742 119.232 56.2547 119.035ZM56.494 115.343C56.3919 114.932 55.9738 114.673 55.5506 114.761C55.2649 114.82 55.034 115.026 54.9491 115.3C54.8642 115.574 54.9379 115.871 55.1414 116.076C55.3452 116.28 55.6471 116.361 55.9286 116.285C56.3453 116.172 56.596 115.755 56.494 115.343ZM93.3094 53.939C92.1467 53.879 90.9797 53.8918 89.8182 53.9771C83.7095 54.5344 78.2309 57.1844 74.2762 61.8228C70.3146 66.4755 68.4138 72.4836 68.992 78.5142C69.6042 84.4428 72.5984 89.8912 77.3163 93.6548C84.8692 99.6588 94.9792 100.205 103.381 95.5738L105.09 97.9937C104.52 98.6763 104.096 99.3069 104.175 100.223C104.316 101.853 109.436 108.437 110.756 110.29C113.082 113.646 114.818 117.674 119.436 114.09C121.191 112.868 122.326 111.012 120.997 108.986C118.185 104.699 115.087 100.491 112.131 96.2896C111.256 95.0479 109.738 95.0139 108.443 95.5552C107.914 94.7749 107.345 93.8955 106.771 93.1587C111.365 89.2682 114.175 83.7374 114.575 77.8033C114.986 71.8725 112.975 66.0236 108.986 61.5435C105.011 57.0554 99.3642 54.3153 93.3094 53.939ZM56.4413 111.095C56.2248 110.699 55.7207 110.55 55.3163 110.761C54.9121 110.974 54.7593 111.467 54.9754 111.863C55.1917 112.259 55.6951 112.408 56.0995 112.197C56.5042 111.985 56.6576 111.491 56.4413 111.095ZM59.3065 101.307C57.3008 101.338 55.4325 101.625 53.3602 101.383C53.0136 101.342 52.408 101.27 52.1151 101.403L52.0741 102.885C52.0231 104.705 51.9952 107.253 52.4618 107.964C53.0235 108.293 54.722 108.125 55.4618 108.107C56.4554 108.083 58.3751 108.413 59.1395 107.779C59.5059 106.931 59.3224 102.514 59.3065 101.307ZM39.2606 84.6675C39.7378 85.6935 40.3228 87.0969 41.0926 87.9244C43.5374 90.5478 45.8668 93.2835 48.2205 95.9869C49.5129 97.4712 50.9361 98.9984 52.1307 100.547C54.7074 100.688 56.7391 100.682 59.3153 100.574C59.7692 99.8242 62.3832 96.9027 63.0477 96.1568C65.3061 93.6218 67.5558 90.8709 69.8563 88.3912C69.3523 87.4264 68.9513 86.6487 68.5301 85.6392C61.5762 86.6383 45.8674 86.9512 39.2606 84.6675ZM90.8455 57.5747C101.389 57.0842 110.346 65.0486 110.862 75.3726C111.379 85.697 103.26 94.4804 92.7186 95.0015C82.1558 95.5232 73.1651 87.552 72.6463 77.2076C72.1296 66.862 80.2816 58.0671 90.8455 57.5747ZM91.411 77.1363C85.9949 77.4713 81.3159 81.0008 80.8807 86.5796C80.8677 86.7486 81.0217 86.9362 81.1248 87.0572C81.6921 87.3613 91.0758 87.2181 92.3622 87.2193L98.5653 87.2281C99.4541 87.2294 101.794 87.4136 102.417 86.898C102.723 86.4041 102.709 86.0161 102.577 85.4576C101.411 80.5289 96.6226 76.9089 91.411 77.1363ZM38.0145 20.6997C31.2289 20.699 24.1949 20.6061 17.4315 20.7222C15.5081 21.0031 14.1681 22.2106 14.1483 24.1929C14.102 28.9075 14.1317 33.6277 14.1327 38.3433L14.1239 65.6255L14.1297 78.5367C14.1305 79.418 14.203 80.512 14.1327 81.3863C13.9634 83.4868 14.1567 86.9511 17.0848 87.1333C19.8509 87.3049 22.9845 87.2064 25.8446 87.2076H32.0428C33.2232 87.2064 34.8334 87.2548 35.9764 87.1314C36.3666 86.8792 36.205 87.0394 36.4334 86.5865C36.2831 85.5881 32.3573 85.9826 31.3768 85.9839L22.5438 85.982C20.7335 85.9855 18.1234 86.1569 16.452 85.607C14.9583 85.1155 15.3691 80.8969 15.369 79.6294L15.3729 69.5425L15.3631 30.106L39.786 30.0962L78.2577 30.0953C84.9078 30.0954 91.8921 29.9863 98.5086 30.1177L98.5184 44.5855C98.5184 45.9434 98.3447 51.3297 98.7538 52.1675L98.9832 52.3472C99.4181 52.2909 99.2202 52.3655 99.5848 52.0728C99.8545 51.0708 99.7562 47.7503 99.7538 46.523L99.7391 37.8706L99.7489 28.7222C99.7501 27.0481 100.024 23.8746 99.284 22.4068C98.3262 20.5066 95.8158 20.6505 94.0145 20.69C92.7077 20.6913 91.4181 20.7053 90.1209 20.7066L75.4891 20.6968L38.0145 20.6997ZM67.2586 81.7027C63.5286 80.9517 56.0908 80.9504 52.2928 81.0162C49.5961 81.1196 41.9469 81.3587 39.2391 82.8296C39.0174 82.9505 39.0417 83.256 39.0545 83.4663C40.434 85.3575 52.75 85.5485 55.2225 85.5591C59.3283 85.5344 64.1425 85.4767 68.1834 84.8091C67.7851 83.7891 67.4458 82.7838 67.2586 81.7027ZM27.7616 65.0962C27.6901 65.0036 27.1094 65.0846 26.8846 65.1128C22.5769 66.1767 19.7009 70.0435 20.8661 74.3853C21.3803 76.3775 22.7048 78.078 24.5311 79.0923C26.2024 80.0137 28.0338 80.2625 29.9129 79.9263C33.5086 78.919 35.6745 76.5713 35.995 72.8658C34.6449 72.8481 29.1112 72.9969 28.2401 72.6304C27.4752 71.3117 28.6492 66.2448 27.7616 65.0962ZM97.3348 68.9107C96.7233 65.8874 93.7198 63.923 90.6336 64.5288C87.5606 65.1343 85.5662 68.0608 86.1727 71.0728C86.7815 74.085 89.7646 76.0469 92.8416 75.4605C95.9314 74.8711 97.9455 71.9357 97.3348 68.9107ZM51.5409 74.0386C48.4354 73.9528 43.848 73.9362 40.8582 74.0337C40.6051 74.5057 40.5994 74.3601 40.6219 74.8287C40.7722 75.0234 40.9442 75.1915 41.2137 75.1939C44.6798 75.2268 48.2713 75.2828 51.7323 75.1958C51.9504 74.8617 52.0018 74.845 52.0038 74.4449C51.9002 74.2664 51.7853 74.0458 51.5409 74.0386ZM28.7196 72.1529C31.1114 72.1599 33.5735 72.1966 35.9598 72.1519C35.6948 68.2157 32.8415 65.2369 28.7674 65.024L28.7196 72.1529ZM57.2997 69.1285C51.9001 69.1061 46.3611 69.0239 40.9666 69.105C40.6934 69.4293 40.6107 69.4771 40.5965 69.8999C40.7059 70.075 40.8307 70.305 41.0731 70.3062C45.7964 70.3309 52.9467 70.5001 57.4852 70.358C57.8588 69.8776 57.7617 70.1356 57.8348 69.5708C57.7114 69.3794 57.5787 69.1299 57.2997 69.1285ZM70.3114 60.3921C69.626 59.7176 67.5518 60.0516 66.5135 60.0445L48.0897 60.0249C39.0804 60.0256 29.7814 59.9107 20.8016 60.0494C20.6351 60.4266 20.5743 60.465 20.6473 60.8697C20.9214 61.1582 21.1393 61.2757 21.5916 61.2642C23.3337 61.2195 25.0604 61.2204 26.8006 61.2251L40.4393 61.233L59.6825 61.2349C63.1228 61.2349 66.7763 61.2944 70.2039 61.2163C70.3538 60.8314 70.4156 60.7903 70.3114 60.3921ZM50.7557 35.8589C49.9207 35.457 47.2962 35.6161 46.2352 35.6402C45.9872 35.9249 45.8724 36.0231 45.8582 36.4576C45.7854 38.7113 45.8642 41.0574 45.8573 43.314L45.8368 50.8599C45.8361 51.9346 45.7164 54.8988 46.0506 55.8247C46.8507 56.1136 49.5974 55.9463 50.6297 55.9497C50.7473 55.8175 50.86 55.6811 50.867 55.4927C50.9603 52.9623 50.9287 50.1839 50.9295 47.6675L50.9266 40.4156C50.9257 39.6814 51.0008 36.3745 50.7557 35.8589ZM26.2635 45.9673C25.5494 45.6531 22.6025 45.817 21.6795 45.8365C21.3256 46.6886 21.3684 54.873 21.7 55.7701C22.3092 56.0978 25.5164 55.9549 26.3748 55.9244C26.595 55.0198 26.6209 46.8785 26.2635 45.9673ZM34.3377 40.8189C33.0281 40.5097 31.2632 40.6589 29.8934 40.6656C29.2664 41.5612 29.7678 50.2858 29.6014 51.9087C29.544 52.4707 29.6071 55.2823 29.661 55.9117C31.109 56.0171 32.9868 55.9682 34.4618 55.9253C35.0997 54.6665 34.4383 45.5468 34.6805 43.6158C34.7202 43.2989 34.7647 41.0351 34.3377 40.8189ZM38.326 45.0503C38.1521 45.1248 37.9953 45.1364 37.91 45.316C37.5686 46.0399 37.6971 54.6355 37.8192 55.9273C39.3356 55.9629 40.8534 55.967 42.37 55.94C42.6326 55.7562 42.7837 55.6178 42.7743 55.2593C42.6904 52.094 43.056 48.1818 42.7127 45.0894C41.2841 44.9919 39.7639 45.0375 38.326 45.0503ZM92.0575 36.771C89.8599 37.9152 91.2595 38.9841 90.9032 39.3706C88.9277 41.5059 86.4372 45.3308 84.2997 47.1597C84.1691 47.2708 84.0356 47.3789 83.9002 47.4839C82.6965 46.715 82.1772 46.6323 81.078 47.6148L80.9354 47.5113C79.4508 46.4249 78.4436 44.7154 77.1414 43.4117C76.9809 43.1462 75.2197 42.2127 75.1229 42.0269C74.493 40.7956 74.6144 40.2376 72.9129 40.3111C71.9111 40.3545 71.8551 41.9463 71.5252 42.1421C68.3967 43.9907 66.906 47.2435 64.285 49.6753C62.9084 48.9335 62.0076 49.0682 61.3163 50.5171C59.2585 51.1702 57.7969 52.1515 56.6698 54.0201C56.5017 54.2988 56.41 54.6408 56.533 54.9497C57.1785 55.1407 57.6036 54.3696 57.9344 53.9136C59.0661 52.5644 59.5462 52.0338 61.2743 51.4302C62.6532 53.5401 64.811 52.7645 64.6903 50.4107C67.6654 48.0411 68.782 44.9839 71.8329 43.0132C73.0029 43.9901 73.7442 44.0316 74.8807 42.9292C76.7575 44.1046 77.7638 45.5669 79.1883 47.2056C79.647 47.7322 80.8171 48.1401 80.8846 48.7759C81.1348 51.1367 84.3005 50.6966 84.1844 48.3062C85.394 47.4639 86.0578 46.7965 86.9686 45.6304C88.4604 43.7213 90.0778 41.899 91.62 40.0308C92.3206 40.185 92.7989 40.2877 93.4432 39.8648C93.8377 39.6109 94.1092 39.2091 94.1932 38.7544C94.2769 38.3022 94.1653 37.8356 93.8836 37.4673C93.5753 37.0678 93.1436 36.8437 92.6385 36.7886C92.4467 36.7675 92.2517 36.7621 92.0575 36.771ZM26.6219 23.69C27.2897 23.4533 28.037 23.5926 28.5692 24.0533C29.1009 24.514 29.3333 25.2229 29.1756 25.9009C29.0172 26.579 28.4931 27.1193 27.8094 27.3081C26.804 27.5855 25.7545 27.0338 25.4344 26.0601C25.115 25.0862 25.6399 24.0384 26.6219 23.69ZM33.2235 23.6841C34.2227 23.3175 35.3383 23.8078 35.7225 24.7828C36.1061 25.7581 35.6151 26.8549 34.6229 27.2398C33.6176 27.6294 32.4807 27.1415 32.0916 26.1538C31.7033 25.1659 32.2114 24.0562 33.2235 23.6841ZM20.4373 23.5689C21.4802 23.4711 22.4153 24.2011 22.5516 25.2183C22.6872 26.2358 21.9748 27.1762 20.9413 27.3443C20.2402 27.4578 19.5311 27.1877 19.0926 26.6402C18.6546 26.0924 18.5559 25.3538 18.8358 24.7144C19.116 24.0754 19.7304 23.6355 20.4373 23.5689ZM83.1092 24.5513C84.8882 24.549 94.4198 24.375 95.2088 24.7857C95.7112 25.3958 95.4938 25.7725 94.9842 26.2828C91.2697 26.3636 87.4489 26.2684 83.7284 26.2886C82.3868 26.2957 82.2142 25.4346 83.1092 24.5513Z" fill="#FEB600"/>
<path d="M112.721 32.6489C113.572 32.646 115.733 32.4664 116.334 32.8433C116.501 33.269 116.456 33.0405 116.334 33.5786C115.313 33.5689 113.536 33.8383 112.776 33.4058C112.589 33.0143 112.643 33.1485 112.721 32.6489ZM109.154 32.645C109.595 32.6288 109.859 32.5487 110.224 32.7808C110.432 33.1875 110.368 33.0602 110.343 33.5698C109.864 33.5903 109.258 33.7005 108.875 33.4654C108.668 33.0672 108.736 33.1689 108.759 32.6587L109.154 32.645ZM108.767 27.8433C109.716 27.8217 111.318 27.5615 112.075 27.9829C112.279 28.3515 112.211 28.2527 112.165 28.7505C111.162 28.7726 109.836 28.9661 108.951 28.6294C108.676 28.2653 108.759 28.3962 108.767 27.8433ZM115.087 27.8101C116.274 27.821 121.379 27.6515 122.102 27.94C122.311 28.3357 122.241 28.2203 122.146 28.7642C121.173 28.7678 115.723 28.8961 115.155 28.645C114.94 28.2341 115.008 28.3592 115.087 27.8101ZM108.813 22.7886C109.711 22.7796 111.799 22.5763 112.462 22.9673C112.641 23.3595 112.585 23.2414 112.514 23.7349C111.482 23.7179 109.645 23.9893 108.872 23.5796C108.67 23.2037 108.739 23.3055 108.813 22.7886ZM114.872 22.7866C116.047 22.7929 118.309 22.5533 119.257 22.9468C119.505 23.2914 119.423 23.2088 119.42 23.7222C118.364 23.7464 115.75 23.9593 114.967 23.5796C114.754 23.2023 114.825 23.3025 114.872 22.7866Z" fill="#AB7B00"/>
<path d="M20.1189 113.468C20.3225 113.325 20.5917 113.305 20.8151 113.417C21.0383 113.527 21.1794 113.752 21.1814 113.998C21.1831 114.243 21.0453 114.469 20.8239 114.583C20.512 114.744 20.1257 114.641 19.9401 114.347C19.7547 114.054 19.8326 113.669 20.1189 113.468ZM24.9685 113.465C25.2605 113.268 25.6585 113.33 25.8747 113.605C26.091 113.88 26.0498 114.273 25.781 114.5C25.5938 114.657 25.3329 114.699 25.1032 114.612C24.8737 114.524 24.7127 114.318 24.6843 114.079C24.6561 113.838 24.7651 113.602 24.9685 113.465ZM29.8288 113.474C30.1154 113.289 30.5003 113.355 30.7058 113.624C30.9112 113.894 30.8657 114.274 30.6023 114.49C30.4182 114.64 30.1643 114.679 29.9421 114.591C29.7197 114.501 29.5653 114.299 29.5417 114.065C29.5182 113.831 29.6288 113.604 29.8288 113.474ZM15.3513 113.472C15.6429 113.275 16.0423 113.343 16.2497 113.624C16.4568 113.905 16.3965 114.297 16.114 114.507C15.9256 114.645 15.6746 114.675 15.4587 114.581C15.2428 114.488 15.0953 114.288 15.073 114.057C15.0506 113.827 15.1571 113.604 15.3513 113.472ZM24.9587 108.768C25.2518 108.563 25.6585 108.621 25.8796 108.898C26.1007 109.177 26.0579 109.578 25.7829 109.804C25.5947 109.961 25.3345 110.003 25.1052 109.915C24.8758 109.827 24.7138 109.623 24.6833 109.384C24.653 109.144 24.7588 108.908 24.9587 108.768ZM20.1101 108.766C20.3113 108.625 20.5765 108.605 20.7976 108.715C21.0184 108.823 21.1594 109.044 21.1638 109.286C21.1681 109.528 21.0349 109.752 20.8181 109.869C20.5093 110.035 20.1217 109.936 19.9343 109.645C19.7469 109.353 19.8238 108.967 20.1101 108.766ZM15.3259 108.78C15.614 108.572 16.0196 108.63 16.2341 108.91C16.4486 109.191 16.3913 109.589 16.1062 109.801C15.8183 110.015 15.4076 109.959 15.1911 109.675C14.9745 109.391 15.0351 108.989 15.3259 108.78ZM29.7927 108.787C29.9771 108.642 30.2277 108.606 30.447 108.693C30.666 108.781 30.8197 108.977 30.8483 109.208C30.877 109.438 30.7762 109.665 30.5847 109.801C30.2985 110.005 29.8984 109.948 29.6833 109.673C29.4686 109.396 29.517 109.004 29.7927 108.787ZM20.0573 104.067C20.2467 103.918 20.5049 103.881 20.7302 103.971C20.9551 104.062 21.1126 104.265 21.1403 104.503C21.168 104.739 21.0613 104.971 20.863 105.11C20.5688 105.314 20.1618 105.252 19.944 104.971C19.7265 104.689 19.7765 104.289 20.0573 104.067ZM24.946 104.063C25.2369 103.847 25.6519 103.903 25.8718 104.188C26.0916 104.474 26.0326 104.88 25.7399 105.094C25.4488 105.307 25.0366 105.25 24.8181 104.966C24.5997 104.681 24.657 104.278 24.946 104.063ZM15.364 104.066C15.6583 103.872 16.0572 103.951 16.2526 104.24C16.448 104.53 16.3652 104.921 16.0681 105.11C15.7739 105.297 15.3806 105.217 15.1872 104.93C14.9937 104.644 15.0726 104.258 15.364 104.066ZM29.7849 104.076C29.972 103.93 30.2257 103.897 30.445 103.99C30.6643 104.084 30.8136 104.287 30.8327 104.521C30.8519 104.754 30.7379 104.979 30.5368 105.105C30.2466 105.287 29.8613 105.215 29.6608 104.941C29.4605 104.666 29.5152 104.286 29.7849 104.076Z" fill="#AB7B00"/>
</svg>
