<svg width="128" height="128" viewBox="0 0 128 128" fill="none" xmlns="http://www.w3.org/2000/svg">
<path d="M23.5914 3.10607C24.6679 2.92857 26.6488 3.02777 27.811 3.0291L35.4117 3.0406L60.3573 3.03883L91.1389 3.03662L99.9354 3.03076C106.895 3.0291 111.133 3.27949 116.874 7.94866C121.345 11.5267 124.205 16.7475 124.816 22.4499C125.055 24.786 124.992 27.2267 124.99 29.5825L124.979 39.1382L124.973 69.3636L124.971 92.7869C124.97 96.3935 125.142 102.926 124.655 106.262C124.078 110.133 122.479 113.778 120.025 116.821C116.155 121.581 110.87 124.31 104.811 124.923C98.7771 125.087 92.0181 124.94 85.9464 124.94L50.124 124.943L32.569 124.941C24.5272 124.953 18.2952 125.685 11.4966 120.22C6.82409 116.495 3.82727 111.055 3.17079 105.106C2.94376 103.012 3.00807 100.714 3.00939 98.591L3.01061 89.6316L3.00862 59.5376L3.01425 35.2042L3.01591 28.1631C3.01844 26.2421 2.98546 24.0186 3.25694 22.1296C3.78579 18.4503 5.56738 14.4572 7.90066 11.5715C11.7824 6.74891 17.4384 3.69743 23.5914 3.10607Z" fill="#000109"/>
<path d="M22.9451 0.0590009C28.7692 -0.0735547 35.2095 0.0592622 41.072 0.0550947L79.533 0.0492353L97.1004 0.0531415C100.446 0.051657 105.892 -0.123585 108.978 0.44572C113.381 1.30331 117.446 3.38502 120.697 6.4467C125.362 10.8604 127.946 16.6905 127.966 23.0463C127.984 29.2259 127.961 35.4173 127.962 41.5961L127.967 79.8695L127.972 97.6928C127.974 100.929 128.155 106.324 127.583 109.3C126.703 113.73 124.528 117.807 121.327 121.023C116.918 125.536 111.11 127.887 104.799 127.97L45.8328 127.974L29.7224 127.973C26.6982 127.974 22.0973 128.137 19.2888 127.654C14.9951 126.892 11.0039 124.951 7.77027 122.052C3.09287 117.944 0.307769 112.128 0.0573835 105.942C-0.0455484 103.89 0.0240386 101.393 0.02711 99.3158L0.0300397 87.8178L0.0310163 51.8627L0.02711 31.1664C0.026979 28.1161 -0.134805 22.0848 0.345469 19.269C1.10247 14.961 3.07927 10.9537 6.04566 7.71427C10.5461 2.80413 16.225 0.39147 22.8386 0.0629072L22.9451 0.0590009ZM97.5154 68.0512C92.8559 68.0534 87.3976 67.9217 82.7859 68.0805C77.395 69.1539 78.1303 73.4016 78.1326 77.5658V85.9447L78.1375 92.9701C78.1386 93.8925 78.0968 96.2544 78.2673 97.058C78.5825 98.5054 79.4993 99.7552 80.7927 100.497C81.3683 100.833 82.0078 101.047 82.6697 101.123C83.5332 101.221 85.1327 101.185 86.0496 101.184L92.0466 101.174C96.6835 101.171 102.411 101.325 106.935 101.154C112.181 100.07 111.576 96.0382 111.574 91.9799V84.7231L111.572 76.7065C111.571 75.671 111.625 72.9957 111.415 72.0688C111.085 70.6768 110.188 69.4814 108.939 68.7651C108.316 68.4036 107.621 68.1806 106.902 68.1108C105.912 68.0072 104.296 68.0491 103.275 68.0502L97.5154 68.0512ZM91.8377 27.2846C88.6004 27.1366 85.3064 27.2704 82.0623 27.2709L63.1804 27.2699L40.3982 27.269C36.5746 27.2695 32.1835 27.1726 28.4002 27.2973C25.9811 27.8176 24.9039 29.2036 24.8884 31.6254C24.856 36.7119 24.8758 41.8 24.8767 46.8871L24.8738 76.7944L24.8709 90.2406C24.8689 92.4549 24.7179 95.1526 25.0476 97.2768C25.3872 99.4618 28.0451 101.127 30.1853 101.137C32.3146 101.146 34.4319 101.164 36.5574 101.164L48.7918 101.16L68.5007 101.157C69.9897 101.157 76.8397 101.451 77.4041 100.707C77.3356 100.245 76.7147 99.54 76.4382 98.9252L44.1824 98.9203L34.8709 98.9242C30.495 98.9322 26.5879 99.8257 26.9607 94.1625C27.0078 93.4485 26.9663 92.5076 26.9666 91.7699L26.9685 84.3998L26.9695 60.2543L26.9754 39.9242L71.3132 39.9194C78.6606 39.9208 86.3923 39.8025 93.7146 39.934L93.7175 56.6479C93.7164 59.2979 93.6891 61.9492 93.7107 64.599C93.7212 65.8025 94.8966 65.923 95.7088 65.2895C96.061 64.6506 95.8654 61.0555 95.8699 60.1459L95.8767 45.4584C95.8756 42.923 96.1834 31.7797 95.6365 30.018C95.3066 28.9544 94.6995 28.2448 93.7009 27.7309C93.0971 27.4204 92.5108 27.3154 91.8377 27.2846ZM98.1619 75.2826C98.4685 75.304 98.7929 75.3266 99.0701 75.394C103.207 76.3897 101.463 79.6803 102.157 82.4545C102.329 83.2785 103.818 83.3749 104.032 83.9555C104.563 85.4096 103.957 85.7903 102.719 86.2104C101.998 86.4551 101.934 87.7656 101.958 88.4369C102.05 90.9777 102.131 92.4872 99.5564 93.6664C98.7967 93.8354 98.1531 94.0711 97.5935 93.4574C96.9547 91.1966 98.6625 91.8029 99.0564 91.2514C100.631 89.046 98.1595 86.7826 101.035 84.6381C99.2212 83.1841 99.556 81.9367 99.6277 79.808C99.7116 77.2883 98.5108 78.1749 97.6668 77.3451C97.3337 76.5602 97.3148 75.687 98.1619 75.2826ZM91.0847 75.2817C92.2387 75.2829 92.2661 75.7571 92.199 76.8041C92.1387 77.7264 90.9652 77.5953 90.5974 77.9779C89.7242 78.8847 90.2858 80.9627 90.1257 82.1342C89.9597 83.461 89.6482 83.8374 88.6951 84.6381C91.1964 86.492 89.5409 88.5596 90.3572 90.9428C90.5084 91.3807 91.3446 91.5397 91.8191 91.685C92.2638 92.0938 92.316 93.1394 91.991 93.5981C91.4078 93.9649 91.1171 93.8568 90.3816 93.7465C86.775 92.6167 88.0914 89.7569 87.5945 87.0199C87.418 86.0464 86.6717 86.1419 85.9382 85.7514C85.4017 85.465 85.3782 84.5431 85.5818 84.0375C85.9713 83.2071 87.258 83.4937 87.5447 82.4623C88.0632 80.6039 87.2183 78.4765 88.366 76.7611C88.9848 75.8437 90.0374 75.4956 91.0847 75.2817ZM61.5906 91.3149C60.7317 90.3475 57.4828 90.7048 56.1834 90.7319C55.5875 90.9876 55.0601 91.5341 55.3728 92.1195C55.9824 93.2577 59.8851 92.7997 60.9207 92.7748C61.5666 92.4234 61.8613 92.0481 61.5906 91.3149ZM52.3269 90.8022C46.9987 90.6073 40.8817 90.712 35.6121 90.7289C34.012 91.2932 34.7118 92.7189 35.5046 92.7328C40.9475 92.8241 46.7471 92.8743 52.1746 92.7944C53.6693 92.2762 53.041 90.8281 52.3269 90.8022ZM45.9421 84.0483C42.9253 83.9458 39.8936 84.0305 36.8738 84.017C36.3472 84.0148 35.7645 84.022 35.241 84.058C34.8261 84.459 34.363 85.1516 34.8464 85.6684C35.3086 86.1615 37.211 86.1449 37.8894 86.0863C40.3228 85.8768 43.9912 86.3816 46.3025 86.0043C46.8175 85.5132 47.2599 84.8638 46.5515 84.2758C46.4152 84.1623 46.1266 84.0551 45.9421 84.0483ZM69.8328 84.0483C63.2268 84.1181 56.2064 83.7951 49.6355 84.0463C49.162 84.5036 48.7429 85.073 49.2117 85.6957C49.5842 86.1911 51.1601 86.0797 51.7224 86.0785C57.7627 86.0673 63.807 86.1084 69.8464 86.0453C69.9644 86.0442 70.0272 86.0352 70.1531 86.0229C71.1222 85.2029 70.8961 84.0373 69.8328 84.0483ZM64.3152 77.7055C63.3225 76.9082 57.5209 77.2379 56.0271 77.2807C55.6894 77.5993 55.3909 77.8589 55.3699 78.352C55.3622 78.532 55.4266 78.6969 55.5486 78.8354C56.2897 79.6721 62.6361 79.3746 63.9675 79.3149C64.294 79.0097 64.5897 78.7601 64.5955 78.2826C64.5988 78.0642 64.4869 77.8429 64.3152 77.7055ZM50.823 77.2572C45.7046 77.4014 40.3438 77.0678 35.2488 77.2953C34.9088 77.6184 34.6673 77.8499 34.6502 78.3529C34.6036 79.7383 37.6211 79.3364 38.5623 79.3363L44.1443 79.3393L49.448 79.3363C50.208 79.3363 51.8097 79.3681 52.4998 79.2758C52.8116 78.9594 53.0613 78.6903 53.0711 78.2084C53.0763 77.9404 52.9511 77.6851 52.7341 77.5229C52.3735 77.2527 51.2807 77.2449 50.823 77.2572ZM61.7088 47.7748C61.4097 47.9565 61.0305 48.1718 60.8972 48.4965C60.3796 49.7607 59.8946 51.0669 59.407 52.3422L56.5076 59.932L54.698 64.6498C54.158 66.0623 52.8564 68.1995 55.3494 68.3832C55.648 68.2289 56.1272 68.0009 56.2595 67.6947C57.1736 65.5762 58.0677 63.1172 58.8845 60.9731L61.5545 53.977C62.122 52.5077 62.6916 51.0517 63.2136 49.5649C63.6397 48.3498 62.8502 47.8077 61.7088 47.7748ZM47.4129 50.5912C46.3386 51.0194 40.6666 56.8518 40.0671 57.6371C39.2822 58.6671 46.0227 64.8816 47.1921 65.5912C47.6447 65.5687 48.2319 65.4913 48.5545 65.1322C48.7672 64.8947 48.846 64.6541 48.8054 64.3412C48.6216 62.935 44.2449 59.3817 43.0838 58.1391C44.2994 56.9491 45.5319 55.7265 46.7752 54.5649C47.8926 53.5209 50.3893 51.2667 47.4129 50.5912ZM68.9324 50.7065C67.9474 51.4902 67.8401 52.1818 68.7498 53.1381C70.3834 54.857 72.1789 56.4368 73.866 58.1059C72.1211 59.8218 70.3123 61.5148 68.655 63.3041C67.4753 64.577 68.7813 66.1818 70.1658 65.3393C71.5522 63.9338 72.9578 62.5448 74.3806 61.1742C75.1482 60.4242 77.798 58.4279 76.7 57.2826C74.6853 55.1819 72.5166 53.1873 70.4177 51.1645C69.8753 50.6386 69.6462 50.6583 68.9324 50.7065ZM32.5603 31.7299C33.6808 31.6495 34.6657 32.4603 34.7898 33.5658C34.9135 34.6715 34.1321 35.6765 33.0213 35.8412C32.2643 35.9529 31.5049 35.6462 31.0437 35.0414C30.5826 34.4365 30.4924 33.6291 30.8084 32.9389C31.1245 32.2491 31.7973 31.7853 32.5603 31.7299ZM46.5759 31.7387C47.7033 31.6467 48.699 32.4627 48.8181 33.5766C48.9368 34.6905 48.1353 35.6949 47.0134 35.8383C46.2647 35.9334 45.5218 35.62 45.073 35.019C44.6243 34.4177 44.5394 33.6216 44.8513 32.9408C45.1635 32.2605 45.8237 31.8005 46.5759 31.7387ZM39.1101 31.851C40.1944 31.4997 41.3627 32.0826 41.7224 33.1547C42.0817 34.2269 41.4971 35.3849 40.4158 35.7455C39.3281 36.1077 38.1496 35.526 37.7879 34.4477C37.4265 33.3693 38.0197 32.205 39.1101 31.851ZM87.448 32.6528C88.4152 32.6398 90.4878 32.4519 90.2927 33.9467C90.2233 34.4738 89.967 34.6373 89.5671 34.9242C86.2799 34.9909 82.2216 34.9766 78.8933 34.8832C77.7562 34.851 77.6584 33.4578 78.7556 32.6938C78.8745 32.6896 78.9932 32.6859 79.1121 32.683C81.8818 32.6275 84.6771 32.6892 87.448 32.6528Z" fill="#FEB600"/>
<path d="M14.2202 68.5389C15.4939 68.4994 18.7505 68.3462 19.9927 68.7381C20.251 68.8203 20.2771 69.0839 20.3267 69.3035C20.2142 69.7 20.2228 69.6727 19.9204 69.9588C18.6675 69.9644 17.4069 70.0109 16.1548 70.0008C15.3548 69.9941 14.0858 70.1498 13.8696 69.2264C13.9644 68.8243 13.9475 68.8486 14.2202 68.5389ZM6.52199 61.1131C7.37736 61.1464 11.8382 63.5414 12.6763 64.2713C12.951 64.51 12.9998 64.7567 12.9898 65.0945C12.399 65.8312 8.84274 67.5234 7.75246 68.1024C7.33977 68.3343 7.26209 68.3768 6.81496 68.5164C6.46523 68.4252 6.49061 68.414 6.23781 68.1483C6.04386 66.8496 9.84759 65.3789 10.9673 64.8426C9.82192 64.1983 6.75201 62.9826 6.31105 62.0477C6.26748 61.5906 6.31619 61.5477 6.52199 61.1131Z" fill="#AB7B00"/>
<path d="M109.318 49.2698C110.302 49.2547 112.787 48.9717 113.365 49.7336C113.384 50.1205 113.322 50.1454 113.113 50.4739C112.128 50.4932 109.596 50.8247 109.041 50.0471C109.025 49.6379 109.09 49.6131 109.318 49.2698ZM105.071 49.2766C105.708 49.2443 106.402 49.1309 106.707 49.7805C106.658 50.1628 106.587 50.1904 106.342 50.4914C105.688 50.5002 105.066 50.6089 104.683 50.0061C104.741 49.5835 104.786 49.5871 105.071 49.2766ZM104.979 43.7248C105.889 43.7076 108.318 43.3716 108.741 44.2092C108.729 44.605 108.68 44.617 108.458 44.9416C107.487 44.9335 105.379 45.2554 104.782 44.5139C104.721 44.1306 104.794 44.065 104.979 43.7248ZM111.962 43.7258C114.133 43.6732 117.231 43.6763 119.48 43.7434C119.702 43.75 119.811 44.0028 119.904 44.1731C119.878 44.5877 119.881 44.5578 119.623 44.8879C117.626 45.0591 114.407 44.9078 112.325 44.9065C111.946 44.9062 111.863 44.738 111.69 44.509C111.659 44.1202 111.746 44.0524 111.962 43.7258ZM111.825 37.9719C112.942 37.96 116.212 37.6217 116.75 38.4709C116.755 38.8713 116.696 38.8851 116.463 39.2112C115.385 39.2214 112.165 39.5624 111.55 38.7815C111.545 38.2911 111.539 38.4521 111.825 37.9719ZM105.02 37.9817C105.97 37.9761 108.627 37.6133 109.096 38.4592C109.094 38.8658 109.058 38.8696 108.853 39.2112C107.829 39.2204 105.237 39.5493 104.757 38.7239C104.757 38.3297 104.81 38.3123 105.02 37.9817Z" fill="#AB7B00"/>
<path d="M15.054 114.506C15.2752 114.404 15.5354 114.425 15.7356 114.565C15.9355 114.704 16.045 114.938 16.0217 115.179C15.9983 115.42 15.8455 115.631 15.6223 115.73C15.2818 115.881 14.8817 115.732 14.7258 115.397C14.57 115.061 14.7167 114.664 15.054 114.506ZM20.011 114.493C20.3439 114.387 20.7032 114.553 20.8342 114.874C20.965 115.195 20.8231 115.562 20.509 115.714C20.2849 115.822 20.0178 115.799 19.8176 115.652C19.6175 115.504 19.5175 115.257 19.5579 115.014C19.5985 114.769 19.7736 114.569 20.011 114.493ZM24.8997 114.507C25.213 114.396 25.5611 114.532 25.7122 114.825C25.8631 115.119 25.7695 115.479 25.4934 115.663C25.2818 115.805 25.0069 115.813 24.7874 115.684C24.5679 115.554 24.4429 115.312 24.4671 115.06C24.4912 114.809 24.6596 114.594 24.8997 114.507ZM10.0237 114.656C10.2806 114.418 10.6842 114.424 10.9319 114.673C11.1796 114.922 11.1805 115.321 10.9348 115.573C10.7709 115.74 10.5283 115.806 10.301 115.745C10.0736 115.686 9.89667 115.508 9.83912 115.281C9.78157 115.056 9.85244 114.816 10.0237 114.656ZM14.9085 109.676C15.1003 109.518 15.3638 109.477 15.595 109.57C15.8264 109.662 15.9882 109.873 16.0159 110.118C16.0434 110.364 15.9326 110.604 15.7278 110.744C15.4292 110.949 15.0206 110.885 14.801 110.598C14.5816 110.312 14.6292 109.906 14.9085 109.676ZM10.0491 109.695C10.3224 109.474 10.7238 109.506 10.9573 109.769C11.1907 110.031 11.1724 110.429 10.9163 110.67C10.742 110.833 10.4914 110.89 10.263 110.817C10.0343 110.743 9.86419 110.553 9.81959 110.319C9.77504 110.085 9.86311 109.845 10.0491 109.695ZM19.8147 109.677C20.0127 109.531 20.2769 109.506 20.4983 109.614C20.7196 109.724 20.8605 109.946 20.8635 110.191C20.8665 110.435 20.7313 110.66 20.513 110.774C20.2095 110.931 19.8345 110.832 19.6516 110.545C19.469 110.258 19.54 109.88 19.8147 109.677ZM24.719 109.691C24.9952 109.465 25.4019 109.5 25.636 109.767C25.8699 110.035 25.8456 110.438 25.5813 110.677C25.4043 110.837 25.1539 110.889 24.927 110.814C24.7001 110.738 24.5318 110.545 24.4885 110.312C24.4454 110.079 24.534 109.842 24.719 109.691ZM24.8049 104.729C25.0278 104.609 25.2993 104.62 25.511 104.759C25.7224 104.896 25.8397 105.139 25.8167 105.389C25.7935 105.639 25.6339 105.856 25.4006 105.954C25.0628 106.096 24.6721 105.949 24.513 105.622C24.354 105.295 24.4824 104.902 24.8049 104.729ZM15.012 104.721C15.2355 104.602 15.5073 104.613 15.72 104.75C15.9325 104.889 16.0514 105.131 16.0296 105.381C16.0077 105.632 15.8487 105.85 15.6155 105.95C15.2759 106.096 14.8808 105.951 14.719 105.621C14.5575 105.292 14.6868 104.895 15.012 104.721ZM19.8704 104.721C20.0997 104.588 20.3864 104.598 20.6047 104.748C20.8231 104.898 20.9336 105.16 20.8889 105.419C20.844 105.678 20.6518 105.889 20.3958 105.957C20.0649 106.047 19.7181 105.88 19.5852 105.568C19.4524 105.255 19.5746 104.892 19.8704 104.721ZM10.1663 104.717C10.4863 104.554 10.8788 104.671 11.0549 104.982C11.231 105.292 11.1274 105.685 10.8206 105.871C10.6116 105.997 10.3491 106.001 10.137 105.879C9.92512 105.759 9.79708 105.532 9.80299 105.29C9.8091 105.047 9.94849 104.827 10.1663 104.717Z" fill="#AB7B00"/>
</svg>
