<svg width="24" height="24" viewBox="0 0 24 24" fill="none" xmlns="http://www.w3.org/2000/svg">
<path fill-rule="evenodd" clip-rule="evenodd" d="M9.92997 7.22889C10.1267 6.29435 10.5437 5.42027 11.1463 4.67933C11.7488 3.93839 12.5196 3.35199 13.3944 2.96888C13.9524 2.72288 13.8312 1.89848 13.2264 1.82408C8.00037 1.18328 3.11637 4.65609 2.01237 9.84729C0.839974 15.3673 4.35477 20.7913 9.86517 21.9637C15.3756 23.1349 20.7936 19.6093 21.9672 14.0893C22.1387 13.2823 22.2128 12.4576 22.188 11.6329C22.1688 11.0221 21.3552 10.8277 21.0612 11.3641C20.4422 12.4973 19.4742 13.4005 18.3009 13.9397C17.1277 14.4789 15.8118 14.6252 14.5488 14.3569C12.9911 14.0241 11.6293 13.0862 10.7632 11.7494C9.89696 10.4127 9.59726 8.78661 9.92997 7.22889ZM3.18597 10.0969C3.58364 8.22248 4.56762 6.52331 5.99542 5.24546C7.42322 3.9676 9.22071 3.1774 11.1276 2.98928C9.94077 4.00208 9.09477 5.38928 8.75637 6.97929C8.55889 7.90479 8.54564 8.86013 8.71738 9.79076C8.88911 10.7214 9.24248 11.6091 9.75729 12.4031C10.2721 13.1972 10.9383 13.8821 11.7178 14.4187C12.4973 14.9553 13.3749 15.3331 14.3004 15.5305C15.462 15.7771 16.6665 15.7327 17.8067 15.401C18.947 15.0694 19.9875 14.4609 20.8356 13.6297L20.7936 13.8397C19.758 18.7117 14.9772 21.8233 10.1148 20.7901C5.25357 19.7557 2.15157 14.9701 3.18717 10.0981" fill="white"/>
</svg>
