<svg width="128" height="128" viewBox="0 0 128 128" fill="none" xmlns="http://www.w3.org/2000/svg">
<path d="M21.6045 0.111277C22.7339 -0.074961 24.8122 0.029125 26.0316 0.0305175L34.0061 0.0425856L60.1786 0.0407265L92.474 0.0384071L101.703 0.0322562C109.005 0.0305156 113.452 0.293222 119.475 5.19202C124.166 8.94602 127.166 14.4236 127.807 20.4064C128.058 22.8574 127.992 25.4181 127.99 27.8898L127.978 37.9155L127.972 69.6274L127.97 94.2027C127.969 97.9866 128.15 104.841 127.638 108.34C127.033 112.402 125.356 116.226 122.781 119.418C118.72 124.413 113.175 127.276 106.819 127.919C100.488 128.091 93.3964 127.937 87.0261 127.937L49.4419 127.94L31.0236 127.938C22.5863 127.951 16.0478 128.719 8.91483 122.985C4.01253 119.077 0.868324 113.369 0.179553 107.128C-0.0586413 104.93 0.00883393 102.52 0.0102228 100.292L0.0114979 90.8922L0.00941396 59.3181L0.0153161 33.788L0.0170539 26.4006C0.019716 24.3852 -0.0148907 22.0523 0.269946 20.0704C0.824806 16.2101 2.69401 12.0206 5.14204 8.99301C9.21471 3.93327 15.1488 0.73172 21.6045 0.111277Z" fill="#000109"/>
<path d="M21.6047 0.11065C22.7342 -0.0754801 24.8123 0.029178 26.0314 0.0305719L34.006 0.0422907L60.1779 0.0403375L92.4738 0.0383844L101.703 0.0315485C109.005 0.0298179 113.452 0.293152 119.475 5.1917C124.166 8.94565 127.166 14.4238 127.807 20.4065C128.058 22.8574 127.992 25.4185 127.989 27.8899L127.979 37.9153L127.971 69.6273L127.97 94.2024C127.969 97.9863 128.149 104.84 127.638 108.34C127.033 112.401 125.356 116.226 122.78 119.418C118.72 124.412 113.175 127.276 106.819 127.919C100.488 128.091 93.3959 127.937 87.0256 127.937L49.4416 127.94L31.0236 127.938C22.5864 127.951 16.0472 128.718 8.91425 122.985C4.01227 119.077 0.867641 113.369 0.178896 107.127C-0.0591979 104.93 0.00855587 102.52 0.00995061 100.292L0.0109272 90.8919L0.00897405 59.3177L0.0148334 33.7874L0.0167866 26.4007C0.0194453 24.3855 -0.015036 22.0523 0.269716 20.0706C0.824618 16.2104 2.69381 12.02 5.14179 8.99249C9.21445 3.93291 15.1491 0.731084 21.6047 0.11065ZM82.0959 111.246C81.4386 110.929 80.3608 111.108 79.59 111.124C79.479 111.592 79.4412 111.392 79.5939 111.76C80.1579 112.131 81.4351 111.935 82.1594 111.921C82.2646 111.419 82.3134 111.63 82.0959 111.246ZM69.3625 111.255C68.6867 110.902 67.5874 111.113 66.7726 111.12C66.6674 111.602 66.6234 111.398 66.8049 111.769C67.4241 112.118 68.6629 111.941 69.4279 111.928C69.5147 111.426 69.5682 111.636 69.3625 111.255ZM77.9142 111.274C77.2963 110.904 76.0671 111.075 75.3205 111.115C75.2221 111.604 75.1759 111.397 75.3644 111.776C75.9894 112.121 77.1778 111.935 77.9416 111.922C78.0434 111.439 78.09 111.641 77.9142 111.274ZM60.7834 111.26C60.1313 110.906 58.9863 111.103 58.1955 111.119C58.0869 111.605 58.0469 111.397 58.2238 111.782C58.8687 112.127 60.0215 111.923 60.8117 111.923C60.9174 111.432 60.9615 111.64 60.7834 111.26ZM90.5978 111.261C89.9395 110.924 88.8415 111.106 88.0568 111.126C87.9434 111.608 87.9034 111.4 88.0861 111.781C88.7239 112.115 89.8938 111.935 90.6691 111.927C90.749 111.429 90.8037 111.636 90.5978 111.261ZM99.0314 111.268C98.4285 110.929 97.1479 111.09 96.4279 111.126C96.3284 111.604 96.2835 111.401 96.4777 111.77C97.1005 112.104 98.3403 111.953 99.0764 111.921C99.1758 111.432 99.2256 111.635 99.0314 111.268ZM56.5588 111.263C55.9398 110.92 54.7961 111.077 54.0529 111.113C53.9456 111.598 53.9013 111.393 54.0773 111.767C54.7044 112.126 55.8311 111.93 56.5998 111.915C56.6985 111.431 56.7453 111.635 56.5588 111.263ZM86.3723 111.263C85.7242 110.924 84.5733 111.121 83.7863 111.118C83.6938 111.598 83.6485 111.395 83.8254 111.764C84.4423 112.129 85.6744 111.927 86.4475 111.92C86.5261 111.427 86.5817 111.632 86.3723 111.263ZM94.7668 111.246C94.1268 110.939 92.9903 111.081 92.2463 111.115C92.1444 111.611 92.098 111.399 92.3039 111.787C92.9751 112.12 94.0376 111.928 94.8361 111.916C94.9321 111.42 94.982 111.629 94.7668 111.246ZM65.0187 111.262C64.3487 110.914 63.2808 111.122 62.4719 111.11C62.3885 111.634 62.3296 111.485 62.5656 111.824C63.2947 112.098 64.2596 111.92 65.0812 111.923C65.1633 111.43 65.2176 111.635 65.0187 111.262ZM73.5783 111.264C72.9256 110.916 71.8167 111.096 71.0402 111.119C70.9327 111.605 70.8901 111.398 71.0773 111.777C71.7105 112.112 72.8725 111.915 73.6467 111.918C73.7253 111.43 73.7796 111.633 73.5783 111.264ZM52.4758 111.237C52.0047 110.977 51.2405 111.106 50.673 111.144C50.526 111.601 50.5019 111.399 50.6506 111.774C51.1046 112.037 51.9828 111.943 52.5461 111.93C52.637 111.419 52.6875 111.636 52.4758 111.237ZM102.205 110.257C101.743 110.51 100.85 110.922 100.579 111.293C100.604 111.594 100.612 111.641 100.933 111.829C101.585 111.545 102.168 111.264 102.514 110.612L102.484 110.359L102.205 110.257ZM47.6467 109.198C46.8401 110.243 48.1545 111.162 49.0373 111.566C49.1389 111.367 49.2926 111.183 49.2297 111.035C49.1095 110.755 47.8237 109.319 47.6467 109.198ZM102.808 108.588C102.594 109.006 102.333 109.367 102.407 109.814C102.594 110.073 102.613 110.055 102.898 110.215C103.174 109.801 103.316 109.668 103.374 109.192C103.241 108.807 103.224 108.766 102.808 108.588ZM47.2023 105.585C46.72 106.255 46.5624 107.738 47.4738 108.166C47.8514 107.562 47.9924 106.324 47.51 105.753L47.2023 105.585ZM103.007 104.661C102.516 105.356 102.371 107.14 103.177 107.687C103.637 107.075 103.748 105.134 103.007 104.661ZM81.9777 67.9544C80.9247 67.6437 77.5644 67.7285 76.4894 67.848C75.0095 68.9931 75.7074 69.9231 75.1047 71.5159C74.2643 71.8305 71.7277 73.1842 70.8342 72.886C70.2274 72.6829 69.0376 71.078 67.9953 71.6009C66.6958 72.5012 64.5936 74.4709 63.9416 75.9153C63.6188 76.6311 65.0982 78.1478 65.468 78.8675C65.0803 79.7238 64.2513 82.4051 63.381 82.7513C62.5987 82.974 60.8574 82.8877 60.5441 83.8294C60.2091 84.8377 59.9202 90.1424 61.3312 90.2952C64.7256 90.6607 63.9519 91.1 65.4504 94.4437L65.3771 94.5716C63.8147 97.3029 62.9073 97.058 65.8859 99.8587C66.7389 100.554 67.8305 102.211 69.0734 101.624C70.0904 101.143 70.8028 99.8316 72.006 100.419C72.5084 100.664 75.1052 101.572 75.2375 101.957C75.6182 103.098 74.8794 104.474 76.4396 105.139C77.4025 105.568 80.6604 105.428 81.7892 105.327C84.5899 103.804 80.3768 102.243 87.2092 100.184C90.4163 102.489 90.042 102.255 92.8937 99.5237C95.7244 96.8146 94.4306 96.9995 93.0129 94.4866C93.2816 93.8072 94.302 90.7781 94.965 90.7034C98.9129 90.2625 98.0161 89.2146 98.1457 86.2337C98.3608 81.2451 96.2896 84.4569 94.3244 82.0716C94.2172 81.9386 93.2316 79.424 93.0119 78.8978L93.0822 78.7698C93.4566 78.1139 94.8363 76.5888 94.5158 75.887C93.8351 74.3962 92.2068 73.1684 91.0588 72.0569C89.2986 70.3521 88.057 73.57 86.7863 72.9437C85.7446 72.4309 83.6631 71.9788 83.1584 70.9232C82.7167 69.8985 83.2668 68.3349 81.9777 67.9544ZM47.2336 102.7C46.8185 103.275 46.6135 103.907 47.1818 104.466L47.4611 104.568C47.8294 103.927 48.0664 103.11 47.2336 102.7ZM103.002 100.485C102.522 101.177 102.367 103.055 103.161 103.603C103.632 102.964 103.781 100.964 103.002 100.485ZM47.0617 98.9437C46.8609 99.93 46.4533 101.387 47.5822 101.8C47.9078 100.98 48.179 99.2375 47.0617 98.9437ZM102.89 96.2894C102.576 97.1109 102.35 98.8253 103.233 99.3382C103.591 98.7646 103.668 96.9692 103.247 96.4388L102.89 96.2894ZM47.0705 94.9925C46.8953 95.6236 46.6671 96.9035 47.05 97.4896C47.1612 97.6589 47.334 97.6609 47.5783 97.7444C47.8744 96.9679 48.208 95.1903 47.0705 94.9925ZM78.091 75.9319C83.8685 75.3332 89.036 79.5422 89.6359 85.3343C90.2343 91.1255 86.0393 96.3088 80.2629 96.9124C74.4831 97.5154 69.3087 93.3058 68.7092 87.5101C68.1089 81.7158 72.3104 76.5311 78.091 75.9319ZM102.872 92.095C102.57 92.891 102.324 94.6364 103.245 95.0657C103.575 94.4657 103.585 93.2274 103.432 92.5452C103.355 92.2078 103.163 92.2086 102.872 92.095ZM77.1887 80.6214C76.9995 80.5291 76.4782 80.569 76.2687 80.5853C75.2599 81.5623 75.5996 84.0039 75.5881 85.4241C75.5175 94.2296 75.3624 93.2721 81.8908 89.2737C82.8874 88.6704 85.1863 87.4986 85.5383 86.4671C85.4495 85.4485 83.4356 84.3588 82.5978 83.8519C80.8112 82.7694 79.0598 81.5391 77.1887 80.6214ZM103.065 87.9446C102.506 88.6768 102.456 90.2094 103.064 90.93C103.667 90.2612 103.805 88.4599 103.065 87.9446ZM35.1164 23.3733C32.4285 23.374 29.0365 23.2782 26.4133 23.4153C24.2976 24.1246 23.5323 25.3335 23.5187 27.5482C23.4992 30.7845 23.5098 34.0225 23.5129 37.2591L23.5246 56.4144L23.5158 75.8587C23.5143 79.3789 23.5006 82.9155 23.5461 86.4183C23.5666 87.9882 24.256 89.6249 25.7961 90.1204C27.6837 90.7273 30.7154 90.475 32.7004 90.4622L40.467 90.4642L49.9211 90.4524C51.2922 90.456 57.2533 91.2048 55.4855 88.5071C55.406 88.3854 55.1179 88.1727 54.9641 88.1653C53.4452 88.0922 51.516 88.1255 50.0119 88.1243L34.9601 88.1292C32.6365 88.1304 30.2648 88.1675 27.9387 88.1351C27.4315 88.1281 26.7966 87.9816 26.3605 87.7171C25.9091 87.4431 25.892 85.8865 25.8918 85.348C25.8894 79.1181 25.899 72.8815 25.8996 66.6517L25.9025 30.4358C25.8784 28.7857 25.3275 25.5416 27.6867 25.5892C29.8827 25.6337 32.0853 25.6335 34.2824 25.6321L50.1584 25.6282L59.4055 25.6273C61.0592 25.6249 62.8659 25.4833 64.5012 25.7015C64.9108 25.7562 65.2109 25.8788 65.4435 26.2386C66.4782 27.8394 65.0248 36.138 65.9992 38.3733C66.2341 38.9119 66.6139 39.1931 67.1682 39.3567C68.6774 39.8017 73.2596 39.5044 75.0305 39.4915C75.777 39.4861 76.6049 39.4106 77.3351 39.5716C77.726 39.6579 77.9747 39.7818 78.2199 40.1067C78.4548 40.973 78.3746 43.7799 78.3723 44.8694L78.3605 57.1585C78.3605 58.2945 77.6736 65.9113 80.3576 62.8851C80.6121 61.8222 80.5287 58.8618 80.5275 57.6439L80.51 49.4837C80.503 45.8896 80.5471 42.1298 80.5217 38.5228C80.511 37.0016 79.5476 36.2341 78.4992 35.1839C74.8894 31.5695 71.3178 27.8663 67.6408 24.3187C67.3202 24.0095 66.6785 23.492 66.2433 23.4603C64.5537 23.3375 62.8349 23.3762 61.1418 23.3753L51.4396 23.3724L35.1164 23.3733ZM102.989 84.1107C102.528 84.8394 102.462 86.4322 103.182 87.0472C103.623 86.4672 103.776 84.495 102.989 84.1107ZM103.004 81.2122C102.508 81.9791 102.468 82.8482 103.129 83.5374C103.522 82.8852 103.835 81.6532 103.004 81.2122ZM103.03 77.2982C102.541 77.999 102.354 79.6521 103.154 80.1976C103.639 79.6076 103.738 77.811 103.03 77.2982ZM49.9855 75.5687C49.2458 74.8436 46.0204 75.109 45.0891 75.1126L36.7365 75.1487C36.188 75.6104 35.8549 76.0097 36.2014 76.7591C36.672 77.2046 37.0878 77.2627 37.7346 77.2523C41.5547 77.1966 45.4328 77.3296 49.2473 77.2171C49.3408 77.2148 49.435 77.2118 49.5285 77.2083C50.0357 76.7814 50.4961 76.0698 49.9855 75.5687ZM103.023 73.2425C102.465 74.0002 102.417 75.6489 103.169 76.3196C103.636 75.617 103.74 73.804 103.023 73.2425ZM102.951 66.9212C102.801 67.2749 102.866 67.3206 102.546 67.5315C100.138 69.1166 100.088 71.6879 103.295 72.2054C104.115 71.9038 104.747 71.6298 105.141 70.7601C105.389 70.2044 105.392 69.568 105.148 69.0101C104.631 67.8104 103.911 67.8666 103.183 67.0325C103.142 66.9862 103.016 66.9456 102.951 66.9212ZM41.4826 69.9114C44.5461 67.2377 37.6973 67.8198 36.7365 67.8362C33.5658 70.5039 40.5912 69.9277 41.4826 69.9114ZM57.4299 67.8626C53.4536 67.7953 49.336 67.7467 45.3605 67.8314C45.245 67.8337 45.1293 67.8371 45.0139 67.844C44.1675 68.5518 43.923 69.647 45.3654 69.8919C46.1222 70.0218 47.0051 69.9014 47.7717 69.9466C51.0261 69.8503 54.4327 70.0645 57.6701 69.9056C58.586 69.076 58.4241 67.879 57.4299 67.8626ZM102.858 62.9749C102.64 63.6014 102.505 65.0641 102.834 65.6653C102.927 65.8359 103.06 65.8324 103.283 65.9183C103.581 65.3259 103.652 63.6659 103.27 63.1126L102.858 62.9749ZM42.0334 61.1409C41.2157 60.1475 38.111 60.5209 36.8176 60.5521C36.2188 60.9327 35.8538 61.2479 36.1301 62.0325C36.9387 62.9931 40.018 62.6388 41.3058 62.6155C41.9563 62.2431 42.2901 61.9525 42.0334 61.1409ZM67.298 60.5657C59.9478 60.5692 52.504 60.4161 45.1594 60.553C44.5052 60.9146 44.1871 61.325 44.4435 62.1009C45.0837 62.8874 47.247 62.6371 48.2512 62.637L53.8312 62.6312C58.1658 62.6277 63.4492 62.7776 67.7141 62.6175C68.3272 62.259 68.6787 61.8436 68.4289 61.0989C68.1222 60.7247 67.7817 60.5656 67.298 60.5657ZM102.89 58.805C102.583 59.5458 102.34 61.3861 103.21 61.8108C103.615 61.2898 103.791 59.0596 102.89 58.805ZM102.904 54.6263C102.547 55.4156 102.33 57.1948 103.227 57.6917C103.608 57.0489 103.816 54.9669 102.904 54.6263ZM42.1623 53.8899C41.1071 52.8546 36.2609 53.2206 34.5441 53.2308C30.7165 56.1092 40.6971 55.3589 41.4328 55.3118C41.9677 54.9272 42.4026 54.5636 42.1623 53.8899ZM59.3391 53.2142C55.4383 53.2004 51.514 53.2217 47.6135 53.2347C47.0402 53.6585 46.6934 54.1324 47.0334 54.8665C47.8397 55.6323 50.8317 55.3629 52.0158 55.3597L60.2814 55.3421C60.9152 54.9221 61.1753 54.4986 60.8693 53.7513C60.4449 53.2829 59.9653 53.2164 59.3391 53.2142ZM100.573 51.428C100.524 51.6382 100.413 51.8751 100.521 51.9632C101.214 52.5313 101.744 52.825 102.388 53.5042L102.786 53.594C103.333 52.3804 101.532 51.5566 100.573 51.428ZM86.3791 51.4183C85.8652 51.0904 84.8267 51.224 84.1799 51.2513C84.034 51.7933 83.987 51.5691 84.1965 51.971C84.7729 52.2437 85.6318 52.1109 86.3088 52.0784C86.4915 51.6141 86.5006 51.8261 86.3791 51.4183ZM94.7092 51.4222C94.171 51.0893 92.8978 51.221 92.2346 51.2415C92.0311 51.6763 92.032 51.4739 92.1223 51.8626C92.6015 52.2855 93.9603 52.0959 94.6408 52.0628C94.8328 51.6126 94.8411 51.8186 94.7092 51.4222ZM98.8146 51.3939C98.1655 51.0787 97.075 51.2399 96.3146 51.261C96.1619 51.7317 96.1363 51.5244 96.2971 51.9124C96.855 52.2524 98.226 52.1014 98.9064 52.0735C98.9782 51.5533 99.0436 51.7621 98.8146 51.3939ZM90.5363 51.389C89.8986 51.056 88.8233 51.2382 88.0666 51.2649C87.9127 51.7275 87.8909 51.5223 88.0344 51.9075C88.5738 52.2452 89.9607 52.0917 90.6262 52.0638C90.6921 51.5544 90.7539 51.7632 90.5363 51.389ZM48.6721 43.5081C46.7955 43.4308 44.7824 43.4937 42.9025 43.5179C41.3766 44.0809 41.8992 45.621 43.5715 45.6487C45.476 45.6802 47.3847 45.6714 49.2902 45.6175C49.9265 45.3415 50.3458 44.9153 50.1428 44.1761C49.7811 43.7154 49.2385 43.5315 48.6721 43.5081ZM34.3859 34.1732C33.2234 35.497 34.4313 36.1456 35.3762 37.1409C36.2716 38.0842 37.291 39.0195 38.215 39.9398C37.1799 40.9371 34.2944 43.3391 33.9308 44.7874C33.7712 45.4238 34.6398 45.8263 35.4572 45.4329C36.3139 44.5621 40.3435 40.9181 40.4777 40.0843C40.658 38.9577 36.6558 35.68 35.8234 34.7298C35.3669 34.2086 35.0463 34.122 34.3859 34.1732Z" fill="#FEB600"/>
<path d="M13.3264 67.6116C14.6752 67.6093 17.3974 67.4214 18.6985 67.8089C18.977 67.8924 19.0157 68.1444 19.0842 68.3753C18.9788 68.7756 18.9959 68.7515 18.7122 69.052C17.5068 69.117 14.536 69.2618 13.3704 68.9427C13.0702 68.8602 13.0214 68.6201 12.9417 68.3811C13.001 67.9623 13.0649 67.9411 13.3264 67.6116ZM6.32349 60.6009C7.59547 61.0982 8.76692 62.0248 9.91333 62.4495C14.9651 64.3257 9.23975 66.1524 7.00513 67.3684C6.37402 67.7421 5.93381 67.5921 5.84595 66.8391C6.1633 65.9538 9.30333 64.6343 10.2649 64.1643C9.20391 63.626 6.04568 62.3719 5.8938 61.344C5.96937 60.9172 6.02691 60.9116 6.32349 60.6009Z" fill="#AB7B00"/>
<path d="M106.167 43.6924C107.118 43.6918 109.605 43.3861 110.186 44.0381C110.303 44.4242 110.231 44.5119 110.086 44.8886C109.028 44.8764 106.67 45.2531 106.019 44.5117C105.949 44.1117 106.01 44.0677 106.167 43.6924ZM101.998 43.705C102.676 43.6697 103.092 43.5467 103.586 43.9687C103.717 44.3663 103.654 44.457 103.536 44.8564C103.301 44.8731 103.066 44.8863 102.83 44.8955C102.319 44.912 102.187 44.8901 101.848 44.5742C101.75 44.1757 101.834 44.0815 101.998 43.705ZM101.991 38.25C102.988 38.1991 105.038 37.8948 105.745 38.5879C105.828 38.9794 105.772 39.0239 105.641 39.4013C104.651 39.4325 102.567 39.7195 101.871 39.0537C101.788 38.6609 101.844 38.6233 101.991 38.25ZM116.1 38.2353C116.404 38.2391 116.493 38.3774 116.651 38.5908C116.697 38.9883 116.652 39.025 116.521 39.3984C114.811 39.4495 110.706 39.4616 108.899 39.3642C108.809 39.2861 108.719 39.207 108.63 39.1289C108.515 38.663 108.57 38.7615 108.715 38.2314C111.138 38.1537 113.671 38.2064 116.1 38.2353ZM108.741 32.5556C109.815 32.5567 112.824 32.2153 113.433 32.999C113.477 33.411 113.432 33.4274 113.259 33.7959C112.105 33.7789 109.349 34.1522 108.601 33.4199C108.496 33.0416 108.591 32.9219 108.741 32.5556ZM101.999 32.581C102.998 32.5431 105.52 32.2076 106.116 33.0019C106.14 33.4075 106.111 33.4071 105.926 33.7558C104.995 33.8237 102.507 34.085 101.894 33.4101C101.783 33.0424 101.861 32.9415 101.999 32.581Z" fill="#AB7B00"/>
<path d="M10.889 111.634C11.2135 111.483 11.5992 111.616 11.7621 111.936C11.9248 112.255 11.8056 112.648 11.4926 112.822C11.2801 112.94 11.0202 112.933 10.8148 112.803C10.6092 112.673 10.4909 112.44 10.5062 112.198C10.5217 111.954 10.6686 111.738 10.889 111.634ZM20.1508 111.64C20.4795 111.473 20.881 111.605 21.0482 111.934C21.2154 112.264 21.0847 112.667 20.7562 112.834C20.4272 113.002 20.0243 112.872 19.8568 112.542C19.6893 112.212 19.8214 111.808 20.1508 111.64ZM24.8265 111.638C25.154 111.488 25.5409 111.629 25.6947 111.957C25.8481 112.282 25.7116 112.672 25.3881 112.831C25.175 112.934 24.9222 112.915 24.7269 112.781C24.5318 112.646 24.4243 112.417 24.4447 112.18C24.4652 111.943 24.611 111.737 24.8265 111.638ZM15.4935 111.634C15.7059 111.515 15.966 111.521 16.1732 111.649C16.3804 111.777 16.5024 112.006 16.4926 112.249C16.4826 112.493 16.3423 112.712 16.1254 112.823C15.7992 112.989 15.4008 112.862 15.2289 112.539C15.0569 112.215 15.1746 111.813 15.4935 111.634ZM15.599 106.865C15.8359 106.786 16.0961 106.845 16.2758 107.019C16.4556 107.192 16.5254 107.451 16.4564 107.691C16.3874 107.931 16.1908 108.113 15.9467 108.165C15.5978 108.237 15.2532 108.025 15.1605 107.679C15.068 107.335 15.2605 106.976 15.599 106.865ZM10.9916 106.869C11.3293 106.78 11.6776 106.972 11.7845 107.306C11.8914 107.639 11.7199 107.998 11.3939 108.124C11.1663 108.212 10.9087 108.167 10.725 108.005C10.5413 107.844 10.4621 107.595 10.5179 107.357C10.5738 107.119 10.7557 106.931 10.9916 106.869ZM24.6576 107.005C24.8392 106.857 25.0869 106.816 25.306 106.901C25.525 106.986 25.6823 107.181 25.7172 107.415C25.7518 107.647 25.6587 107.88 25.474 108.026C25.1926 108.246 24.7856 108.2 24.5619 107.92C24.3384 107.641 24.3813 107.233 24.6576 107.005ZM20.2377 106.878C20.559 106.768 20.911 106.925 21.0463 107.237C21.1813 107.549 21.0548 107.914 20.7553 108.074C20.5387 108.189 20.2755 108.173 20.0746 108.032C19.8737 107.89 19.7686 107.648 19.8031 107.405C19.8377 107.161 20.0058 106.959 20.2377 106.878ZM20.0726 102.364C20.38 102.162 20.7914 102.243 20.9994 102.546C21.2074 102.85 21.1361 103.265 20.8383 103.48C20.6393 103.624 20.3778 103.649 20.1556 103.544C19.9337 103.44 19.7852 103.223 19.7679 102.978C19.7509 102.732 19.8675 102.497 20.0726 102.364ZM10.807 102.36C11.118 102.175 11.5194 102.277 11.7074 102.585C11.8951 102.894 11.8 103.297 11.4945 103.49C11.2929 103.617 11.039 103.626 10.8295 103.512C10.62 103.4 10.4876 103.182 10.4828 102.943C10.4782 102.704 10.6019 102.481 10.807 102.36ZM15.4808 102.348C15.6888 102.23 15.9448 102.231 16.1508 102.354C16.3567 102.477 16.4808 102.701 16.476 102.941C16.471 103.181 16.3372 103.4 16.1263 103.514C15.806 103.687 15.4066 103.57 15.2299 103.251C15.0531 102.932 15.1649 102.53 15.4808 102.348ZM24.7396 102.37C24.9417 102.241 25.1984 102.232 25.4076 102.349C25.6168 102.465 25.7459 102.687 25.7435 102.927C25.7412 103.167 25.6075 103.387 25.3959 103.499C25.0862 103.664 24.703 103.553 24.5267 103.249C24.3507 102.947 24.4445 102.558 24.7396 102.37Z" fill="#AB7B00"/>
</svg>
