<svg width="20" height="20" viewBox="0 0 20 20" fill="none" xmlns="http://www.w3.org/2000/svg">
<rect width="20" height="20" rx="10" fill="white"/>
<path d="M8.02542 10L12.8754 4.76682C12.9154 4.72465 12.9469 4.67458 12.9683 4.61951C12.9897 4.56444 13.0005 4.50547 13 4.446C12.9995 4.38654 12.9878 4.32776 12.9656 4.27308C12.9433 4.21839 12.911 4.16888 12.8704 4.12741C12.8298 4.08594 12.7818 4.05333 12.7291 4.03148C12.6764 4.00962 12.6201 3.99895 12.5635 4.00008C12.5069 4.00121 12.451 4.01413 12.3992 4.03807C12.3473 4.06201 12.3005 4.09652 12.2615 4.13958L7.12133 9.68638C7.04353 9.77034 7 9.88286 7 10C7 10.1171 7.04353 10.2297 7.12133 10.3136L12.2615 15.8604C12.3005 15.9035 12.3473 15.938 12.3992 15.9619C12.451 15.9859 12.5069 15.9988 12.5635 15.9999C12.6201 16.0011 12.6764 15.9904 12.7291 15.9685C12.7818 15.9467 12.8298 15.9141 12.8704 15.8726C12.911 15.8311 12.9433 15.7816 12.9656 15.7269C12.9878 15.6722 12.9995 15.6135 13 15.554C13.0005 15.4945 12.9897 15.4356 12.9683 15.3805C12.9469 15.3254 12.9154 15.2754 12.8754 15.2332L8.02542 10Z" fill="black"/>
</svg>
