<svg width="20" height="20" viewBox="0 0 20 20" fill="none" xmlns="http://www.w3.org/2000/svg">
<rect width="20" height="20" rx="10" transform="matrix(-1 0 0 1 20 0)" fill="white"/>
<path d="M11.9746 10L7.12457 4.76682C7.08464 4.72465 7.05307 4.67458 7.03169 4.61951C7.01031 4.56444 6.99954 4.50547 7.00001 4.446C7.00049 4.38654 7.01218 4.32776 7.03443 4.27308C7.05668 4.21839 7.08904 4.16888 7.12963 4.12741C7.17022 4.08594 7.21824 4.05333 7.27092 4.03148C7.32359 4.00962 7.37987 3.99895 7.4365 4.00008C7.49313 4.00121 7.54898 4.01413 7.60082 4.03807C7.65266 4.06201 7.69947 4.09652 7.73853 4.13958L12.8787 9.68638C12.9565 9.77034 13 9.88286 13 10C13 10.1171 12.9565 10.2297 12.8787 10.3136L7.73853 15.8604C7.69947 15.9035 7.65266 15.938 7.60082 15.9619C7.54898 15.9859 7.49313 15.9988 7.4365 15.9999C7.37987 16.0011 7.32359 15.9904 7.27092 15.9685C7.21824 15.9467 7.17022 15.9141 7.12963 15.8726C7.08904 15.8311 7.05668 15.7816 7.03443 15.7269C7.01218 15.6722 7.00049 15.6135 7.00001 15.554C6.99954 15.4945 7.01031 15.4356 7.03169 15.3805C7.05307 15.3254 7.08464 15.2754 7.12457 15.2332L11.9746 10Z" fill="black"/>
</svg>
