<svg width="20" height="20" viewBox="0 0 20 20" fill="none" xmlns="http://www.w3.org/2000/svg">
<path d="M2.48674 9.55824L8.23199 3.813C8.3492 3.69579 8.50817 3.62994 8.67393 3.62994C8.83969 3.62994 8.99866 3.69579 9.11587 3.813C9.23308 3.93021 9.29893 4.08918 9.29893 4.25494C9.29893 4.4207 9.23308 4.57967 9.11587 4.69688L4.43736 9.37539L17.0708 9.37484C17.2367 9.37484 17.3957 9.44072 17.513 9.558C17.6303 9.67527 17.6962 9.83433 17.6962 10.0002C17.6962 10.166 17.6303 10.3251 17.513 10.4424C17.3957 10.5596 17.2367 10.6255 17.0708 10.6255L4.43736 10.625L9.11587 15.3035C9.23308 15.4207 9.29893 15.5797 9.29893 15.7454C9.29893 15.9112 9.23308 16.0702 9.11587 16.1874C8.99866 16.3046 8.83969 16.3704 8.67393 16.3704C8.50817 16.3704 8.3492 16.3046 8.23199 16.1874L2.48674 10.4421C2.36953 10.3249 2.30369 10.1659 2.30369 10.0002C2.30369 9.83442 2.36953 9.67545 2.48674 9.55824Z" fill="white"/>
</svg>
