<svg width="48" height="48" viewBox="0 0 48 48" fill="none" xmlns="http://www.w3.org/2000/svg">
<path d="M24.485 29.983V32.843C24.485 35.704 29.625 36.906 29.625 36.906H11.375C11.375 36.906 16.477 35.704 16.477 32.844V29.984M2 25.653H39M36.071 29.983H4.93C4.15344 29.983 3.40863 29.6747 2.85924 29.1259C2.30984 28.5771 2.0008 27.8326 2 27.056V6.928C2.00053 6.15144 2.30932 5.40684 2.85853 4.85782C3.40774 4.3088 4.15244 4.00026 4.929 4H36.07C36.8467 4 37.5917 4.30842 38.1411 4.85747C38.6905 5.40652 38.9995 6.15126 39 6.928V27.056C38.9992 27.8326 38.6902 28.5771 38.1408 29.1259C37.5914 29.6747 36.8476 29.983 36.071 29.983Z" stroke="#FEB600" stroke-width="1.5" stroke-linecap="round" stroke-linejoin="round"/>
<rect x="27.5" y="11.9531" width="19" height="31" rx="1.5" fill="#292C34" stroke="#FEB600"/>
<line x1="31.5" y1="38.9531" x2="42.5" y2="38.9531" stroke="#FEB600" stroke-linecap="round"/>
</svg>
