<svg width="33" height="32" viewBox="0 0 33 32" fill="none" xmlns="http://www.w3.org/2000/svg">
<path d="M4.70312 8C4.70313 7.73478 4.80743 7.48043 4.99309 7.29289C5.17875 7.10536 5.43056 7 5.69313 7H26.8131C27.0757 7 27.3275 7.10536 27.5132 7.29289C27.6988 7.48043 27.8031 7.73478 27.8031 8C27.8031 8.26522 27.6988 8.51957 27.5132 8.70711C27.3275 8.89464 27.0757 9 26.8131 9H5.69313C5.43056 9 5.17875 8.89464 4.99309 8.70711C4.80743 8.51957 4.70312 8.26522 4.70312 8ZM4.70312 24C4.70312 23.7348 4.80743 23.4804 4.99309 23.2929C5.17875 23.1054 5.43056 23 5.69313 23H26.8131C27.0757 23 27.3275 23.1054 27.5132 23.2929C27.6988 23.4804 27.8031 23.7348 27.8031 24C27.8031 24.2652 27.6988 24.5196 27.5132 24.7071C27.3275 24.8946 27.0757 25 26.8131 25H5.69313C5.43056 25 5.17875 24.8946 4.99309 24.7071C4.80743 24.5196 4.70312 24.2652 4.70312 24ZM5.69313 15C5.43056 15 5.17875 15.1054 4.99309 15.2929C4.80743 15.4804 4.70312 15.7348 4.70312 16C4.70312 16.2652 4.80743 16.5196 4.99309 16.7071C5.17875 16.8946 5.43056 17 5.69313 17H26.8131C27.0757 17 27.3275 16.8946 27.5132 16.7071C27.6988 16.5196 27.8031 16.2652 27.8031 16C27.8031 15.7348 27.6988 15.4804 27.5132 15.2929C27.3275 15.1054 27.0757 15 26.8131 15H5.69313Z" fill="#FEB600"/>
</svg>
