<svg width="48" height="48" viewBox="0 0 48 48" fill="none" xmlns="http://www.w3.org/2000/svg">
<path d="M9.958 19.37C5.986 17.782 4 16.988 4 16C4 15.012 5.986 14.22 9.958 12.63L15.574 10.384C19.546 8.794 21.534 8 24 8C26.466 8 28.454 8.794 32.426 10.384L38.042 12.63C42.014 14.218 44 15.012 44 16C44 16.988 42.014 17.78 38.042 19.37L32.426 21.618C28.454 23.206 26.466 24 24 24C21.534 24 19.546 23.206 15.574 21.618L9.958 19.37Z" stroke="#FEB600" stroke-width="1.5"/>
<path d="M11.532 20L9.958 20.63C5.986 22.218 4 23.014 4 24C4 24.986 5.986 25.78 9.958 27.37L15.574 29.618C19.546 31.206 21.534 32 24 32C26.466 32 28.454 31.206 32.426 29.618L38.042 27.37C42.014 25.782 44 24.986 44 24C44 23.014 42.014 22.22 38.042 20.63L36.468 20" stroke="#FEB600" stroke-width="1.5"/>
<path d="M11.532 28L9.958 28.63C5.986 30.218 4 31.014 4 32C4 32.986 5.986 33.78 9.958 35.37L15.574 37.618C19.546 39.206 21.534 40 24 40C26.466 40 28.454 39.206 32.426 37.616L38.042 35.37C42.014 33.782 44 32.988 44 32C44 31.014 42.014 30.22 38.042 28.63L36.468 28" stroke="#FEB600" stroke-width="1.5"/>
</svg>
