<svg width="48" height="48" viewBox="0 0 48 48" fill="none" xmlns="http://www.w3.org/2000/svg">
<rect x="0.5" y="0.5" width="47" height="47" rx="23.5" stroke="#C0C4CE"/>
<path d="M32.7675 24.2775C33.3975 24.9 33.75 25.755 33.75 26.64C33.75 27.5325 33.3975 28.3875 32.76 29.0175C32.1 29.67 31.2375 30 30.375 30C29.5125 30 28.6425 29.67 27.9825 29.0175C27.54 28.575 22.1625 23.2275 19.9125 20.9925L18.96 20.04C18.5175 19.5825 17.865 19.41 17.25 19.545C16.8975 19.6275 16.5675 19.7775 16.305 20.04C15.9525 20.3925 15.7575 20.865 15.7575 21.36C15.7575 21.855 15.9525 22.3275 16.305 22.68C16.695 23.0625 21.36 27.705 21.36 27.705L20.295 28.7625L15.24 23.7375C14.6025 23.1 14.25 22.26 14.25 21.36C14.25 20.46 14.6025 19.62 15.24 18.9825C15.8775 18.345 16.725 18 17.625 18C18.525 18 19.3725 18.3525 20.01 18.9825L20.9625 19.935L29.0325 27.96C29.7675 28.6875 30.9525 28.6875 31.6875 27.96C32.04 27.6075 32.235 27.135 32.235 26.64C32.235 26.145 32.04 25.6725 31.6875 25.32L26.64 20.3025L27.705 19.245L32.76 24.27L32.7675 24.2775ZM24 13.5C25.6575 13.5 27 14.8425 27 16.5C27 18.1575 25.6575 19.5 24 19.5C22.3425 19.5 21 18.1575 21 16.5C21 14.8425 22.3425 13.5 24 13.5ZM24.015 18C24.8325 18 25.5 17.325 25.5 16.5C25.5 15.675 24.8325 15 24.015 15H23.9475C23.1225 15.0225 22.4775 15.7125 22.5 16.53C22.515 17.355 23.19 18.0075 24.015 17.9925V18ZM27 31.5C27 33.1575 25.6575 34.5 24 34.5C22.3425 34.5 21 33.1575 21 31.5C21 29.8425 22.3425 28.5 24 28.5C25.6575 28.5 27 29.8425 27 31.5ZM24.015 33C24.8325 33 25.5 32.325 25.5 31.5C25.5 30.675 24.8325 30 24.015 30H23.9475C23.1225 30.0225 22.4775 30.7125 22.5 31.53C22.515 32.355 23.19 33.0075 24.015 32.9925V33Z" fill="#C0C4CE"/>
</svg>
