<svg width="48" height="48" viewBox="0 0 48 48" fill="none" xmlns="http://www.w3.org/2000/svg">
<rect x="0.5" y="0.5" width="47" height="47" rx="23.5" stroke="#C0C4CE"/>
<path d="M16 30V26.3C16 25.9022 15.842 25.5206 15.5607 25.2393C15.2794 24.958 14.8978 24.8 14.5 24.8H14V23.2H14.5C14.697 23.2 14.892 23.1612 15.074 23.0858C15.256 23.0104 15.4214 22.8999 15.5607 22.7607C15.6999 22.6214 15.8104 22.456 15.8858 22.274C15.9612 22.092 16 21.897 16 21.7V18C16 17.2044 16.3161 16.4413 16.8787 15.8787C17.4413 15.3161 18.2044 15 19 15H20V17H19C18.7348 17 18.4804 17.1054 18.2929 17.2929C18.1054 17.4804 18 17.7348 18 18V22.1C18.0001 22.521 17.8673 22.9313 17.6206 23.2725C17.3739 23.6136 17.0259 23.8682 16.626 24C17.0259 24.1318 17.3739 24.3864 17.6206 24.7275C17.8673 25.0687 18.0001 25.479 18 25.9V30C18 30.2652 18.1054 30.5196 18.2929 30.7071C18.4804 30.8946 18.7348 31 19 31H20V33H19C18.2044 33 17.4413 32.6839 16.8787 32.1213C16.3161 31.5587 16 30.7956 16 30ZM32 26.3V30C32 30.7956 31.6839 31.5587 31.1213 32.1213C30.5587 32.6839 29.7956 33 29 33H28V31H29C29.2652 31 29.5196 30.8946 29.7071 30.7071C29.8946 30.5196 30 30.2652 30 30V25.9C29.9999 25.479 30.1327 25.0687 30.3794 24.7275C30.6261 24.3864 30.9741 24.1318 31.374 24C30.9741 23.8682 30.6261 23.6136 30.3794 23.2725C30.1327 22.9313 29.9999 22.521 30 22.1V18C30 17.7348 29.8946 17.4804 29.7071 17.2929C29.5196 17.1054 29.2652 17 29 17H28V15H29C29.7956 15 30.5587 15.3161 31.1213 15.8787C31.6839 16.4413 32 17.2044 32 18V21.7C32 22.0978 32.158 22.4794 32.4393 22.7607C32.7206 23.042 33.1022 23.2 33.5 23.2H34V24.8H33.5C33.1022 24.8 32.7206 24.958 32.4393 25.2393C32.158 25.5206 32 25.9022 32 26.3Z" fill="#C0C4CE"/>
</svg>
