<svg width="48" height="48" viewBox="0 0 48 48" fill="none" xmlns="http://www.w3.org/2000/svg">
<path d="M8 18H40L38.33 36.362C38.2397 37.3558 37.7812 38.28 37.0444 38.9531C36.3077 39.6262 35.3459 39.9996 34.348 40H13.652C12.6541 39.9996 11.6923 39.6262 10.9556 38.9531C10.2188 38.28 9.76031 37.3558 9.67 36.362L8 18Z" stroke="#FEB600" stroke-width="1.5" stroke-linejoin="round"/>
<path d="M16 22V16C16 13.8783 16.8429 11.8434 18.3431 10.3431C19.8434 8.84285 21.8783 8 24 8C26.1217 8 28.1566 8.84285 29.6569 10.3431C31.1571 11.8434 32 13.8783 32 16V22" stroke="#FEB600" stroke-width="1.5" stroke-linecap="round"/>
</svg>
