<svg width="128" height="128" viewBox="0 0 128 128" fill="none" xmlns="http://www.w3.org/2000/svg">
<path d="M23.5914 3.10583C24.6679 2.92832 26.6488 3.02753 27.811 3.02886L35.4117 3.04036L60.3573 3.03859L91.1389 3.03638L99.9354 3.03051C106.895 3.02885 111.133 3.27925 116.874 7.94841C121.345 11.5264 124.205 16.7473 124.816 22.4496C125.055 24.7858 124.992 27.2264 124.99 29.5822L124.979 39.138L124.973 69.3634L124.971 92.7867C124.97 96.3932 125.142 102.926 124.655 106.262C124.078 110.133 122.479 113.778 120.025 116.82C116.155 121.58 110.87 124.31 104.811 124.923C98.7771 125.086 92.0181 124.939 85.9464 124.939L50.124 124.943L32.569 124.94C24.5272 124.953 18.2952 125.685 11.4966 120.22C6.82409 116.495 3.82727 111.055 3.17079 105.106C2.94376 103.011 3.00807 100.714 3.00939 98.5908L3.01061 89.6313L3.00862 59.5373L3.01425 35.204L3.01591 28.1628C3.01844 26.2419 2.98546 24.0183 3.25694 22.1293C3.78579 18.45 5.56738 14.4569 7.90066 11.5712C11.7824 6.74866 17.4384 3.69719 23.5914 3.10583Z" fill="#000109"/>
<path d="M94.3182 0.0816472C104.057 0.0770574 111.071 -1.08242 119.238 5.4879C124.14 9.46554 127.237 15.1776 127.854 21.3795C128.053 23.5108 127.992 25.7091 127.989 27.8541L127.984 36.899L127.988 66.1549L127.99 92.7213L127.988 100.75C127.986 106.791 127.717 111.706 124.187 116.895C123.978 117.2 123.674 117.238 123.349 117.254C122.469 116.849 120.093 112.346 119.424 111.197C120.739 110.124 120.49 109.443 119.687 108.04C119.344 107.437 118.936 106.691 118.652 106.062C117.985 104.584 117.206 103.509 115.474 104.466C113.582 105.359 111.609 106.349 109.772 107.261C105.794 109.258 101.799 111.224 97.788 113.16C95.6278 114.459 97.9055 117.074 98.6181 118.701C99.2332 120.106 99.7654 120.399 101.269 120.164C102.184 122.276 103.457 124.985 104.166 127.094C101.62 128.269 100.578 127.964 97.8173 127.964L90.6483 127.957L66.6054 127.961L35.997 127.957L27.4081 127.967C25.0933 127.97 22.6481 128.065 20.3622 127.706C10.0098 126.081 1.37133 117.382 0.204966 107.152C-0.0595603 104.831 0.00734867 102.474 0.00867719 100.161L0.0164897 91.025L0.0145366 60.4654L0.00867719 34.2457V26.7877C0.00963485 24.6063 -0.0652286 22.3465 0.286021 20.191C2.06078 9.29968 10.8498 1.28453 21.9862 0.166608C23.807 0.0166186 26.2986 0.0765231 28.1718 0.0767644L37.9872 0.0816472L69.286 0.0836003L94.3182 0.0816472ZM91.5243 74.1363C91.0817 74.4226 91.0257 74.3514 90.8768 74.7389C91.6867 76.6365 92.968 79.0073 93.9052 80.8873L99.4354 92.0162C106.408 91.8163 102.744 101.212 98.0643 97.6881C96.2783 96.342 96.7286 94.2445 98.0233 92.6832C97.3011 91.044 89.7661 75.7092 89.3222 75.3951C88.8924 75.3939 89.1094 75.3543 88.6796 75.6539C88.2953 76.2706 88.2986 81.5593 88.2626 82.6139L87.7831 97.2096C87.7446 98.2565 87.4324 101.742 87.9862 102.195C91.8023 105.319 95.2411 107.122 98.1513 111.264C102.674 109.235 107.112 106.783 111.594 104.651C112.361 104.287 113.302 103.825 114.031 103.398C113.595 102.064 113.141 100.745 112.981 99.1266C112.679 96.0638 113.008 92.5756 112.799 89.4986C112.786 89.317 111.902 88.5615 111.676 88.3981C107.256 85.2117 102.775 82.0495 98.3417 78.8844L93.8114 75.6422C93.2251 75.2236 92.1455 74.3621 91.5243 74.1363ZM103.934 59.2311C103.113 59.6232 101.323 60.2658 101.019 60.9977C101.087 61.3591 101.136 61.5831 101.234 61.9371C100.79 62.3539 97.6494 63.2457 96.8339 63.5807C94.3216 64.613 91.9473 65.7742 89.578 67.0875C88.7093 65.3074 88.7897 64.7705 86.6942 65.777C85.8784 66.1685 84.6289 66.644 84.0751 67.3717C84.0332 67.9819 84.6558 68.971 84.9706 69.5494C81.1834 71.6693 76.9371 74.4456 73.5897 77.2027C73.3531 76.7924 73.238 76.4622 72.8163 76.274C72.1688 76.3653 69.5186 77.7146 69.8056 78.4527C70.1228 79.2688 70.7548 80.6056 71.4179 81.2027C71.9704 81.2556 74.3488 80.027 74.494 79.4107C74.5997 78.9582 74.1616 78.2795 73.9345 77.8668C76.7111 75.6999 79.6923 73.5647 82.7753 71.8316C77.479 77.6729 74.6886 85.2029 77.4833 92.8912C76.7614 93.4942 76.2811 94.0179 76.1718 95.0006C76.0974 95.7341 76.3241 96.4678 76.8046 97.0367C78.5947 99.1787 81.745 97.727 81.7479 95.2594C81.7503 93.277 80.0425 92.5068 78.3339 92.5221C77.9627 91.1913 77.7119 90.0562 77.5341 88.6832C77.0355 83.4171 78.661 78.1692 82.0634 74.0611C82.6305 73.3851 84.7626 71.1221 85.5546 70.9772C85.9206 71.3742 85.9872 71.5744 86.4579 71.7272C87.2088 71.6108 87.8424 71.1604 88.5223 70.8395C89.9243 70.1776 90.5608 70.0205 90.5634 68.4127C90.9297 68.1083 91.9639 67.8789 92.4472 67.7848C99.5 66.3997 106.431 69.1376 110.962 74.4859C111.156 74.7152 111.349 74.9477 111.54 75.1793C110.477 76.4667 109.97 78.0951 111.456 79.3131C112.085 79.8374 112.909 80.0842 113.73 79.9938C117.405 79.5528 116.841 73.8459 112.301 74.7242C108.991 70.3857 104.363 67.4115 98.8378 66.6119C96.4732 66.2545 94.0587 66.3577 91.7362 66.9186C95.1844 65.0292 97.8856 63.9144 101.679 62.7027C101.937 63.1866 102.149 63.7066 102.572 64.0357C103.312 64.0554 105.061 63.1394 105.6 62.6852C106.128 62.2423 104.756 59.7149 104.308 59.357C104.247 59.309 104.013 59.252 103.934 59.2311ZM32.0936 19.4156C26.8966 19.4159 21.2526 19.3079 16.0829 19.4361C13.5816 19.881 12.2806 21.2513 12.2577 23.7613C12.2077 29.2475 12.2269 34.7363 12.2274 40.2232L12.2225 71.7545L12.2235 85.3629C12.2229 86.382 12.2502 87.444 12.2235 88.5113C12.1616 90.9908 12.0965 93.1126 14.619 94.5328C15.4093 94.9782 16.1579 95.0899 17.0516 95.1275C19.4497 95.1675 21.8721 95.1479 24.2714 95.1432L37.3163 95.1393H63.912C66.2838 95.1393 69.859 95.1932 72.3173 95.0768C72.479 95.0695 72.536 94.9498 72.6522 94.816C72.7303 94.3873 72.7497 94.398 72.5975 93.9664C71.8345 93.3246 65.6167 93.6526 64.2059 93.6481L46.7108 93.6324C44.0721 93.6324 40.3037 93.7446 37.7479 93.6012L37.746 49.3824L37.7509 31.1647L89.997 31.1588L89.9921 51.6481L90.0048 58.1627C90.0058 59.1393 89.7619 61.254 90.3456 61.9713C90.8955 62.169 91.4523 61.986 91.4598 61.401C91.5091 57.1868 91.4838 52.7256 91.4862 48.5279L91.4804 32.3766C91.4876 29.4462 91.5308 26.477 91.4491 23.5445C91.3938 21.5625 89.9185 19.5838 87.7645 19.4772C84.9843 19.3401 82.1044 19.4144 79.2977 19.4176H62.7372L32.0936 19.4156ZM36.8632 31.1549C36.8984 33.7897 36.8922 36.4853 36.8661 39.1207C36.6866 57.2578 37.1295 75.484 36.8495 93.6109L23.37 93.6354C21.2161 93.6366 18.9118 93.7334 16.8134 93.5524C13.2077 93.2404 13.6305 89.7572 13.6366 87.193C13.6394 86.0222 13.6377 84.8563 13.6386 83.7008L13.6473 70.4371C13.6485 57.4514 13.4822 44.1179 13.6591 31.1559L36.8632 31.1549ZM66.2147 78.108C58.9444 78.0763 51.2206 77.9671 43.9794 78.1012C41.8208 78.7492 41.9757 80.535 42.0331 82.4596C42.0865 84.2504 41.59 87.4575 43.0653 88.6461C44.4299 89.0763 51.4457 88.9193 53.3085 88.9205L71.1561 88.9264L72.9794 88.8746C72.6526 87.5073 72.1619 86.2533 71.787 84.9107C71.2568 84.8777 68.4537 84.3858 68.0321 84.0543C67.6117 83.724 67.9801 82.9471 67.8446 82.5777C67.1022 80.5655 66.3758 80.3942 66.2147 78.108ZM46.6356 81.5436C47.7713 81.1758 48.9968 81.7765 49.3768 82.8863C49.7565 83.9961 49.1479 85.1976 48.0155 85.5738C46.8763 85.9524 45.6392 85.3525 45.2567 84.2369C44.8749 83.1201 45.4934 81.9127 46.6356 81.5436ZM53.0067 82.819C54.3328 82.8177 64.1921 82.5595 64.8251 82.9811C65.0604 83.1397 65.2039 83.3193 65.2147 83.6061C65.2265 83.9408 64.9962 84.1682 64.7909 84.402C63.1701 84.4419 53.6753 84.5993 52.786 84.235C52.2293 83.6178 52.5137 83.2939 53.0067 82.819ZM28.4354 72.1217C27.5044 71.384 20.2457 71.721 18.7001 71.734C18.3568 72.037 18.2322 72.1001 18.0839 72.5338C18.1588 73.283 18.8971 73.5656 19.5761 73.5553C22.2525 73.5142 25.4157 73.7038 28.0556 73.5357C28.4504 73.2326 28.482 73.2232 28.6981 72.7945C28.6877 72.488 28.7046 72.3366 28.4354 72.1217ZM43.9979 67.3082C43.7675 68.0042 42.7882 71.9089 44.1571 72.0484C45.1036 72.1437 47.0203 72.0955 47.8856 71.6852L47.9208 71.4908L47.8114 71.3971C46.9432 71.0632 46.4339 70.8965 45.5341 70.6578C45.848 70.3675 46.276 70.0425 46.4149 69.6617L46.3065 69.4322C45.6853 69.4652 45.6603 69.993 45.0487 69.9967C44.5952 69.3346 44.7605 67.8537 43.9979 67.3082ZM62.4716 71.5543C61.964 71.0409 59.8021 71.2643 59.038 71.2867L58.9589 71.609C59.4509 72.1214 61.723 71.8906 62.4452 71.8307L62.4716 71.5543ZM67.5253 71.5494C66.9638 71.0878 64.9979 71.2747 64.1747 71.2936L64.0878 71.6061C64.5395 72.0904 66.8012 71.8674 67.5106 71.8414L67.5253 71.5494ZM71.1141 71.2438C70.4427 71.2532 69.7708 71.2667 69.1005 71.2867L69.038 71.6061C69.5377 72.0881 71.8143 71.8613 72.5536 71.8365L72.5741 71.5484C72.1873 71.1726 71.6906 71.2414 71.1141 71.2438ZM77.2499 71.4576C76.6684 71.1155 74.815 71.262 74.035 71.2867C74.0446 71.4935 73.9998 71.6641 74.1307 71.7311C74.7474 72.0529 76.6457 71.8512 77.3368 71.8111L77.2499 71.4576ZM57.4354 71.5572C56.8791 71.107 55.0193 71.2829 54.2108 71.2994L54.1073 71.61C54.5471 72.0716 56.7309 71.8618 57.4179 71.8395L57.4354 71.5572ZM52.6259 71.4938C52.0985 71.1 50.2835 71.2777 49.4891 71.2906L49.3895 71.6061C49.7611 71.9576 50.2798 71.887 50.829 71.8775L52.6171 71.8482L52.6259 71.4938ZM49.9218 65.9361C49.3781 66.3839 47.6955 67.662 47.5595 68.2291L47.7557 68.566C48.2647 68.1435 50.1707 66.6853 50.2606 66.1422C50.0957 65.9191 50.2061 65.9902 49.9218 65.9361ZM76.5848 65.8024C76.5788 66.3032 76.6337 66.3754 77.0878 66.8033C77.5828 67.2702 78.4428 68.129 79.0927 68.2584C79.0807 67.7571 79.0911 67.7714 78.6132 67.3307C78.154 66.9096 77.141 65.9811 76.5848 65.8024ZM43.9559 63.1686C43.7721 63.8411 43.4827 66.002 44.2792 66.2936C44.4029 65.5732 44.6779 63.5532 43.9559 63.1686ZM28.4257 64.5973C27.8178 64.0556 19.8281 64.2709 18.5897 64.3238C18.3396 64.5764 18.0974 64.8217 18.0692 65.194C18.0493 65.4616 18.1486 65.6652 18.3515 65.8414C18.9706 66.3747 26.6809 66.1076 28.1005 66.0875C28.3486 65.8514 28.6095 65.6228 28.6454 65.2623C28.6708 65.0052 28.6257 64.777 28.4257 64.5973ZM53.6132 62.775C53.0869 63.1912 51.3489 64.4535 51.2792 65.0416C51.3764 65.1497 51.4125 65.21 51.5302 65.2887C52.0981 64.7935 53.6514 63.5942 53.7909 62.9781L53.6132 62.775ZM72.9911 62.7613C73.1461 63.4952 74.8842 65.0139 75.6102 65.1979C75.537 64.4345 73.7383 62.849 72.9911 62.7613ZM57.3856 59.4664C56.7928 59.8905 54.9237 61.3068 54.7499 61.942L54.9179 62.2828C55.5485 61.7457 57.2159 60.419 57.5145 59.777C57.4395 59.5138 57.499 59.608 57.3856 59.4664ZM44.0184 59.3424C43.7458 59.9232 43.5009 61.8762 44.2626 62.1793C44.4187 61.4028 44.4233 60.4056 44.3124 59.6197C44.1566 59.4223 44.2249 59.4658 44.0184 59.3424ZM69.2597 59.3248C69.2548 59.8194 69.2682 59.8475 69.7343 60.2857C70.2174 60.7397 71.4108 61.9125 71.996 62.065C72.056 61.7504 72.1251 61.7828 71.9559 61.5719C71.5029 61.0039 69.8726 59.5124 69.2597 59.3248ZM60.5604 56.6373C60.0493 57.0492 58.6564 58.0422 58.5702 58.6051C58.6533 58.6975 58.6911 58.7626 58.7919 58.819C59.3289 58.3851 60.6486 57.4308 60.8182 56.8492C60.6672 56.6393 60.7624 56.6964 60.5604 56.6373ZM66.0477 56.8609C66.3075 57.4623 67.6622 58.5412 68.287 58.7731C68.3074 58.31 68.3191 58.3473 67.9071 57.9117C67.5619 57.5472 66.6409 56.7935 66.2001 56.5563L66.0477 56.8609ZM31.8114 58.6344C34.5009 56.2211 28.2414 56.7964 27.2138 56.7975L18.6972 56.8082C18.1573 57.2795 17.8599 57.6524 18.2772 58.3277C18.8003 58.6693 19.5001 58.6817 20.1171 58.6656C23.9672 58.5651 27.9781 58.8001 31.8114 58.6344ZM82.6288 55.1647C82.5014 55.8112 82.2233 58.3052 82.9081 58.6217C83.1063 57.9484 83.3627 55.5354 82.6288 55.1647ZM43.8954 55.1861C43.7772 55.8841 43.6239 57.6254 43.9022 58.3082C43.9557 58.4389 44.1171 58.4648 44.2811 58.5338C44.3995 57.8914 44.5592 55.8105 44.2128 55.3072L43.8954 55.1861ZM63.4218 53.9908C62.7107 53.4648 62.3522 53.1913 61.5702 52.7897C62.0892 53.4585 62.3709 53.7814 62.9716 54.3805C62.598 54.7346 62.0497 55.1831 61.8417 55.6246L61.9384 55.8082L62.1952 55.86L63.4266 54.8121C63.852 55.1778 64.1995 55.5672 64.7294 55.6891L64.8876 55.5719C64.7564 55.0803 64.2933 54.7696 63.8886 54.4166C64.2793 54.0662 65.1364 53.4116 65.1845 52.9498C65.036 52.8241 65.0633 52.8109 64.8944 52.7584L63.4218 53.9908ZM43.9931 51.0934C43.7526 51.6879 43.5436 53.8449 44.2421 54.1676C44.4069 53.5314 44.6483 51.4555 43.9931 51.0934ZM82.5653 51.1568C82.5437 51.7449 82.3872 53.6215 82.7294 53.9947L83.0087 54.066C83.0424 53.4138 83.2272 51.7057 82.8778 51.2516L82.5653 51.1568ZM58.3007 49.8102C58.4066 50.5265 60.2242 52.1551 60.9335 52.2467C60.7851 51.5281 59.0096 49.9313 58.3007 49.8102ZM68.1405 49.9586C67.5554 50.4186 66.3218 51.2489 66.164 51.8902C66.2264 51.9469 66.3609 52.0768 66.4247 52.1168C66.95 51.6679 68.2558 50.7109 68.3026 50.1324L68.1405 49.9586ZM31.4725 35.2652C30.0933 34.7956 21.2166 34.8746 19.3554 35.0592C18.4738 35.4395 17.7142 35.9067 17.3602 36.8326C16.922 37.9846 16.8994 48.3975 17.4013 49.4371C17.7005 50.0554 18.2871 50.6598 18.9667 50.8629C20.3733 51.2819 29.4226 51.2498 31.0878 51.0231C31.9598 50.6992 32.7379 50.24 33.1054 49.3551C33.5602 48.2583 33.5198 39.6688 33.3417 38.1549C33.2658 37.5103 33.1169 36.8853 32.8309 36.2975C32.5596 35.7401 32.0513 35.4628 31.4725 35.2652ZM43.9677 46.9537C43.7643 47.604 43.5302 49.7722 44.1893 50.1734C44.4761 49.6413 44.6496 47.3067 43.9677 46.9537ZM82.7098 46.985C82.4612 47.5602 82.2671 49.7919 82.9218 50.15C83.0875 49.5539 83.3242 47.3067 82.7098 46.985ZM71.8427 46.6852C71.2456 47.1433 69.5472 48.3878 69.3495 49.0309C69.3927 49.1122 69.4814 49.293 69.5331 49.359C70.0754 48.9092 71.8903 47.524 71.9999 46.9732L71.8427 46.6852ZM54.6415 46.5377C54.6153 46.9052 54.5733 47.0014 54.9511 47.3473C55.5902 47.9322 56.6146 49.0634 57.4598 49.191C57.2963 48.4632 55.3417 46.7229 54.6415 46.5377ZM75.3495 43.6061C74.8196 44.0391 73.1374 45.2946 73.0116 45.8522C73.0897 45.9569 73.1477 46.052 73.245 46.1344C73.7741 45.6923 75.4384 44.4209 75.5477 43.86L75.3495 43.6061ZM51.2235 43.5748C51.225 44.0423 51.2227 44.0766 51.6708 44.4869C52.1683 44.9424 53.1042 45.8513 53.7294 46.027C53.6693 45.2437 51.9541 43.805 51.2235 43.5748ZM43.9481 42.4693C43.7531 43.1416 43.5699 45.5026 44.1766 45.9654C44.5017 45.343 44.4244 43.6734 44.3475 42.9156C44.3187 42.6343 44.1504 42.5844 43.9481 42.4693ZM82.7001 42.5221C82.4502 43.1059 82.2374 45.6153 82.9589 45.9508C83.0623 45.2624 83.3292 42.8847 82.7001 42.5221ZM78.953 40.4313C78.3331 40.9522 76.75 42.125 76.58 42.7955C76.6172 42.8363 76.7631 43.0011 76.8016 43.027C77.4041 42.5341 78.9479 41.3888 79.1581 40.7408C79.0682 40.5715 79.0851 40.5592 78.953 40.4313ZM47.5634 40.4352C47.7254 41.219 49.5774 43.0696 50.3651 42.8121C50.0455 42.19 48.262 40.6124 47.5634 40.4352ZM43.8602 36.8414C43.2672 37.604 43.3658 40.5019 44.0048 41.1813C44.666 41.0298 44.8596 39.2856 44.9403 38.6832C45.3084 38.9572 45.6922 39.2288 46.0311 39.5348L46.3749 39.5943L46.4989 39.4693C46.3939 39.0461 45.9009 38.5975 45.578 38.2711C46.6303 38.0274 47.3523 37.7263 48.3485 37.3356C46.4246 36.7601 45.8931 36.806 43.8602 36.8414ZM83.1415 37.0309C82.5936 36.6747 81.1167 36.8326 80.4257 36.859C79.9476 36.9411 79.5719 36.9593 79.1708 37.2184L79.1405 37.4088C79.6535 37.898 80.6474 38.0525 81.3407 38.2262C80.9876 38.5675 80.404 39.0371 80.2499 39.444L80.3905 39.6481C81.0102 39.6158 81.312 38.6633 81.9511 38.9713L82.1415 39.3043C82.1427 40.0707 82.3288 40.4153 82.6171 41.1031L82.785 41.1637C83.454 40.464 83.6376 37.8714 83.1415 37.0309ZM57.329 37.1656C56.6791 36.912 54.8085 37.0335 54.0946 37.0719L54.121 37.4352C54.599 37.8194 56.7759 37.63 57.4794 37.5934C57.4454 37.3692 57.4813 37.2251 57.329 37.1656ZM62.2196 37.1598C61.5661 36.8929 59.6399 37.0294 58.9218 37.0729L58.9725 37.441C59.4806 37.8173 61.6415 37.6263 62.3925 37.5963C62.3506 37.3552 62.3899 37.2292 62.2196 37.1598ZM67.5077 37.232C67.0366 36.8616 64.7567 37.0421 64.0184 37.0631L63.9852 37.3883C64.4911 37.8312 66.7305 37.6243 67.5018 37.6041L67.5077 37.232ZM52.5409 37.1559C51.8566 36.8944 50.1917 37.043 49.4237 37.0768L49.4364 37.4332C49.8926 37.8006 52.024 37.6352 52.7138 37.6012C52.6704 37.3608 52.7063 37.2192 52.5409 37.1559ZM77.4999 37.277C76.9664 36.8483 74.9238 37.0468 74.1161 37.067L74.122 37.4078C74.6508 37.8071 76.6986 37.6263 77.4774 37.6109L77.4999 37.277ZM72.4598 37.1607C71.7473 36.8935 69.8054 37.0441 69.0253 37.0631C69.0637 37.2694 69.0442 37.4598 69.1845 37.5113C69.9102 37.7759 71.8145 37.6189 72.6161 37.5943C72.5802 37.3875 72.6039 37.2146 72.4598 37.1607ZM18.5975 23.607C19.686 23.3504 20.7808 24.0073 21.0409 25.0729C21.3005 26.1382 20.627 27.2081 19.538 27.4606C18.4517 27.7121 17.362 27.055 17.1024 25.9928C16.8433 24.9302 17.5122 23.863 18.5975 23.607ZM25.1405 23.5973C26.2186 23.3882 27.2699 24.0621 27.5038 25.1129C27.7373 26.1638 27.0673 27.2054 25.9979 27.4537C25.2885 27.6182 24.5426 27.3945 24.0487 26.8697C23.5549 26.3447 23.3891 25.5988 23.6151 24.9205C23.8415 24.242 24.4251 23.7362 25.1405 23.5973ZM31.5311 23.6031C32.6056 23.3549 33.685 23.997 33.955 25.0445C34.2246 26.092 33.5856 27.1573 32.5194 27.4371C31.8153 27.6219 31.0641 27.4209 30.5536 26.9117C30.0433 26.4024 29.8521 25.6633 30.0546 24.9781C30.2571 24.2928 30.8218 23.7672 31.5311 23.6031ZM72.6044 24.5875C76.8132 24.3268 81.5606 24.6957 85.8163 24.5836C87.0248 24.5519 87.1424 25.7175 86.2557 26.5074C82.0194 26.7094 77.4663 26.4427 73.2011 26.5211C71.8607 26.5454 71.6844 25.4637 72.6044 24.5875Z" fill="#FEB600"/>
<path d="M105.004 45.0657C105.834 45.0616 107.991 44.8836 108.528 45.3293C108.625 45.7432 108.63 45.5333 108.437 45.9758C107.608 45.9889 105.449 46.1908 104.895 45.761C104.795 45.3157 104.789 45.5428 105.004 45.0657ZM101.069 45.0745C101.665 45.04 102.061 44.9532 102.514 45.3059C102.571 45.6699 102.541 45.6537 102.362 45.9885C101.861 45.9998 101.332 46.0757 100.945 45.7952C100.841 45.3528 100.848 45.5851 101.069 45.0745ZM107.311 40.2112C108.363 40.1992 113.754 40.022 114.367 40.3508C114.52 40.7125 114.461 40.6276 114.359 41.094C113.452 41.1333 107.914 41.2615 107.37 40.9905C107.17 40.6145 107.236 40.7222 107.311 40.2112ZM100.921 40.2092C102 40.2189 103.241 40.0086 104.203 40.3225C104.481 40.6592 104.398 40.5309 104.371 41.0901C103.342 41.1228 102.067 41.261 101.118 40.9553C100.847 40.6471 100.936 40.729 100.921 40.2092ZM101.037 35.1809C102.039 35.1662 103.88 34.9204 104.683 35.3391C104.879 35.7341 104.825 35.5915 104.745 36.0998C103.783 36.0921 101.767 36.3281 101.043 35.8987C100.88 35.4845 100.927 35.706 101.037 35.1809ZM107.12 35.1487C108.117 35.1419 110.913 34.9675 111.613 35.3635C111.82 35.7658 111.754 35.5441 111.673 36.0901C110.642 36.0778 107.791 36.3449 107.107 35.8879C106.946 35.521 106.999 35.6289 107.12 35.1487Z" fill="#AB7B00"/>
<path d="M22.5499 113.662C22.8041 113.436 23.1973 113.449 23.4356 113.692C23.674 113.935 23.6705 114.321 23.4268 114.56C23.2642 114.719 23.0259 114.779 22.8047 114.718C22.5836 114.656 22.4134 114.483 22.3604 114.263C22.3076 114.044 22.3803 113.815 22.5499 113.662ZM27.4366 113.656C27.6947 113.436 28.0848 113.46 28.3125 113.709C28.5401 113.96 28.5206 114.342 28.2686 114.568C28.1026 114.717 27.8676 114.766 27.6534 114.698C27.4392 114.63 27.2784 114.455 27.2334 114.239C27.1886 114.022 27.2664 113.8 27.4366 113.656ZM32.2618 113.66C32.5154 113.436 32.906 113.452 33.1387 113.698C33.3714 113.942 33.3599 114.325 33.1124 114.556C32.9494 114.709 32.7146 114.763 32.4991 114.699C32.2838 114.635 32.1197 114.463 32.0704 114.248C32.0211 114.033 32.0948 113.809 32.2618 113.66ZM17.7686 113.654C17.9373 113.509 18.1731 113.465 18.3848 113.537C18.5968 113.61 18.752 113.791 18.7901 114.007C18.8279 114.224 18.7428 114.444 18.5684 114.581C18.3059 114.789 17.9218 114.753 17.7042 114.5C17.4867 114.249 17.5151 113.872 17.7686 113.654ZM27.3897 108.949C27.5692 108.791 27.8246 108.744 28.0508 108.827C28.2769 108.91 28.4373 109.11 28.4659 109.345C28.4945 109.58 28.3863 109.811 28.1866 109.944C27.9053 110.13 27.5244 110.073 27.3145 109.811C27.1045 109.549 27.137 109.172 27.3897 108.949ZM22.5167 108.96C22.7711 108.726 23.1708 108.736 23.4131 108.983C23.6554 109.228 23.6505 109.619 23.4024 109.86C23.2389 110.017 23.0015 110.077 22.7803 110.016C22.5591 109.955 22.3885 109.782 22.334 109.564C22.2795 109.345 22.3491 109.114 22.5167 108.96ZM32.2784 108.968C32.53 108.746 32.9168 108.76 33.1504 109C33.384 109.24 33.38 109.619 33.1417 109.854C32.9814 110.012 32.7456 110.072 32.5264 110.011C32.3076 109.951 32.1396 109.778 32.0879 109.561C32.0365 109.345 32.1093 109.116 32.2784 108.968ZM17.751 108.947C17.9246 108.797 18.167 108.751 18.3848 108.827C18.6028 108.903 18.7619 109.088 18.7999 109.312C18.8378 109.535 18.7485 109.761 18.5674 109.901C18.2971 110.111 17.9053 110.072 17.6836 109.814C17.4621 109.554 17.492 109.17 17.751 108.947ZM22.5127 104.252C22.7674 104.014 23.1708 104.022 23.4161 104.269C23.6613 104.516 23.6572 104.911 23.4063 105.154C23.1528 105.398 22.744 105.393 22.4961 105.143C22.2482 104.894 22.2553 104.492 22.5127 104.252ZM27.3809 104.25C27.6379 104.015 28.0417 104.028 28.2823 104.28C28.5228 104.532 28.5085 104.927 28.25 105.162C27.9927 105.395 27.5902 105.382 27.3506 105.131C27.1109 104.879 27.1249 104.485 27.3809 104.25ZM17.7549 104.246C17.9267 104.099 18.1667 104.055 18.3819 104.129C18.5972 104.204 18.7543 104.387 18.793 104.607C18.8315 104.828 18.7457 105.051 18.5684 105.191C18.3013 105.402 17.91 105.366 17.6885 105.11C17.4672 104.852 17.4966 104.469 17.7549 104.246ZM32.2852 104.249C32.5403 104.026 32.9325 104.043 33.1651 104.29C33.3975 104.536 33.3846 104.92 33.1358 105.151C32.9718 105.302 32.7366 105.357 32.5206 105.292C32.3047 105.228 32.1406 105.053 32.0918 104.838C32.0432 104.622 32.1174 104.397 32.2852 104.249Z" fill="#AB7B00"/>
</svg>
