<svg width="24" height="24" viewBox="0 0 24 24" fill="none" xmlns="http://www.w3.org/2000/svg">
<path d="M2.25 16.31L4.51363 14.9625C4.95028 15.7244 5.34782 16.3688 6.30077 16.3688C7.2139 16.3688 7.78993 16.019 7.78993 14.6497V5.35113H10.5699V14.6882C10.5699 17.5204 8.88228 18.8099 6.42024 18.8099C5.54985 18.8563 4.68559 18.6422 3.94131 18.1958C3.19703 17.7494 2.60691 17.0924 2.25 16.31ZM12.0804 16.0162L14.344 14.7267C14.5957 15.229 14.9863 15.6513 15.471 15.945C15.9557 16.2387 16.5148 16.3919 17.0841 16.387C18.2362 16.387 18.9701 15.8203 18.9701 15.0387C18.9701 14.1012 18.2155 13.7688 16.9447 13.2196L16.252 12.9299C14.2466 12.0903 12.916 11.0352 12.916 8.80819C12.916 6.75677 14.5047 5.19441 16.9867 5.19441C17.7909 5.13706 18.5944 5.31396 19.2971 5.70304C19.9997 6.09212 20.5704 6.67615 20.9379 7.38227L18.7731 8.75012C18.631 8.3996 18.384 8.09983 18.0649 7.89054C17.7457 7.68125 17.3694 7.57232 16.9859 7.57817C16.8187 7.56153 16.6499 7.57937 16.4901 7.63054C16.3303 7.68172 16.1831 7.7651 16.0579 7.87538C15.9327 7.98565 15.8322 8.12039 15.7629 8.27101C15.6936 8.42162 15.657 8.5848 15.6554 8.75012C15.6554 9.57083 16.1717 9.90247 17.3621 10.4104L18.0569 10.7036C20.4201 11.6999 21.75 12.7158 21.75 15.0009C21.75 17.4624 19.7844 18.8106 17.1438 18.8106C14.5623 18.8106 12.8946 17.5988 12.0804 16.0162Z" fill="#FFB621"/>
</svg>
