<svg width="24" height="24" viewBox="0 0 24 24" fill="none" xmlns="http://www.w3.org/2000/svg">
<g clip-path="url(#clip0_5_57)">
<path d="M12.001 4.80035C8.80091 4.80035 6.8016 6.39973 6.00098 9.59979C7.2006 8.00023 8.60104 7.40042 10.2006 7.80035C11.1139 8.02798 11.7666 8.69023 12.4894 9.4241C13.6658 10.6179 15.0274 12 18.001 12C21.2009 12 23.2004 10.4004 24.001 7.1996C22.801 8.79998 21.401 9.4001 19.8012 8.99998C18.888 8.77217 18.2361 8.1101 17.5124 7.37623C16.3367 6.18242 14.9755 4.80035 12.001 4.80035ZM6.00098 12C2.8011 12 0.801602 13.5995 0.000976562 16.8004C1.20085 15.2 2.60073 14.5999 4.2006 15C5.11391 15.2278 5.7666 15.8899 6.48941 16.6237C7.66579 17.8175 9.02741 19.1996 12.001 19.1996C15.2009 19.1996 17.2004 17.6002 18.001 14.4002C16.801 15.9998 15.401 16.5996 13.8012 16.1996C12.888 15.972 12.2361 15.3097 11.5124 14.5759C10.3367 13.382 8.97548 12 6.00098 12Z" fill="#38BDF8"/>
</g>
<defs>
<clipPath id="clip0_5_57">
<rect width="24" height="24" fill="white"/>
</clipPath>
</defs>
</svg>
