<svg width="279" height="29" viewBox="0 0 279 29" fill="none" xmlns="http://www.w3.org/2000/svg">
<path d="M115.559 25.3892C116.363 24.1568 117.242 21.558 117.829 20.1006L121.558 10.8422C122.104 9.4561 123.97 5.63904 124.08 4.00649C124.09 3.85891 123.729 2.8051 123.747 2.09092C123.846 1.94665 123.879 1.83496 124.019 1.82654C126.508 1.67812 129.409 1.76593 131.893 1.77214C132.116 3.55891 132.442 2.78274 132.678 3.57313C132.387 4.22463 131.929 5.02786 132.245 5.73955C134.771 11.4364 137.04 17.2396 139.495 22.968C139.846 23.789 140.131 24.6581 140.57 25.4347C142.421 26.3927 141.564 26.6757 142.298 27.2137L142.425 27.1172C142.465 26.7245 142.417 26.2638 142.748 25.9955C143.04 25.7581 143.414 25.7764 143.492 25.3431C143.706 24.1426 143.663 7.99765 143.301 7.4987C143.222 7.39046 142.997 7.29134 142.88 7.21292C142.338 6.84609 142.482 6.14931 142.494 5.56435C143.609 5.6037 149.151 5.45335 149.612 5.82694C149.677 7.95678 150.121 6.598 150.361 7.38894C150.085 7.77496 149.797 7.90446 149.392 8.1415C149.071 12.5678 149.355 18.6401 149.276 23.1985C151.968 23.2513 154.661 23.2696 157.354 23.2535C158.441 23.2541 159.527 23.286 160.611 23.2685C161.678 23.2511 162.422 21.8279 163.358 22.177C163.659 22.5995 163.488 23.0382 163.554 23.5372C163.616 23.9959 163.91 23.4226 164.412 23.8608C164.639 24.8037 164.457 27.8181 164.514 29.0002C164.06 28.9282 162.275 28.7571 162.067 28.6259L161.868 28.2248C160.904 28.0467 158.107 28.117 156.97 28.1191C153.243 28.126 149.501 28.1327 145.772 28.1662C144.805 28.1747 144.396 27.6513 143.514 27.6048C142.989 27.5772 142.366 28.003 141.929 28.0738C141.149 28.1997 140.058 28.1837 139.253 28.1732C138.603 28.1646 137.281 28.1902 136.718 28.0982C135.417 27.8863 135.629 27.6001 134.183 27.6584L134.395 27.0074C135.002 27.1153 136.007 27.2775 136.432 26.7912C136.714 25.6398 135.105 22.2586 134.157 21.5408L134.014 21.6441C134.155 22.8604 135.166 24.3273 135.24 25.7757L134.728 25.5147C134.279 24.0735 133.828 22.9939 133.098 21.6652C129.896 21.6632 126.523 21.7159 123.336 21.6567C122.851 22.8905 121.391 25.6452 121.735 26.8772C121.837 27.2438 122.2 27.325 122.211 27.9232C121.137 28.7735 109.839 27.9473 115.559 25.3892ZM118.274 24.7232C119.647 21.7609 120.829 18.4658 122.047 15.4121C123.387 12.0519 125.08 8.18762 126.219 4.78998C125.909 4.31078 125.496 3.71298 125.215 3.23171C126.144 3.20078 130.882 3.31854 131.267 2.9179L131.385 2.54748L131.236 2.33211C129.908 2.19529 126.984 2.27123 125.535 2.27095C125.175 2.28075 124.462 2.25079 124.199 2.43207C124.239 3.08177 124.946 3.95099 124.747 4.47134C122.252 10.9931 119.571 17.474 116.944 23.9479C116.698 24.5532 116.294 25.1792 115.909 25.6964C115.575 26.1325 114.885 26.3482 114.721 26.807C115.11 27.2855 116.007 27.1292 116.596 27.098C117.615 26.2961 117.775 25.9176 118.274 24.7232ZM143.262 27.0448C143.923 27.0342 144.722 27.0443 145.369 27.008C145.474 25.6369 145.472 24.2077 145.464 22.8299C145.437 17.9396 145.547 13.0133 145.418 8.12618C145 7.94781 144.593 7.83474 144.36 7.44762L144.433 7.25075C145.552 6.8062 148.059 7.40855 148.914 6.64094L149.013 6.33555C148.974 6.29289 148.857 6.15856 148.814 6.13992C146.803 6.21599 144.224 6.07807 142.372 6.21944C142.693 6.40624 144.013 7.11738 143.991 7.48048C143.832 10.1766 144.64 24.155 143.919 25.9474C143.414 26.4991 143.259 26.1948 143.021 26.7818C143.135 27.0047 143.071 26.9588 143.262 27.0448ZM128.829 7.66824C128.549 8.26728 128.422 8.53028 128.657 9.18661C129.602 11.8285 130.877 14.3917 131.968 16.9814C130.626 16.9783 125.834 16.7786 124.975 17.2965C124.782 17.578 124.801 17.4633 124.84 17.7692C125.126 17.9612 125.52 17.9046 125.875 17.8955C128.036 17.8952 131.066 17.9895 133.156 17.8628C132.651 16.6281 129.347 8.26562 128.829 7.66824ZM149.418 24.8335C153.168 24.8416 159.429 25.0452 162.979 24.7895C163.001 24.2001 163.079 23.2713 162.93 22.7317L162.675 22.5578C162.367 23.0854 162.157 23.6109 161.597 23.723C159.879 24.0672 150.413 23.422 149.313 23.9653C149.242 24.3664 149.278 24.4452 149.418 24.8335ZM131.077 16.2965C130.737 15.5106 128.505 10.1043 128.085 9.61667C127.219 11.8583 126.294 14.0761 125.312 16.2678L128.465 16.2764L131.077 16.2965Z" fill="white"/>
<path d="M229.828 5.66679C236.637 6.294 246.629 3.76696 251.685 9.60314C255.522 14.0306 255.891 21.8054 251.166 25.7824C245.612 29.0341 239.253 28.0908 233.015 28.1305C232.986 28.1307 229.924 27.6537 229.864 27.6341C229.658 27.3457 229.658 27.216 229.607 26.8587C229.84 26.2161 230.08 26.1528 230.641 25.6811C230.751 25.351 230.777 25.0779 230.774 24.7299C230.726 19.4574 230.78 14.1834 230.756 8.91063C230.751 7.65719 230.641 7.76405 229.805 6.89456C229.656 6.4986 229.763 6.08898 229.828 5.66679ZM236.587 23.3955C240.297 23.5085 243.77 23.8902 246.872 21.5589C249.097 19.2692 249.273 14.3738 247.026 12.1046C244.679 9.73457 239.708 10.5516 236.573 10.4639C236.576 14.754 236.539 19.1113 236.587 23.3955ZM231.297 7.37942C231.434 11.1802 231.349 15.2216 231.368 19.04C231.377 20.677 231.45 24.5567 231.257 26.0275C230.893 26.2441 230.463 26.4274 230.328 26.8157C230.642 27.2917 232.106 27.0948 232.675 27.0698C232.714 20.9995 232.778 14.5967 232.678 8.53649C232.276 7.76888 231.633 7.78076 230.838 7.22976C233.204 7.16915 235.569 7.14555 237.935 7.15908C242.742 7.1472 245.611 6.87661 250.095 8.7607C246.085 5.86795 241.42 6.25562 236.704 6.22455C234.732 6.21158 232.264 6.1732 230.315 6.26611C230.143 6.88103 230.786 7.06685 231.297 7.37942ZM237.26 24.9818C240.918 25.0027 245.792 25.6086 248.558 22.8372C250.986 20.4042 251.187 15.0787 248.652 12.6283C248.39 12.3719 247.992 11.9417 247.643 11.8151C249.112 14.2306 249.596 16.2068 248.972 18.8292C247.598 24.5935 241.473 23.9551 237.008 24.1339C236.612 24.1499 236.516 24.3755 236.37 24.6969L236.422 24.4687C236.622 24.9818 236.663 25.0241 237.26 24.9818Z" fill="white"/>
<path d="M174.038 5.64893C174.022 6.85239 173.958 6.63025 174.691 7.4749C174.635 7.80914 174.037 8.23616 173.749 8.48038C174.099 9.41877 175.112 11.1731 175.624 12.1314C176.693 14.0944 177.714 16.0832 178.688 18.0957C180.051 16.0861 182.821 10.4236 184.133 8.00104C184.162 7.57858 183.61 7.11249 183.33 6.45795C183.348 5.99145 183.292 6.16126 183.578 5.77635C184.012 5.68965 185.812 5.73218 186.347 5.72928C188.445 5.71837 190.493 5.77484 192.594 5.65431C192.596 6.86316 192.527 6.62998 193.266 7.48857C193.107 7.86105 192.741 7.99303 192.345 8.25093C192.125 14.0264 192.39 19.948 192.298 25.735C192.294 25.963 193.138 27.5889 193.292 27.8925L193.15 28.0474C191.652 28.3638 186.056 28.383 185.304 26.8755C185.399 26.1431 185.962 25.946 186.552 25.6926C186.702 23.4508 186.618 20.4471 186.615 18.1473L186.597 14.5687C185.722 15.8765 184.781 18.0337 183.97 19.4717C182.581 21.9331 181.27 24.449 179.934 26.9396C179.73 26.5984 179.62 26.3799 179.312 26.1187C178.932 26.2888 178.788 26.7129 178.534 27.1388C176.066 23.2992 173.678 17.6329 171.226 13.7196C171.322 17.3231 171.093 21.0476 171.21 24.6844C171.27 26.5305 172.28 27.5078 172.257 27.8773C171.571 28.6909 166.583 27.8988 165.488 27.58C164.662 26.5656 166.291 25.7708 166.296 25.5618C166.43 19.7485 166.376 13.8762 166.325 8.05806C166.32 7.4234 165.566 7.32787 165.263 6.65096C165.282 6.1545 165.265 6.31368 165.57 5.8527C166.254 5.68289 168.45 5.72417 169.266 5.72003C170.924 5.73356 172.379 5.73273 174.038 5.64893ZM168.322 22.0129L168.33 13.4018C168.33 11.8686 168.385 9.68951 168.245 8.21338C167.559 7.88507 167.142 7.70449 166.532 7.22294C167.702 7.17572 173.271 7.59694 173.425 6.39831C172.933 6.13144 166.998 6.21511 166.149 6.26094L165.903 6.42095L165.953 6.7476C166.358 6.99859 166.759 7.19215 166.874 7.68406C167.167 8.91858 167.092 25.3246 166.835 25.7294C166.573 26.1408 166.168 26.4342 165.911 26.8551L165.969 27.0216C166.673 27.1523 167.448 27.0923 168.168 27.0647C168.4 25.7458 168.326 23.4344 168.322 22.0129ZM171.219 11.135C171.21 11.411 171.177 12.2428 171.289 12.4655C173.517 16.9447 176.026 21.2836 178.319 25.728C178.568 25.827 178.457 25.8219 178.756 25.7004C178.748 25.2441 178.56 24.7647 178.356 24.3595C176.208 20.0934 173.814 15.9562 171.634 11.7046C171.544 11.5294 171.349 11.2871 171.219 11.135ZM188.3 11.2918C188.064 11.7622 187.498 12.815 187.425 13.3053C186.905 16.7939 187.237 20.5024 187.227 24.0287C187.223 25.3508 187.151 25.9911 186.037 26.7165L186.003 27.0085C186.03 27.0375 186.056 27.0666 186.083 27.0956L188.362 27.0753C188.425 25.5738 188.534 11.6312 188.3 11.2918ZM183.907 6.27213C184.04 6.89491 184.798 7.12685 184.774 7.67798C184.74 8.45222 179.911 17.4382 179.202 18.5467C179.168 18.6004 179.133 18.6535 179.096 18.7059C179.517 19.3915 179.738 19.7543 180.054 20.5139C180.739 18.8972 181.711 17.1606 182.517 15.5766C183.234 14.3944 186.004 9.5422 186.025 8.46851C185.803 7.98075 185.18 7.55539 184.746 7.20789C186.183 7.16716 191.249 7.55055 191.971 6.56743L191.929 6.36062C191.425 6.12758 184.898 6.22422 183.907 6.27213Z" fill="white"/>
<path d="M14.2598 0.0561039C18.9784 -0.351999 21.9461 1.55833 26.1912 2.80721C26.5918 2.92497 26.4002 1.86344 28.2968 2.99304C28.0774 3.29539 27.6028 3.95545 27.6156 4.28665C27.9655 4.11311 28.2014 3.97008 28.5949 3.93198L28.7681 4.13796C28.4757 4.92669 26.2327 9.30994 25.6462 9.58812C25.3856 9.33078 25.4982 8.92254 25.478 8.41076C25.0602 8.49953 25.3479 8.96658 24.6852 9.41969C23.0746 9.30635 23.667 8.62226 23.4297 7.51047C22.3913 6.27636 19.3269 5.27391 17.7498 5.13213C11.5541 4.80424 7.0906 7.2338 6.15014 13.7904C4.81074 23.1284 16.8076 25.1851 22.436 20.3888C24.6387 18.4613 22.5074 18.7167 24.5745 17.0657C25.4299 17.9432 29.7657 23.0942 29.4313 23.9686C28.9618 24.0008 28.8963 23.8639 28.4356 23.6054C27.6809 24.078 27.0199 24.6302 26.2534 25.1009C23.5431 26.7737 20.4641 27.7368 17.2945 27.9029C15.0908 28.0183 13.186 27.6294 11.0587 27.1024C-5.1139 23.0964 -3.12537 0.851049 14.2598 0.0561039ZM21.9284 2.39151C23.1872 2.68447 26.1247 4.32531 27.0357 3.85922C27.3131 3.44863 27.2752 3.6114 27.2962 3.1507L27.0833 3.02865C26.9839 3.0709 26.8843 3.11246 26.7845 3.15346C26.6868 3.19364 26.0612 3.42585 26.033 3.41964C24.7329 3.13206 23.252 2.40918 22.0257 1.88525C16.833 0.353344 12.1778 -0.273031 7.14649 2.52281C4.24286 4.15439 2.08318 6.87043 1.12781 10.0916C0.228604 13.2268 0.515462 17.061 2.12547 19.9181C2.8759 21.2498 4.29889 23.1672 5.61967 23.9511C5.09671 23.2593 4.28768 22.399 3.87143 21.7003C0.555604 16.1342 1.64729 8.37155 6.91099 4.44611C10.9713 1.41806 17.2979 0.863336 21.9284 2.39151ZM9.32325 22.015C10.0276 22.6152 10.3479 22.7724 11.1496 23.1908C14.391 24.6669 17.5005 24.9028 20.8334 23.5539C22.792 22.7612 27.9981 20.2278 24.4173 17.8994C24.3904 17.8819 24.2577 17.8559 24.2248 17.8508C24.0549 19.0206 24.502 19.3684 23.3449 20.4013C19.5681 23.7729 13.7748 24.2635 9.32325 22.015Z" fill="white"/>
<path d="M22.0258 1.88525C23.252 2.40919 24.733 3.13207 26.0331 3.41964C26.0613 3.42586 26.6869 3.19364 26.7846 3.15347C26.8843 3.11246 26.984 3.07091 27.0833 3.02866L27.2962 3.1507C27.2752 3.61141 27.3131 3.44864 27.0358 3.85922C26.1248 4.32531 23.1873 2.68448 21.9285 2.39152L22.0258 1.88525Z" fill="white"/>
<path d="M213.3 4.47312L214.617 4.45752C214.896 4.72425 214.836 5.52113 214.866 6.01786L215.225 6.08938C215.808 6.76269 215.651 10.3279 215.434 11.2085C214.329 11.6681 213.435 10.537 212.347 10.4467C209.061 10.174 204.776 10.6562 201.602 10.3576L201.612 14.3189C203.756 14.4066 206.194 14.36 208.359 14.3664C208.496 13.9527 208.539 13.7855 208.787 13.4141C209.19 13.1044 209.909 13.1746 210.442 13.1718C210.419 14.0108 210.262 14.4813 211.119 14.8622L211.181 14.8893C211.248 15.8463 211.423 19.2859 211.002 20.0012C210.066 19.8486 208.977 19.923 208.485 19.1121C207.018 18.9286 203.253 19.0424 201.602 19.0414L201.632 23.308C205.302 23.3221 208.984 23.3638 212.651 23.294C214.508 23.2588 213.108 22.1684 215.489 22.2476C215.482 23.7841 215.372 23.1739 216.252 23.9716C216.502 25.2335 216.408 27.5975 216.398 28.985C215.756 28.8744 214.692 28.9372 214.052 28.7309C214.057 28.7323 213.823 28.2653 213.738 28.2604C208.854 27.9828 203.213 28.2569 198.35 28.1668C196.234 28.1278 196.84 27.4967 194.984 27.6984C194.838 25.543 195.836 26.1342 195.855 25.4994C196.032 19.6542 195.878 13.7562 195.904 7.90582C195.905 7.49827 195.131 7.29367 194.838 6.79031C194.772 6.34727 194.867 6.22247 195.078 5.83894C195.692 5.64455 198.075 5.71441 198.827 5.71455L207.371 5.72476C208.82 5.73098 211.151 5.81588 212.481 5.64773C212.912 5.35201 212.935 5.01542 213.3 4.47312ZM194.849 6.3557C195.161 6.53531 196.408 7.17411 196.426 7.56385C196.698 13.4478 196.51 19.3999 196.531 25.2985C196.533 26.2891 195.653 26.1769 195.443 26.9236C195.661 27.1208 195.559 27.0806 195.827 27.0973L197.746 27.0694C197.821 25.4554 197.843 23.7367 197.815 22.119C197.735 17.5435 197.955 12.8508 197.761 8.28645C197.261 7.97375 196.574 7.572 196.122 7.21898C201.97 7.04972 208.27 7.1661 214.152 7.16735C214.176 6.6655 214.329 5.44616 214.028 5.09577L213.792 4.99084C213.336 5.86545 213.273 6.14681 212.232 6.21418C211.133 6.28528 210.036 6.25905 208.939 6.25533L199.892 6.22689C198.6 6.2262 196.02 6.16352 194.849 6.3557ZM209.398 13.7376C209.177 14.0325 208.796 14.5759 208.568 14.8317C207.66 14.9032 201.862 14.8415 201.625 15.0411L201.603 15.6656L201.752 15.8191L201.961 15.8099C204.343 15.8191 207.568 15.9238 209.885 15.7659C209.913 15.1081 209.951 14.6024 209.856 13.9426C209.615 13.7044 209.736 13.7594 209.398 13.7376ZM214.543 22.696C214.461 22.8568 214.337 23.1108 214.242 23.2518C213.09 24.9491 202.349 23.1843 201.608 24.2208C201.618 24.5715 201.554 24.6931 201.747 24.8889C205.484 24.9814 211.297 25.0874 214.948 24.8624C214.985 24.2711 215.083 23.4244 214.936 22.8768C214.765 22.7591 214.742 22.7277 214.543 22.696Z" fill="white"/>
<path d="M64.3313 4.73711C66.5061 4.65483 67.9933 4.92584 70.0273 5.4992C71.4445 5.89874 73.1782 6.94288 74.3698 6.21517C74.6061 6.07076 75.4109 6.52719 75.6977 6.67159C75.5066 7.02254 75.2953 7.37059 75.1905 7.75564C75.5873 7.73672 75.6771 7.74528 76.0624 7.84289L76.1249 8.0544C75.8077 8.93273 74.294 11.9615 73.7783 12.7226L73.4122 12.7421C73.1296 12.4572 73.2098 12.3774 73.1764 11.9031L73.0029 11.8552C72.8812 12.1741 72.8486 12.2502 72.6577 12.5308C71.3217 12.69 71.3306 11.1023 70.9671 10.7348C68.7448 8.48735 61.059 9.15376 60.2602 12.3473C60.8266 14.3974 70.9038 12.3217 74.4387 15.8789C75.6963 17.1442 76.6677 18.8182 76.6643 20.643C76.661 22.3379 76.083 23.9266 74.8841 25.1279C72.5069 27.5098 68.5544 28.1917 65.3529 28.1704C62.586 28.0676 59.2384 26.7544 56.676 25.7151C55.9784 25.432 55.2666 25.4037 54.9959 24.8352C55.1503 25.1595 53.1993 24.6784 52.8115 24.5088C53.5902 22.943 55.3426 20.4669 56.3591 18.8256C58.6611 19.5775 57.0246 19.6846 57.9966 20.7615C60.6452 23.6954 68.5089 24.5275 71.1098 21.4148C73.9414 18.0263 64.5063 18.7163 62.8256 18.3486C59.8806 17.7043 55.753 17.3815 54.9981 13.4495C53.9751 6.83644 59.675 5.63933 64.3313 4.73711ZM57.8362 16.5417C55.881 13.3379 56.411 10.2671 59.5408 8.107C64.4445 5.19933 69.3714 6.21393 74.3927 8.01229C74.5591 7.66093 74.8326 7.21748 74.7598 6.85784C74.258 6.76133 73.5004 7.23308 73.1696 7.1138C69.9144 5.93905 67.7694 5.26726 64.2778 5.43583C62.1342 5.62925 59.5839 6.0564 57.8684 7.44666C54.6035 10.0924 54.4724 13.7427 57.6391 16.3788L57.8362 16.5417ZM61.0538 23.6305C64.2383 25.392 69.281 25.6463 72.2302 23.2507C73.863 21.9244 73.7431 20.225 71.8871 19.2493L71.8396 19.2246C72.4512 22.5538 69.824 23.3784 67.1476 23.8725C64.66 24.3317 61.5517 23.6329 59.2971 22.5262C59.9802 23.0184 60.3046 23.235 61.0538 23.6305ZM73.9252 16.0179C69.6893 13.5853 65.2905 14.171 60.3958 13.6476C62.5723 15.5825 68.4713 14.5481 71.2713 15.394C71.6296 15.5023 73.6286 16.0107 73.9252 16.0179ZM54.7684 24.217C54.902 24.1673 55.5749 24.0815 55.5258 24.1446C56.6791 22.6591 57.4906 21.6353 56.9982 19.7272C56.8387 19.6196 56.7708 19.5558 56.5799 19.5212C56.1718 20.3459 53.7444 23.9175 53.7346 24.2149C54.1127 24.4249 54.3458 24.353 54.7684 24.217Z" fill="white"/>
<path d="M36.8513 5.64911C38.8213 5.82072 42.6357 5.78302 44.6287 5.64648C44.6506 6.69449 44.5089 6.80273 45.3572 7.38437C45.3061 7.83624 44.9421 8.03339 44.7896 8.43763C44.5538 9.06248 51.673 23.794 52.466 25.5347C53.4372 26.115 53.696 26.4915 54.2495 27.598C53.8947 28.9952 47.6722 27.8105 46.4788 27.5221L46.3106 27.1052C46.311 26.6138 46.525 26.3248 46.7289 25.9689C47.0703 25.3733 46.0565 23.5111 45.7213 22.6835C42.7512 22.6036 39.6542 22.7233 36.6429 22.6579C36.1887 23.8061 35.2335 25.4852 35.081 26.708C35.0444 27.0022 35.6427 27.4666 35.5427 28.0456C34.154 28.4018 31.7079 28.0357 30.2114 28.1133C30.1814 28.1148 29.7212 27.7048 29.727 27.7053C29.2162 27.6563 28.4947 27.799 28.0467 27.5297C28.0098 27.4162 27.9783 27.2993 27.9757 27.1789C27.9516 26.0968 29.2196 25.6065 29.7941 24.8603C30.0923 24.4729 30.2595 23.9022 30.4423 23.4489C31.3343 21.237 37.2624 8.64775 37.2579 7.75796C37.2548 7.14263 36.7055 6.82979 36.8513 5.64911ZM30.8502 27.0766C31.3631 26.3642 32.175 25.1741 32.4425 24.344C34.2427 20.1355 36.1276 15.9954 37.9756 11.8114C38.4145 10.818 38.9914 9.57634 39.2948 8.55525C39.1008 8.23937 38.6689 7.63799 38.6913 7.30761C39.723 6.56251 43.0054 7.97458 44.0146 6.66481L44.0488 6.4239C43.6691 6.11823 38.1551 6.22095 37.2867 6.2556C37.3211 7.46624 38.5793 6.77595 37.4056 9.27123C34.8597 14.6844 32.7437 20.373 29.9478 25.6478C29.8019 25.9232 28.4643 26.8093 28.142 27.0617C29.0341 27.0751 29.9609 27.1034 30.8502 27.0766ZM46.2787 22.6721C46.7516 23.7191 47.2815 24.7438 47.7377 25.7504C47.3782 26.1945 47.0903 26.4024 47.014 26.9117C47.4792 27.1879 47.9761 27.1027 48.5518 27.0898L48.8178 26.9253C48.9087 26.1782 47.5958 23.0687 46.9671 22.6885L46.2787 22.6721ZM38.6053 17.9451C39.4842 17.9612 40.4049 17.9912 41.2799 17.985C42.0648 17.9844 42.9483 17.9632 43.724 18.0119C42.7929 16.4631 41.7621 13.6945 41.0636 12.6417C40.2681 14.4207 39.4484 16.1887 38.6053 17.9451ZM41.7468 10.8802C41.3641 11.8828 41.6041 12.4971 42.0677 13.5083C42.8473 15.209 43.7505 16.8308 44.5411 18.5489C43.104 18.6383 39.2399 18.3421 38.2734 18.8282C38.0162 19.1735 38.0402 19.0395 38.0624 19.4115C38.3664 19.4502 38.552 19.4706 38.8578 19.4697C41.1225 19.4659 43.5422 19.5078 45.7932 19.4542C44.7217 17.1949 43.7359 14.9011 42.5933 12.6814C42.3929 12.2922 41.8963 11.1182 41.7468 10.8802Z" fill="white"/>
<path d="M84.3989 5.66361C86.5575 5.83052 89.908 5.74589 92.111 5.66016C92.1154 5.85233 92.1231 6.04451 92.1346 6.23655C92.1779 6.93541 92.3622 6.95543 92.9623 7.49317C92.9299 7.90376 92.6559 8.08544 92.3419 8.45875C93.0272 10.855 95.6403 15.7059 96.6817 18.1344C97.5604 20.1834 98.7408 22.7051 99.7074 24.7103C99.6995 24.6938 102.308 27.9056 102.495 28.1022C99.9639 28.2958 96.9182 28.248 94.4347 27.6713C93.5049 27.4554 94.2813 26.2764 94.4537 25.9341C94.7334 25.3794 93.6556 23.3295 93.3851 22.7256C92.9756 22.5636 85.3919 22.6887 84.2345 22.633C83.6727 23.968 83.0259 25.4061 82.6426 26.7943C82.7225 26.8913 82.8013 26.9892 82.8791 27.088C83.2015 27.4988 83.3137 27.6164 83.2612 28.0829C81.837 28.3509 76.96 28.2482 75.9351 27.3523C75.8267 27.1848 75.5982 26.519 75.7341 26.4236C78.1057 24.759 78.7066 21.9836 79.8511 19.377L83.5541 11.1125C83.9662 10.1739 84.6404 8.7455 84.9048 7.77094C85.0168 7.35842 84.2739 7.239 84.3989 5.66361ZM78.4673 27.0568C79.2042 26.2543 79.4788 25.6591 79.9012 24.6507C81.2994 21.1821 83.1712 17.6801 84.5571 14.1693C85.2627 12.3818 86.4951 10.3096 86.958 8.4553C86.6871 8.07509 86.2944 7.55833 86.0559 7.17439C87.2614 7.18543 90.6095 7.39473 91.4268 6.85796L91.5521 6.53366L91.42 6.31442C90.5274 6.10912 86.2504 6.24249 85.117 6.25754L84.9967 6.4649C85.2566 6.94687 85.7223 7.77122 85.4685 8.35949C84.86 9.77073 84.173 11.1448 83.557 12.5577L80.1686 20.2017C79.5409 21.6342 78.886 23.1735 78.2547 24.6004C77.7151 25.8197 76.3887 26.4785 76.3263 26.9308C76.812 27.2526 77.853 27.1041 78.4673 27.0568ZM93.9226 22.6134C94.3901 23.6696 94.8453 24.7312 95.2883 25.7982C95.0262 26.1269 94.6579 26.4822 94.682 26.8808C95.1253 27.1902 95.7774 27.0985 96.3662 27.0984C96.5596 26.8492 96.6378 26.8023 96.5175 26.4593C96.0718 25.189 95.4584 23.8717 94.6853 22.778C94.5829 22.6331 94.0945 22.6301 93.9226 22.6134ZM86.3038 17.944C87.2413 17.9721 88.1791 17.9848 89.1171 17.9821L91.2179 18.0002C90.8582 17.1776 89.137 13.0841 88.7138 12.6725C87.7675 14.4599 87.1284 16.1101 86.3038 17.944ZM89.4429 10.8488C89.1171 11.5894 89.0998 12.003 89.4752 12.7824C90.2278 14.3442 91.3182 17.1964 92.1666 18.6107C91.1818 18.5935 86.5918 18.4252 86.003 18.7244L85.7453 19.2561L85.8767 19.4295C86.3653 19.4858 86.6164 19.4831 87.1048 19.4683C89.1495 19.4659 91.468 19.5192 93.4895 19.4512C92.0085 16.6175 90.7872 13.7419 89.4429 10.8488Z" fill="white"/>
<path d="M220.108 5.67139C222.35 5.79205 224.664 5.75339 226.928 5.85708C227.293 6.32841 226.948 6.59984 227.254 7.10858C227.308 7.19818 227.579 7.05322 227.877 7.44862C227.72 7.78977 227.297 8.01135 226.974 8.22603C226.743 9.48292 226.812 12.8414 226.812 14.2768L226.813 24.1015C226.823 25.1653 226.83 26.66 227.631 27.4399C227.874 27.6769 227.893 27.7283 228.005 28.0736L228.016 28.1097C226.282 28.2914 221.794 28.1937 220.229 27.5597C219.899 27.1236 219.966 27.3145 219.921 26.7924C220.112 26.2925 220.592 25.9973 221.018 25.6697C221.63 24.1655 221.032 10.3087 221.061 7.89607C221.069 7.18893 220.021 7.96662 220.108 5.67139ZM221.696 7.37849C221.971 13.048 221.606 18.9349 221.76 24.625C221.798 25.9879 221.538 25.8566 220.697 26.8064L220.728 27.0054C221.314 27.2431 222.804 27.2366 222.974 26.4029C223.142 25.5817 222.984 24.6163 223.001 23.7607C223.01 19.1904 223.211 12.6544 222.955 8.2357C222.453 7.94978 221.765 7.58212 221.313 7.2512C222.456 7.16588 225.963 7.49805 226.456 6.57761C225.932 5.95593 221.717 6.22818 220.744 6.24433C220.57 6.88644 221.165 7.05198 221.696 7.37849Z" fill="white"/>
<path d="M134.728 25.5146L135.24 25.7756C134.988 26.1026 134.533 26.6459 134.395 27.0073L134.183 27.6583C133.843 26.7518 134.087 26.1416 134.728 25.5146Z" fill="white"/>
<path d="M261.122 22.6439C260.693 23.7652 259.952 25.1601 259.721 26.3465C259.653 26.6908 260.196 27.6456 260.058 28.0882C258.476 28.4736 254.289 28.0504 252.728 27.5625C251.522 27.1853 254.478 24.7569 254.711 24.1911C256.882 18.9309 259.346 13.8015 261.497 8.53575C262.061 7.15336 261.015 6.88856 261.394 5.81501C261.659 5.65486 268.012 5.70733 269.007 5.6626C269.044 7.01088 268.948 6.64144 269.885 7.36763C269.904 7.99607 268.985 8.2334 269.365 9.05747C270.097 10.6414 270.822 12.2283 271.543 13.8182L276.893 25.4592C278.592 26.3334 277.944 26.9102 279 27.498V28.1419C277.291 28.1602 272.506 28.3083 271.039 27.5349C270.772 26.8289 271.034 26.4874 271.323 25.9573C271.644 25.3676 270.607 23.4178 270.276 22.6716C267.283 22.6767 264.099 22.736 261.122 22.6439ZM252.558 27.0643C255.469 27.1956 255.755 27.2904 256.918 24.4126C258.365 21.0101 259.95 17.6515 261.391 14.2435C262.105 12.5545 263.373 10.2698 263.878 8.54375L262.955 7.16523C264.159 7.18622 267.566 7.42327 268.384 6.80807L268.496 6.54314L268.4 6.33412C267.006 6.07912 263.374 6.23527 261.822 6.26039C261.813 7.1379 262.717 7.14149 262.499 7.80017C262.139 8.8878 261.452 10.2927 260.987 11.3367L257.501 19.1891C256.666 21.0555 255.896 22.9529 255.059 24.8186C254.583 25.8774 253.418 26.3835 252.558 27.0643ZM273.138 27.0862C273.795 26.4692 272.112 23.6146 271.7 22.8812C271.55 22.6145 271.114 22.6319 270.835 22.6019C271.239 23.5513 271.843 24.8704 272.148 25.8214C271.827 26.291 271.628 26.4134 271.59 26.9163C272.016 27.1784 272.591 27.0945 273.138 27.0862ZM266.227 10.9764C266.162 11.1869 266.037 11.6678 266.094 11.8617C266.597 13.5731 267.986 16.5683 268.809 18.1397C268.886 18.2847 268.966 18.4274 269.05 18.5678C267.396 18.5891 264.498 18.4697 263.003 18.6312C262.671 19.0224 262.739 18.8526 262.653 19.3219C262.96 19.5689 263.702 19.4714 264.178 19.4693L270.393 19.4645C269.786 18.3487 266.507 11.1741 266.227 10.9764ZM265.752 17.9842C266.541 17.9893 267.355 17.9837 268.143 18.0113C267.644 16.9546 266.152 13.2431 265.507 12.664C264.704 14.4075 263.938 16.1681 263.209 17.9446L265.752 17.9842Z" fill="white"/>
</svg>
