<svg width="180" height="49" viewBox="0 0 180 49" fill="none" xmlns="http://www.w3.org/2000/svg">
<g clip-path="url(#clip0_9_657)">
<path d="M74.6028 31.4647C75.1211 30.6822 75.6878 29.0322 76.0662 28.1069L78.4713 22.2286C78.8231 21.3485 80.0267 18.925 80.0972 17.8884C80.1036 17.7947 79.8712 17.1256 79.8829 16.6722C79.9468 16.5806 79.9678 16.5097 80.0583 16.5043C81.6631 16.4101 83.5343 16.4658 85.1356 16.4698C85.2798 17.6042 85.4896 17.1114 85.6423 17.6133C85.4543 18.0269 85.1594 18.5369 85.3628 18.9888C86.9915 22.6058 88.455 26.2904 90.0379 29.9274C90.2647 30.4487 90.4484 31.0005 90.7314 31.4936C91.9249 32.1018 91.3721 32.2815 91.8458 32.6231L91.9276 32.5619C91.9531 32.3126 91.9223 32.02 92.1359 31.8496C92.324 31.699 92.5657 31.7105 92.6157 31.4355C92.7537 30.6732 92.7256 20.4225 92.4927 20.1057C92.4417 20.037 92.2967 19.974 92.2211 19.9242C91.8713 19.6913 91.9645 19.2489 91.9724 18.8775C92.6913 18.9025 96.265 18.8071 96.562 19.0443C96.6042 20.3965 96.8907 19.5338 97.0454 20.036C96.867 20.2811 96.6816 20.3633 96.4205 20.5138C96.2131 23.3242 96.3968 27.1796 96.3458 30.0738C98.0817 30.1073 99.8184 30.119 101.555 30.1087C102.256 30.1091 102.956 30.1294 103.655 30.1183C104.343 30.1072 104.823 29.2036 105.427 29.4252C105.621 29.6935 105.51 29.972 105.553 30.2888C105.593 30.5801 105.783 30.2161 106.106 30.4943C106.253 31.093 106.135 33.0069 106.172 33.7574C105.879 33.7117 104.728 33.603 104.594 33.5198L104.466 33.2651C103.844 33.152 102.04 33.1967 101.307 33.198C98.9034 33.2024 96.4908 33.2067 94.0862 33.2279C93.4621 33.2333 93.1985 32.901 92.6298 32.8715C92.2914 32.8539 91.8898 33.1243 91.6076 33.1692C91.1049 33.2492 90.4009 33.239 89.8823 33.2323C89.4631 33.2269 88.6106 33.2431 88.2476 33.1847C87.4085 33.0502 87.5451 32.8685 86.6128 32.9055L86.7493 32.4922C87.1408 32.5606 87.789 32.6636 88.063 32.3549C88.2449 31.6238 87.2069 29.477 86.5958 29.0213L86.5038 29.0869C86.5947 29.8591 87.2467 30.7905 87.2943 31.7101L86.9638 31.5444C86.6747 30.6294 86.3837 29.9439 85.9128 29.1003C83.8482 29.099 81.6729 29.1325 79.6175 29.0949C79.3048 29.8782 78.3631 31.6273 78.5852 32.4095C78.6512 32.6422 78.8849 32.6938 78.8924 33.0736C78.1997 33.6135 70.914 33.0889 74.6028 31.4647ZM76.3537 31.0419C77.2386 29.161 78.0011 27.0689 78.7864 25.1301C79.6506 22.9966 80.7424 20.5431 81.4768 18.3859C81.2767 18.0816 81.0104 17.7021 80.8293 17.3965C81.4284 17.3768 84.4837 17.4516 84.732 17.1972L84.808 16.9621L84.712 16.8253C83.8555 16.7384 81.97 16.7867 81.0361 16.7865C80.8033 16.7927 80.3438 16.7737 80.174 16.8888C80.1999 17.3013 80.6559 17.8532 80.5276 18.1836C78.9188 22.3244 77.19 26.4392 75.4956 30.5496C75.3372 30.9339 75.0766 31.3314 74.8284 31.6598C74.6129 31.9367 74.1679 32.0736 74.0623 32.3649C74.3133 32.6687 74.8916 32.5695 75.2712 32.5497C75.9281 32.0406 76.0319 31.8002 76.3537 31.0419ZM92.4672 32.5159C92.8935 32.5092 93.4085 32.5156 93.826 32.4925C93.8937 31.622 93.8928 30.7146 93.8875 29.8398C93.8699 26.7348 93.9411 23.607 93.8576 20.5041C93.5878 20.3908 93.3259 20.319 93.1756 20.0733L93.2222 19.9483C93.9438 19.666 95.561 20.0484 96.112 19.5611L96.1762 19.3672C96.1507 19.3401 96.0751 19.2548 96.0479 19.243C94.7506 19.2913 93.0877 19.2037 91.8933 19.2935C92.1007 19.4121 92.9515 19.8636 92.9374 20.0941C92.8346 21.806 93.3558 30.6811 92.8908 31.8191C92.5657 32.1694 92.4655 31.9762 92.3116 32.3489C92.3855 32.4904 92.3442 32.4613 92.4672 32.5159ZM83.1599 20.2133C82.9795 20.5937 82.8972 20.7607 83.0488 21.1774C83.6587 22.8548 84.4804 24.4822 85.1843 26.1265C84.3187 26.1244 81.2288 25.9977 80.6745 26.3265C80.5503 26.5052 80.5623 26.4324 80.5873 26.6266C80.7722 26.7486 81.0264 26.7126 81.255 26.7068C82.6483 26.7067 84.6022 26.7665 85.9504 26.6861C85.6244 25.9021 83.4938 20.5926 83.1599 20.2133ZM96.4372 31.1119C98.8551 31.117 102.893 31.2463 105.182 31.084C105.196 30.7098 105.247 30.12 105.151 29.7774L104.986 29.667C104.788 30.002 104.652 30.3356 104.291 30.4068C103.183 30.6253 97.0788 30.2157 96.3696 30.5607C96.3238 30.8153 96.3467 30.8653 96.4372 31.1119ZM84.6099 25.6916C84.3906 25.1926 82.9513 21.76 82.6799 21.4504C82.1215 22.8737 81.5254 24.2818 80.8918 25.6734L82.9249 25.6788L84.6099 25.6916Z" fill="#C0C4CE"/>
<path d="M148.291 18.9428C152.682 19.341 159.125 17.7366 162.386 21.4421C164.86 24.2531 165.098 29.1895 162.051 31.7146C158.469 33.7792 154.368 33.1803 150.346 33.2055C150.327 33.2056 148.352 32.9027 148.314 32.8903C148.181 32.7072 148.181 32.6249 148.148 32.398C148.299 31.99 148.453 31.9498 148.815 31.6503C148.886 31.4407 148.903 31.2673 148.901 31.0463C148.87 27.6987 148.904 24.3502 148.889 21.0024C148.886 20.2066 148.815 20.2744 148.276 19.7223C148.18 19.471 148.249 19.2109 148.291 18.9428ZM152.649 30.1991C155.042 30.2708 157.281 30.5132 159.282 29.033C160.717 27.5793 160.83 24.4711 159.381 23.0303C157.867 21.5255 154.662 22.0443 152.641 21.9886C152.642 24.7125 152.619 27.479 152.649 30.1991ZM149.238 20.0302C149.326 22.4434 149.272 25.0094 149.284 27.4338C149.289 28.4731 149.337 30.9364 149.212 31.8702C148.977 32.0078 148.7 32.1242 148.613 32.3707C148.816 32.6729 149.759 32.5479 150.127 32.532C150.151 28.6779 150.193 24.6126 150.129 20.7648C149.869 20.2775 149.454 20.285 148.942 19.9352C150.468 19.8967 151.993 19.8817 153.519 19.8903C156.618 19.8828 158.469 19.711 161.36 20.9072C158.774 19.0705 155.766 19.3167 152.725 19.297C151.453 19.2887 149.861 19.2643 148.605 19.3233C148.494 19.7138 148.909 19.8317 149.238 20.0302ZM153.083 31.2063C155.442 31.2196 158.585 31.6043 160.369 29.8447C161.935 28.2999 162.064 24.9186 160.429 23.3628C160.261 23.2 160.004 22.9269 159.779 22.8465C160.726 24.3802 161.038 25.6349 160.636 27.2999C159.75 30.9597 155.8 30.5544 152.921 30.6679C152.665 30.6781 152.604 30.8213 152.51 31.0254L152.543 30.8805C152.672 31.2063 152.699 31.2331 153.083 31.2063Z" fill="#C0C4CE"/>
<path d="M112.314 18.9313C112.303 19.6954 112.262 19.5543 112.735 20.0906C112.699 20.3028 112.313 20.574 112.127 20.729C112.353 21.3248 113.006 22.4387 113.337 23.0471C114.026 24.2935 114.684 25.5562 115.313 26.834C116.191 25.558 117.977 21.9628 118.824 20.4247C118.842 20.1564 118.486 19.8605 118.306 19.4449C118.318 19.1488 118.281 19.2566 118.466 19.0122C118.746 18.9571 119.907 18.9841 120.251 18.9823C121.605 18.9754 122.925 19.0112 124.28 18.9347C124.281 19.7022 124.237 19.5542 124.713 20.0993C124.61 20.3358 124.375 20.4196 124.119 20.5833C123.978 24.2503 124.148 28.01 124.089 31.6843C124.087 31.8291 124.631 32.8614 124.73 33.0541L124.639 33.1525C123.673 33.3534 120.064 33.3656 119.579 32.4085C119.64 31.9434 120.003 31.8183 120.384 31.6574C120.481 30.2341 120.426 28.3269 120.424 26.8667L120.413 24.5946C119.849 25.425 119.241 26.7946 118.718 27.7076C117.823 29.2704 116.977 30.8678 116.116 32.4491C115.984 32.2325 115.914 32.0938 115.715 31.9279C115.47 32.0359 115.377 32.3052 115.213 32.5756C113.622 30.1378 112.082 26.5401 110.501 24.0555C110.562 26.3434 110.414 28.7082 110.49 31.0173C110.529 32.1894 111.18 32.8099 111.165 33.0445C110.723 33.5611 107.506 33.0582 106.8 32.8558C106.268 32.2117 107.318 31.707 107.322 31.5743C107.408 27.8834 107.373 24.1549 107.34 20.4609C107.336 20.0579 106.85 19.9973 106.655 19.5675C106.668 19.2523 106.656 19.3533 106.853 19.0607C107.294 18.9528 108.71 18.979 109.237 18.9764C110.305 18.985 111.244 18.9845 112.314 18.9313ZM108.628 29.3211L108.633 23.8537C108.633 22.8803 108.668 21.4967 108.578 20.5595C108.135 20.351 107.866 20.2364 107.474 19.9306C108.228 19.9007 111.819 20.1681 111.918 19.4071C111.601 19.2376 107.774 19.2908 107.227 19.3199L107.068 19.4215L107.1 19.6288C107.361 19.7882 107.619 19.9111 107.694 20.2234C107.883 21.0072 107.835 31.4237 107.669 31.6807C107.5 31.942 107.239 32.1282 107.073 32.3955L107.111 32.5012C107.564 32.5842 108.064 32.5461 108.528 32.5286C108.678 31.6912 108.63 30.2236 108.628 29.3211ZM110.496 22.4145C110.49 22.5897 110.469 23.1178 110.541 23.2592C111.978 26.1032 113.596 28.858 115.074 31.6799C115.235 31.7427 115.163 31.7395 115.356 31.6623C115.351 31.3726 115.23 31.0683 115.098 30.811C113.713 28.1023 112.17 25.4755 110.763 22.7762C110.705 22.6649 110.58 22.5111 110.496 22.4145ZM121.511 22.5141C121.359 22.8127 120.994 23.4812 120.946 23.7924C120.611 26.0074 120.825 28.3621 120.819 30.601C120.816 31.4404 120.77 31.8469 120.052 32.3075L120.03 32.4929C120.047 32.5113 120.064 32.5298 120.081 32.5482L121.551 32.5353C121.591 31.582 121.662 22.7295 121.511 22.5141ZM118.678 19.327C118.764 19.7224 119.253 19.8696 119.237 20.2196C119.215 20.7111 116.101 26.4165 115.644 27.1203C115.622 27.1544 115.599 27.1882 115.575 27.2214C115.847 27.6567 115.989 27.8871 116.193 28.3693C116.635 27.3429 117.262 26.2403 117.781 25.2346C118.244 24.484 120.031 21.4032 120.044 20.7215C119.9 20.4118 119.499 20.1417 119.219 19.9211C120.146 19.8952 123.413 20.1387 123.878 19.5145L123.851 19.3831C123.526 19.2352 119.317 19.2965 118.678 19.327Z" fill="#C0C4CE"/>
<path d="M9.27793 15.3803C12.3208 15.1212 14.2346 16.3341 16.9721 17.1271C17.2304 17.2019 17.1069 16.5279 18.33 17.2451C18.1885 17.437 17.8824 17.8561 17.8907 18.0664C18.1163 17.9562 18.2684 17.8654 18.5222 17.8412L18.6339 17.972C18.4453 18.4728 16.9989 21.2558 16.6207 21.4324C16.4526 21.269 16.5252 21.0098 16.5122 20.6849C16.2427 20.7412 16.4283 21.0378 16.0009 21.3255C14.9623 21.2535 15.3443 20.8192 15.1913 20.1133C14.5217 19.3297 12.5455 18.6932 11.5285 18.6032C7.53316 18.395 4.65477 19.9376 4.04829 24.1005C3.18456 30.0294 10.921 31.3352 14.5505 28.29C15.971 27.0662 14.5965 27.2284 15.9296 26.1801C16.4812 26.7372 19.2772 30.0077 19.0616 30.5629C18.7588 30.5833 18.7165 30.4964 18.4194 30.3323C17.9328 30.6323 17.5065 30.9829 17.0122 31.2818C15.2644 32.3439 13.2789 32.9554 11.2349 33.0608C9.8138 33.1341 8.58549 32.8872 7.21365 32.5526C-3.21551 30.0091 -1.93317 15.8851 9.27793 15.3803ZM14.2232 16.8631C15.0349 17.0492 16.9292 18.091 17.5167 17.795C17.6956 17.5343 17.6711 17.6377 17.6847 17.3452L17.5474 17.2677C17.4833 17.2945 17.4191 17.3209 17.3547 17.3469C17.2917 17.3724 16.8883 17.5199 16.8701 17.5159C16.0317 17.3333 15.0767 16.8744 14.2859 16.5417C10.9373 15.5691 7.9353 15.1714 4.69081 16.9465C2.81835 17.9824 1.42565 19.7069 0.809565 21.7521C0.229695 23.7427 0.41468 26.1771 1.45292 27.9911C1.93684 28.8367 2.85448 30.0541 3.70622 30.5518C3.36897 30.1125 2.84726 29.5663 2.57883 29.1227C0.440566 25.5887 1.14455 20.66 4.53894 18.1676C7.15733 16.2451 11.2371 15.8929 14.2232 16.8631ZM6.09453 29.3225C6.54873 29.7036 6.75531 29.8034 7.2723 30.069C9.36257 31.0063 11.3678 31.156 13.5171 30.2996C14.7801 29.7963 18.1373 28.1878 15.8282 26.7094C15.8108 26.6983 15.7252 26.6818 15.704 26.6786C15.5944 27.4213 15.8828 27.6421 15.1366 28.2979C12.7011 30.4386 8.96521 30.7501 6.09453 29.3225Z" fill="#C0C4CE"/>
<path d="M14.2859 16.5417C15.0767 16.8744 16.0317 17.3334 16.8701 17.516C16.8883 17.5199 17.2917 17.3725 17.3547 17.347C17.419 17.3209 17.4833 17.2945 17.5473 17.2677L17.6846 17.3452C17.6711 17.6377 17.6955 17.5344 17.5167 17.7951C16.9292 18.091 15.0349 17.0492 14.2231 16.8632L14.2859 16.5417Z" fill="#C0C4CE" fill-opacity="0.0352941"/>
<path d="M137.632 18.1848L138.481 18.1749C138.661 18.3443 138.623 18.8502 138.642 19.1656L138.873 19.211C139.249 19.6385 139.148 21.9022 139.009 22.4612C138.296 22.7531 137.719 22.0349 137.018 21.9776C134.899 21.8044 132.136 22.1106 130.089 21.921L130.095 24.4361C131.477 24.4918 133.05 24.4622 134.446 24.4663C134.534 24.2036 134.562 24.0974 134.722 23.8616C134.981 23.665 135.446 23.7096 135.789 23.7078C135.774 24.2405 135.673 24.5392 136.226 24.7811L136.266 24.7983C136.309 25.4059 136.422 27.5898 136.15 28.0439C135.547 27.9471 134.844 27.9943 134.527 27.4794C133.581 27.3629 131.153 27.4351 130.089 27.4345L130.108 30.1435C132.475 30.1524 134.849 30.1789 137.214 30.1346C138.411 30.1123 137.508 29.4199 139.044 29.4702C139.039 30.4458 138.968 30.0583 139.536 30.5648C139.697 31.366 139.636 32.8669 139.63 33.7479C139.216 33.6777 138.53 33.7176 138.117 33.5866C138.12 33.5875 137.97 33.2909 137.914 33.2879C134.765 33.1116 131.127 33.2856 127.992 33.2284C126.627 33.2036 127.018 32.803 125.821 32.931C125.727 31.5625 126.37 31.9379 126.382 31.5348C126.497 27.8236 126.397 24.0789 126.414 20.3643C126.415 20.1056 125.916 19.9757 125.727 19.6561C125.684 19.3748 125.745 19.2955 125.881 19.052C126.278 18.9286 127.814 18.973 128.299 18.973L133.809 18.9795C134.743 18.9835 136.246 19.0374 137.104 18.9306C137.382 18.7429 137.397 18.5291 137.632 18.1848ZM125.734 19.3801C125.935 19.4942 126.739 19.8997 126.751 20.1472C126.926 23.883 126.805 27.6622 126.818 31.4073C126.82 32.0362 126.252 31.965 126.117 32.4391C126.257 32.5643 126.192 32.5388 126.365 32.5494L127.602 32.5317C127.651 31.5069 127.665 30.4156 127.646 29.3886C127.595 26.4835 127.737 23.504 127.612 20.606C127.289 20.4075 126.846 20.1524 126.555 19.9282C130.326 19.8208 134.388 19.8947 138.182 19.8954C138.197 19.5768 138.296 18.8026 138.102 18.5802L137.95 18.5135C137.655 19.0688 137.615 19.2475 136.943 19.2903C136.235 19.3354 135.527 19.3188 134.82 19.3164L128.986 19.2983C128.152 19.2979 126.489 19.2581 125.734 19.3801ZM135.116 24.067C134.974 24.2543 134.727 24.5993 134.581 24.7617C133.995 24.8071 130.256 24.7679 130.104 24.8947L130.089 25.2911L130.185 25.3886L130.32 25.3827C131.856 25.3886 133.936 25.4551 135.43 25.3549C135.448 24.9372 135.473 24.6161 135.411 24.1972C135.256 24.046 135.334 24.0809 135.116 24.067ZM138.434 29.7549C138.381 29.857 138.301 30.0183 138.24 30.1078C137.497 31.1854 130.57 30.0649 130.092 30.723C130.099 30.9457 130.058 31.0229 130.182 31.1472C132.592 31.2059 136.34 31.2733 138.695 31.1304C138.719 30.755 138.782 30.2174 138.687 29.8697C138.577 29.7949 138.562 29.775 138.434 29.7549Z" fill="#C0C4CE"/>
<path d="M41.5676 18.3524C42.9701 18.3002 43.9291 18.4723 45.2408 18.8363C46.1547 19.09 47.2727 19.7529 48.0411 19.2909C48.1935 19.1992 48.7125 19.489 48.8974 19.5807C48.7742 19.8035 48.638 20.0245 48.5704 20.269C48.8262 20.257 48.8841 20.2624 49.1326 20.3244L49.173 20.4587C48.9683 21.0163 47.9922 22.9393 47.6597 23.4226L47.4236 23.4349C47.2414 23.2541 47.2931 23.2034 47.2715 22.9023L47.1596 22.8718C47.0812 23.0743 47.0602 23.1226 46.937 23.3008C46.0755 23.4019 46.0812 22.3938 45.8468 22.1605C44.4138 20.7335 39.4574 21.1567 38.9423 23.1843C39.3076 24.4859 45.806 23.168 48.0856 25.4266C48.8965 26.23 49.5229 27.2928 49.5207 28.4514C49.5186 29.5275 49.1459 30.5363 48.3728 31.299C46.8398 32.8113 44.291 33.2442 42.2264 33.2307C40.4422 33.1654 38.2834 32.3316 36.631 31.6718C36.1811 31.4921 35.7221 31.4741 35.5475 31.1131C35.6471 31.319 34.389 31.0135 34.1389 30.9059C34.641 29.9117 35.7711 28.3396 36.4266 27.2975C37.9111 27.7749 36.8558 27.8429 37.4826 28.5266C39.1906 30.3894 44.2616 30.9177 45.9388 28.9414C47.7649 26.79 41.6805 27.2281 40.5967 26.9947C38.6975 26.5856 36.0358 26.3806 35.5489 23.8841C34.8892 19.6853 38.5649 18.9253 41.5676 18.3524ZM37.3792 25.8474C36.1183 23.8133 36.4601 21.8635 38.4784 20.492C41.6406 18.6459 44.8178 19.2901 48.0559 20.4319C48.1632 20.2088 48.3396 19.9273 48.2926 19.6989C47.969 19.6377 47.4804 19.9372 47.2671 19.8614C45.168 19.1156 43.7847 18.689 41.5332 18.7961C40.1508 18.9189 38.5062 19.1901 37.3999 20.0728C35.2945 21.7526 35.21 24.0703 37.2521 25.744L37.3792 25.8474ZM39.4541 30.3482C41.5077 31.4666 44.7595 31.6281 46.6614 30.1071C47.7143 29.265 47.637 28.186 46.4401 27.5665L46.4095 27.5509C46.8039 29.6646 45.1097 30.1882 43.3838 30.5019C41.7796 30.7934 39.7752 30.3497 38.3213 29.6471C38.7618 29.9596 38.971 30.0971 39.4541 30.3482ZM47.7544 25.5149C45.0229 23.9703 42.1862 24.3422 39.0298 24.0099C40.4333 25.2384 44.2374 24.5817 46.043 25.1187C46.2741 25.1875 47.5632 25.5103 47.7544 25.5149ZM35.4008 30.7206C35.487 30.689 35.9209 30.6346 35.8893 30.6747C36.633 29.7315 37.1563 29.0814 36.8387 27.8699C36.7359 27.8016 36.6921 27.7611 36.569 27.7391C36.3059 28.2628 34.7405 30.5305 34.7342 30.7193C34.978 30.8526 35.1283 30.8069 35.4008 30.7206Z" fill="#C0C4CE"/>
<path d="M23.8466 18.9315C25.117 19.0404 27.5768 19.0165 28.862 18.9298C28.8761 19.5952 28.7848 19.6639 29.3318 20.0332C29.2988 20.3201 29.0641 20.4453 28.9657 20.702C28.8137 21.0987 33.4047 30.452 33.916 31.5573C34.5423 31.9257 34.7092 32.1647 35.0661 32.8673C34.8374 33.7544 30.8246 33.0022 30.0551 32.8191L29.9466 32.5544C29.9469 32.2424 30.0848 32.0589 30.2163 31.8329C30.4365 31.4548 29.7828 30.2724 29.5666 29.747C27.6512 29.6962 25.6541 29.7722 23.7122 29.7307C23.4193 30.4597 22.8034 31.5258 22.705 32.3022C22.6814 32.489 23.0672 32.7838 23.0027 33.1515C22.1072 33.3776 20.5298 33.1452 19.5648 33.1944C19.5454 33.1954 19.2486 32.935 19.2524 32.9354C18.923 32.9043 18.4577 32.9949 18.1688 32.8239C18.145 32.7518 18.1247 32.6776 18.123 32.6012C18.1075 31.9141 18.9252 31.6028 19.2957 31.1291C19.488 30.8831 19.5958 30.5207 19.7137 30.2329C20.2889 28.8285 24.1117 20.8354 24.1088 20.2704C24.1068 19.8797 23.7526 19.6811 23.8466 18.9315ZM19.9767 32.5362C20.3075 32.0839 20.831 31.3283 21.0035 30.8012C22.1644 28.1292 23.3799 25.5005 24.5716 22.844C24.8547 22.2133 25.2267 21.425 25.4223 20.7766C25.2973 20.5761 25.0187 20.1943 25.0332 19.9845C25.6985 19.5114 27.8152 20.408 28.466 19.5764L28.4881 19.4234C28.2432 19.2293 24.6874 19.2945 24.1274 19.3166C24.1496 20.0852 24.9609 19.6469 24.2041 21.2312C22.5623 24.6682 21.1978 28.28 19.3948 31.629C19.3007 31.8039 18.4381 32.3665 18.2302 32.5267C18.8056 32.5352 19.4032 32.5532 19.9767 32.5362ZM29.926 29.7397C30.231 30.4045 30.5727 31.0551 30.8669 31.6942C30.635 31.9762 30.4494 32.1082 30.4002 32.4315C30.7002 32.6069 31.0206 32.5528 31.3919 32.5446L31.5634 32.4401C31.6221 31.9658 30.7754 29.9915 30.37 29.7501L29.926 29.7397ZM24.9777 26.7384C25.5445 26.7487 26.1382 26.7677 26.7025 26.7638C27.2086 26.7634 27.7783 26.7499 28.2786 26.7809C27.6781 25.7975 27.0134 24.0397 26.563 23.3712C26.05 24.5007 25.5214 25.6233 24.9777 26.7384ZM27.0036 22.2528C26.7568 22.8893 26.9116 23.2794 27.2105 23.9214C27.7132 25.0013 28.2957 26.031 28.8055 27.1218C27.8788 27.1786 25.3869 26.9905 24.7637 27.2992C24.5978 27.5184 24.6133 27.4333 24.6276 27.6695C24.8236 27.6941 24.9433 27.707 25.1406 27.7064C26.601 27.7041 28.1614 27.7306 29.613 27.6966C28.922 26.2621 28.2863 24.8058 27.5495 23.3964C27.4202 23.1493 27.1 22.4039 27.0036 22.2528Z" fill="#C0C4CE"/>
<path d="M54.5082 18.9405C55.9003 19.0465 58.0609 18.9928 59.4815 18.9384C59.4843 19.0604 59.4894 19.1824 59.4967 19.3043C59.5247 19.748 59.6435 19.7607 60.0305 20.1022C60.0096 20.3629 59.8329 20.4782 59.6304 20.7152C60.0723 22.2367 61.7575 25.3166 62.429 26.8585C62.9957 28.1595 63.7569 29.7605 64.3802 31.0336C64.3751 31.0232 66.0571 33.0624 66.1778 33.1873C64.5456 33.3102 62.5815 33.2798 60.98 32.9137C60.3804 32.7766 60.8811 32.028 60.9923 31.8107C61.1726 31.4585 60.4776 30.157 60.3031 29.7736C60.0391 29.6707 55.1486 29.7501 54.4022 29.7148C54.04 30.5624 53.6228 31.4754 53.3757 32.3568C53.4272 32.4184 53.478 32.4806 53.5282 32.5433C53.7361 32.8041 53.8085 32.8788 53.7746 33.175C52.8562 33.3451 49.7112 33.2799 49.0502 32.7111C48.9804 32.6048 48.833 32.182 48.9206 32.1215C50.45 31.0646 50.8375 29.3024 51.5755 27.6475L53.9635 22.4002C54.2292 21.8042 54.664 20.8973 54.8345 20.2785C54.9067 20.0166 54.4276 19.9408 54.5082 18.9405ZM50.6832 32.5235C51.1584 32.014 51.3355 31.6361 51.6079 30.9959C52.5095 28.7936 53.7165 26.5701 54.6103 24.341C55.0653 23.2061 55.86 21.8904 56.1586 20.713C55.9838 20.4716 55.7306 20.1435 55.5768 19.8998C56.3542 19.9068 58.5132 20.0397 59.0403 19.6989L59.1211 19.493L59.0359 19.3538C58.4603 19.2234 55.7022 19.3081 54.9713 19.3176L54.8937 19.4493C55.0613 19.7553 55.3617 20.2787 55.198 20.6522C54.8056 21.5482 54.3626 22.4207 53.9653 23.3178L51.7803 28.171C51.3755 29.0806 50.9532 30.0579 50.546 30.9639C50.1981 31.738 49.3427 32.1563 49.3025 32.4435C49.6157 32.6478 50.287 32.5535 50.6832 32.5235ZM60.6498 29.7023C60.9512 30.3729 61.2448 31.047 61.5304 31.7244C61.3614 31.9331 61.1239 32.1587 61.1395 32.4118C61.4253 32.6082 61.8459 32.55 62.2256 32.5499C62.3503 32.3917 62.4007 32.3619 62.3231 32.1442C62.0357 31.3376 61.6401 30.5012 61.1416 29.8068C61.0756 29.7148 60.7606 29.7129 60.6498 29.7023ZM55.7367 26.7376C56.3412 26.7555 56.946 26.7635 57.5508 26.7618L58.9056 26.7733C58.6736 26.251 57.5637 23.652 57.2908 23.3906C56.6805 24.5255 56.2684 25.5733 55.7367 26.7376ZM57.761 22.2327C57.5508 22.7029 57.5397 22.9656 57.7818 23.4604C58.2671 24.452 58.9703 26.2629 59.5174 27.1609C58.8823 27.15 55.9224 27.0432 55.5427 27.2331L55.3765 27.5707L55.4612 27.6808C55.7763 27.7165 55.9382 27.7148 56.2532 27.7054C57.5718 27.7039 59.0669 27.7378 60.3705 27.6945C59.4154 25.8954 58.6278 24.0696 57.761 22.2327Z" fill="#C0C4CE"/>
<path d="M142.023 18.9457C143.468 19.0223 144.961 18.9977 146.421 19.0636C146.656 19.3628 146.434 19.5352 146.631 19.8582C146.666 19.9151 146.841 19.823 147.032 20.0741C146.931 20.2907 146.659 20.4314 146.45 20.5677C146.301 21.3657 146.346 23.498 146.346 24.4094L146.347 30.6473C146.353 31.3228 146.357 32.2718 146.874 32.7669C147.031 32.9174 147.043 32.95 147.115 33.1693L147.122 33.1922C146.004 33.3076 143.11 33.2455 142.101 32.843C141.888 32.5661 141.931 32.6873 141.902 32.3558C142.025 32.0384 142.335 31.851 142.61 31.643C143.004 30.688 142.618 21.89 142.637 20.3582C142.642 19.9092 141.966 20.403 142.023 18.9457ZM143.046 20.0296C143.224 23.6293 142.988 27.3669 143.088 30.9797C143.112 31.845 142.944 31.7617 142.402 32.3648L142.422 32.4911C142.8 32.642 143.761 32.6379 143.871 32.1085C143.979 31.5872 143.877 30.9742 143.888 30.431C143.894 27.5292 144.024 23.3793 143.859 20.5738C143.535 20.3923 143.091 20.1588 142.799 19.9487C143.537 19.8946 145.798 20.1055 146.116 19.5211C145.778 19.1263 143.06 19.2992 142.433 19.3095C142.32 19.7171 142.705 19.8222 143.046 20.0296Z" fill="#C0C4CE"/>
<path d="M86.9637 31.5444L87.2942 31.7101C87.1315 31.9178 86.8381 32.2627 86.7492 32.4922L86.6127 32.9055C86.3935 32.3299 86.5503 31.9425 86.9637 31.5444Z" fill="#C0C4CE" fill-opacity="0.984314"/>
<path d="M168.471 29.7217C168.194 30.4336 167.716 31.3193 167.568 32.0726C167.524 32.2912 167.874 32.8974 167.785 33.1784C166.764 33.4231 164.064 33.1544 163.058 32.8446C162.28 32.6052 164.187 31.0633 164.337 30.7041C165.737 27.3643 167.326 24.1075 168.713 20.7642C169.077 19.8865 168.402 19.7183 168.646 19.0367C168.818 18.935 172.914 18.9683 173.556 18.9399C173.58 19.796 173.518 19.5614 174.122 20.0225C174.134 20.4215 173.542 20.5722 173.787 21.0954C174.259 22.1011 174.726 23.1086 175.191 24.1181L178.641 31.5092C179.737 32.0642 179.319 32.4305 180 32.8037V33.2125C178.898 33.2241 175.812 33.3182 174.866 32.8271C174.694 32.3788 174.863 32.1621 175.049 31.8255C175.256 31.4511 174.588 30.2131 174.374 29.7393C172.444 29.7426 170.391 29.7802 168.471 29.7217ZM162.948 32.5283C164.826 32.6116 165.01 32.6719 165.76 30.8447C166.693 28.6844 167.715 26.5519 168.644 24.3881C169.105 23.3158 169.922 21.8651 170.248 20.7692L169.653 19.894C170.43 19.9073 172.627 20.0578 173.154 19.6672L173.226 19.499L173.165 19.3663C172.266 19.2044 169.923 19.3035 168.922 19.3195C168.917 19.8766 169.5 19.8789 169.359 20.2971C169.127 20.9877 168.684 21.8797 168.384 22.5425L166.136 27.5282C165.597 28.7132 165.101 29.9179 164.561 31.1025C164.254 31.7747 163.503 32.096 162.948 32.5283ZM176.22 32.5422C176.643 32.1505 175.558 30.338 175.292 29.8724C175.196 29.703 174.915 29.7141 174.734 29.695C174.995 30.2979 175.385 31.1353 175.582 31.7392C175.374 32.0373 175.246 32.1151 175.221 32.4343C175.496 32.6008 175.867 32.5475 176.22 32.5422ZM171.763 22.3138C171.722 22.4474 171.641 22.7527 171.678 22.8759C172.002 23.9625 172.897 25.8642 173.428 26.8619C173.478 26.9539 173.529 27.0446 173.584 27.1337C172.517 27.1472 170.648 27.0714 169.684 27.174C169.47 27.4224 169.514 27.3146 169.458 27.6125C169.656 27.7693 170.135 27.7074 170.442 27.7061L174.45 27.7031C174.059 26.9946 171.944 22.4393 171.763 22.3138ZM171.457 26.7632C171.966 26.7664 172.491 26.7628 172.999 26.7804C172.677 26.1095 171.714 23.753 171.299 23.3853C170.781 24.4923 170.287 25.6101 169.817 26.738L171.457 26.7632Z" fill="#C0C4CE"/>
</g>
<defs>
<clipPath id="clip0_9_657">
<rect width="180" height="49" fill="white"/>
</clipPath>
</defs>
</svg>
