<svg width="150" height="17" viewBox="0 0 150 17" fill="none" xmlns="http://www.w3.org/2000/svg">
<g clip-path="url(#clip0_9_637)">
<path d="M43.8497 16.2107C41.1473 16.2107 36.574 14.5845 36.574 8.48923C36.574 3.15984 40.2279 0.774359 43.8497 0.774359C48.7096 0.774359 51.6116 3.65821 51.6116 8.48923C51.6116 13.685 49.0722 16.2107 43.8497 16.2107ZM55.153 2.75728C52.1443 0.978715 48.1297 0 43.8497 0C39.5669 0 35.5524 0.978715 32.5456 2.75728C30.328 4.08172 29.0569 6.1707 29.0569 8.48909C29.0569 10.8054 30.328 12.8963 32.5456 14.2254C35.5483 16.0053 39.5628 16.9851 43.8497 16.9851C48.1337 16.9851 52.1484 16.0053 55.154 14.2254C57.3716 12.8984 58.6439 10.8079 58.6439 8.48909C58.6439 6.16865 57.3716 4.07981 55.153 2.75728Z" fill="#C0C4CE"/>
<path d="M150 1.01684V0.241455H137.669V1.01684H140.321V7.69294H129.987V1.01523L132.64 1.01728V0.367146L132.635 0.241455H120.316V1.01684H122.969V15.9812H120.316V16.7552H132.64V15.9812H129.987V8.46788H140.321V15.9812H137.669V16.7552H149.875L150 16.7482V15.9812H147.342V1.01684H150Z" fill="#C0C4CE"/>
<path d="M65.0702 11.352L69.8487 5.40425L75.3488 11.351L65.0702 11.352ZM73.695 0H73.2611L60.3333 15.9822L57.3757 15.9807V16.7552H64.8235V15.9811L61.3302 15.9768L64.4681 12.1269L76.0647 12.1234L79.5682 15.9811H76.1768L76.1718 16.7552H91.6185V15.9811L88.1923 15.9778L73.6948 0H73.695Z" fill="#C0C4CE"/>
<path d="M21.2326 1.88331C21.0452 1.75849 20.4071 1.35491 19.4036 0.96055C18.2899 0.521806 16.4769 0 14.1702 0C10.4732 0 7.04779 0.711513 4.52471 2.0046C1.5648 3.52065 0.000244141 5.76301 0.000244141 8.48909C0.000244141 14.057 5.19169 16.9999 15.0135 16.9999C17.4363 16.9999 19.5418 16.3733 21.2725 15.1378L24.2514 16.752L24.8062 16.7592V10.2665L24.2402 10.269L24.1751 10.3047L24.1581 10.3554C24.1381 10.416 23.6403 11.8628 22.3192 13.2825C21.0741 14.618 18.8215 16.2106 15.1526 16.2106C12.6856 16.2106 10.6824 15.2935 9.3622 13.559C8.32356 12.195 7.72754 10.3513 7.72754 8.50095C7.72754 3.48198 11.5528 0.774066 15.1526 0.774066C17.6006 0.774066 19.8181 1.55297 21.5669 3.02565C23.0283 4.25546 23.8636 5.70002 24.1691 6.67698L24.1851 6.72971H24.8061V0.241273L24.2421 0.249769L21.2323 1.88316L21.2326 1.88331Z" fill="#C0C4CE"/>
<path d="M112.241 1.88331C112.054 1.75849 111.415 1.35491 110.412 0.96055C109.298 0.521806 107.486 0 105.178 0C101.481 0 98.0551 0.711513 95.532 2.0046C92.5724 3.52065 91.0078 5.76301 91.0078 8.48909C91.0078 14.057 96.1991 16.9999 106.022 16.9999C108.445 16.9999 110.55 16.3733 112.28 15.1378L115.259 16.752L115.814 16.7592V10.269H115.247L115.183 10.3047L115.165 10.3554C115.145 10.4166 114.648 11.8634 113.326 13.2825C112.083 14.618 109.831 16.2106 106.16 16.2106C103.693 16.2106 101.69 15.2935 100.37 13.559C99.3297 12.194 98.7338 10.3504 98.7338 8.50095C98.7338 3.48198 102.56 0.774066 106.16 0.774066C108.608 0.774066 110.825 1.55297 112.575 3.02565C114.036 4.25721 114.871 5.70104 115.177 6.67698L115.192 6.72971H115.813V0.241273L115.249 0.249769L112.241 1.88316L112.241 1.88331Z" fill="#C0C4CE"/>
</g>
<defs>
<clipPath id="clip0_9_637">
<rect width="150" height="17" fill="white"/>
</clipPath>
</defs>
</svg>
