<svg width="279" height="32" viewBox="0 0 279 32" fill="none" xmlns="http://www.w3.org/2000/svg">
<g clip-path="url(#clip0_145_10377)">
<path d="M128.943 27.8946C127.852 27.8594 126.795 27.5313 125.897 26.9491C124.448 26.0459 122.76 25.5421 121.024 25.4946C120.21 25.4979 119.4 25.5986 118.613 25.7942L116.687 26.2568L118.125 24.9652C119.662 23.7109 121.355 22.6363 123.167 21.7652C125.451 20.6656 127.559 19.2686 129.429 17.6154C130.521 16.6725 131.401 15.5346 132.02 14.2679C132.639 13.0014 132.984 11.6315 133.035 10.2381C133.03 8.78591 132.679 7.35318 132.008 6.0453C131.337 4.73742 130.364 3.58755 129.159 2.68021C127.954 1.77286 126.549 1.13104 125.046 0.801955C123.543 0.47287 121.981 0.464882 120.474 0.778518C118.968 1.09215 117.555 1.7195 116.34 2.61442C115.124 3.50935 114.138 4.64912 113.452 5.95004C112.766 7.25096 112.399 8.67996 112.377 10.132C112.355 11.5842 112.678 13.0225 113.324 14.3414C113.773 15.255 114.373 16.0955 115.102 16.8314L118.098 13.95C117.74 13.5635 117.444 13.1287 117.222 12.6599C116.855 11.9073 116.664 11.0894 116.661 10.2614C116.661 8.75693 117.296 7.31402 118.426 6.2502C119.557 5.18637 121.09 4.58874 122.688 4.58874C124.287 4.58874 125.82 5.18637 126.95 6.2502C128.08 7.31402 128.715 8.75693 128.715 10.2614C128.659 11.1334 128.418 11.9859 128.008 12.7695C127.598 13.5531 127.026 14.2521 126.326 14.8257C124.734 16.204 122.947 17.3675 121.014 18.283C116.842 20.5433 111.659 23.3318 111.512 29.8552L115.021 31.7229C116.765 30.555 118.792 29.8178 120.917 29.5789C121.923 29.6232 122.894 29.9348 123.719 30.4777C125.235 31.434 127.011 31.9619 128.836 31.9992C131.556 31.8322 134.195 31.0573 136.534 29.7389L134.488 26.1883C132.799 27.1421 130.904 27.7253 128.943 27.8946Z" fill="white"/>
<path d="M110.568 4.03482C110.568 2.69812 110.545 1.33816 110.593 0C108.878 0.0433415 107.202 0.486401 105.714 1.28949C104.226 2.09256 102.974 3.23059 102.068 4.60149C101.163 5.97238 100.633 7.53331 100.526 9.14438C100.419 10.7555 100.739 12.3663 101.456 13.8325C101.911 14.7375 102.502 15.5761 103.21 16.3226L106.23 13.4412C105.872 13.0493 105.569 12.6158 105.329 12.1511C104.911 11.2995 104.722 10.3643 104.779 9.42795C104.835 8.49149 105.135 7.58245 105.653 6.78087C106.17 5.97929 106.889 5.30975 107.746 4.83115C108.603 4.35256 109.573 4.07955 110.568 4.03624V4.03482Z" fill="white"/>
<path d="M9.06864 15.009C5.92524 13.6257 2.97804 12.3108 2.97804 8.99159C3.00189 8.26917 3.17874 7.55854 3.49815 6.90126C3.81757 6.24398 4.27307 5.65332 4.83814 5.16389C5.40322 4.67445 6.06655 4.29609 6.78898 4.05098C7.51142 3.80587 8.27853 3.69893 9.04544 3.73645C11.1774 3.80028 13.2015 4.63353 14.6986 6.06364L14.9908 6.36336L16.227 4.33426L16.0817 4.17279C15.155 3.30034 14.0529 2.61041 12.8398 2.14317C11.6266 1.67592 10.3267 1.44076 9.01601 1.45141C7.93377 1.42099 6.85598 1.59409 5.84573 1.96064C4.83547 2.32719 3.91304 2.87979 3.13255 3.58606C2.35206 4.29233 1.72921 5.13807 1.30037 6.07377C0.871534 7.00946 0.645397 8.01629 0.635188 9.03527C0.635188 13.7392 4.34422 15.3988 7.94353 17.0119C11.2569 18.5333 14.3756 19.9399 14.3756 23.6736C14.403 24.3783 14.2742 25.0807 13.9973 25.736C13.7205 26.3913 13.3017 26.9851 12.7675 27.4796C12.2334 27.9741 11.5957 28.3585 10.895 28.6083C10.1943 28.858 9.44596 28.9677 8.69775 28.9302C7.3837 28.8935 6.09105 28.6069 4.89776 28.0877C3.70446 27.5685 2.63513 26.8275 1.75408 25.9092L1.50996 25.6329L0 27.4073L0.145261 27.592C1.20644 28.7238 2.51146 29.6299 3.97356 30.25C5.43565 30.8702 7.02139 31.1904 8.62512 31.1891C9.70344 31.2366 10.7803 31.0717 11.7871 30.705C12.7939 30.3384 13.7084 29.7781 14.472 29.06C15.2356 28.3419 15.8316 27.4816 16.2219 26.5343C16.6122 25.5871 16.7882 24.5736 16.7386 23.5586C16.7448 18.3981 12.6757 16.6002 9.06864 15.009Z" fill="white"/>
<path d="M39.9379 15.1913H23.493V1.93481H21.2026V30.7343H23.493V17.3861H39.9379V30.7343H42.2034V1.93481H39.9379V15.1913Z" fill="white"/>
<path d="M60.6241 1.45312C52.8274 1.45312 46.7153 7.90833 46.7153 16.1438C46.7153 24.58 52.8305 31.2214 60.6241 31.2214C68.2987 31.2214 74.533 24.4666 74.533 16.1438C74.5608 7.90833 68.4455 1.45312 60.6241 1.45312ZM60.6241 28.98C54.1441 28.98 49.0519 23.332 49.0519 16.1394C49.0519 9.1577 54.1519 3.69021 60.6241 3.69021C67.0964 3.69021 72.1962 9.15479 72.1962 16.1394C72.1977 23.3305 67.1057 28.98 60.6241 28.98Z" fill="white"/>
<path d="M88.2273 1.9375H79.0676V30.737H81.358V19.0485H88.2289C93.2484 19.0485 96.7287 15.5198 96.7287 10.4493C96.7287 5.37888 93.3195 1.9375 88.2273 1.9375ZM81.3563 4.15124H88.1562C92.0553 4.15124 94.3704 6.50323 94.3704 10.4682C94.3704 14.41 91.9827 16.8769 88.1562 16.8769H81.3563V4.15124Z" fill="white"/>
<path d="M154.742 19.4104H159.842V24.1828C159.378 24.782 156.09 28.9085 150.925 28.9085C144.589 28.9085 139.798 23.4686 139.798 16.2542C139.798 9.06157 144.695 3.62167 151.151 3.62167C154.135 3.61964 157.025 4.60744 159.312 6.41149L159.579 6.64124L160.944 4.82015L160.774 4.6355C158.135 2.43114 154.7 1.25973 151.174 1.36132C143.476 1.36132 137.458 7.88634 137.458 16.2309C137.458 24.5755 143.379 31.1005 150.956 31.1005C152.762 31.0898 154.544 30.7039 156.173 29.9705C157.803 29.2371 159.24 28.1741 160.383 26.8576C161.03 26.1793 161.609 25.4465 162.114 24.6685L162.162 24.5988V17.1981H156.444L154.742 19.4104Z" fill="white"/>
<path d="M168.921 17.2449H179.642V15.0312H168.921V4.05825H181.98V1.86768H166.631V30.6672H182.711V28.4316H168.921V17.2449Z" fill="white"/>
<path d="M186.586 4.05825H196.631V30.6629H198.897V4.05825H208.942V1.86768H186.586V4.05825Z" fill="white"/>
<path d="M231.876 15.1242H215.454V1.86768H213.164V30.6672H215.454V17.3191H231.876V30.6672H234.142V1.86768H231.876V15.1242Z" fill="white"/>
<path d="M240.94 17.2449H251.661V15.0312H240.94V4.05825H253.999V1.86768H238.675V30.6672H254.729V28.4316H240.939L240.94 17.2449Z" fill="white"/>
<path d="M277.268 28.5173C273.467 28.5173 272.761 26.142 271.859 23.1458C271.48 21.2356 270.6 19.4447 269.299 17.9357L269.91 17.8207C273.273 17.0601 275.538 13.8325 275.538 9.77433C275.633 8.37887 275.32 6.98546 274.633 5.74577C273.946 4.50608 272.91 3.46761 271.639 2.74324C270.092 2.02439 268.366 1.71368 266.646 1.84428H258.455V30.6685H260.721V18.1597H264.401C268.176 18.2746 268.882 20.6731 269.785 23.6694C270.687 26.7356 271.808 30.5405 277.24 30.5405H278.799V28.5348L277.268 28.5173ZM260.749 4.05083H266.595C267.833 3.93853 269.081 4.12108 270.225 4.58172C271.187 5.09696 271.977 5.85649 272.502 6.77363C273.028 7.69076 273.269 8.72863 273.199 9.76859C273.199 13.5271 271.055 15.9474 267.765 15.9474H260.776V4.05083H260.749Z" fill="white"/>
</g>
<defs>
<clipPath id="clip0_145_10377">
<rect width="279" height="32" fill="white"/>
</clipPath>
</defs>
</svg>
