<svg width="150" height="17" viewBox="0 0 150 17" fill="none" xmlns="http://www.w3.org/2000/svg">
<g clip-path="url(#clip0_9_644)">
<path d="M69.3241 14.8191C68.7376 14.8004 68.1693 14.6261 67.6865 14.3168C66.9075 13.837 65.9999 13.5693 65.0666 13.5441C64.629 13.5458 64.1935 13.5993 63.7704 13.7032L62.7349 13.949L63.508 13.2628C64.3344 12.5965 65.2446 12.0256 66.2188 11.5628C67.4467 10.9787 68.5801 10.2365 69.5854 9.35825C70.1725 8.8573 70.6456 8.2528 70.9784 7.5799C71.3112 6.90705 71.4967 6.1793 71.5241 5.43905C71.5215 4.66757 71.3327 3.90643 70.972 3.21162C70.6112 2.51681 70.0881 1.90594 69.4403 1.42392C68.7924 0.941885 68.037 0.60092 67.229 0.426092C66.4209 0.251266 65.5811 0.247022 64.7709 0.413641C63.9612 0.58026 63.2016 0.91354 62.5483 1.38897C61.8946 1.8644 61.3645 2.4699 60.9956 3.16101C60.6268 3.85213 60.4295 4.61128 60.4177 5.3827C60.4059 6.15415 60.5795 6.91825 60.9268 7.6189C61.1682 8.10425 61.4908 8.5508 61.8827 8.94175L63.4935 7.411C63.301 7.20565 63.1419 6.97465 63.0225 6.7256C62.8252 6.3258 62.7225 5.8913 62.7209 5.4514C62.7209 4.65217 63.0623 3.88563 63.6698 3.32047C64.2779 2.75531 65.1021 2.43782 65.9612 2.43782C66.8209 2.43782 67.6451 2.75531 68.2526 3.32047C68.8602 3.88563 69.2016 4.65217 69.2016 5.4514C69.1715 5.91465 69.0419 6.36755 68.8215 6.78385C68.601 7.20015 68.2935 7.5715 67.9172 7.8762C67.0612 8.60845 66.1005 9.22655 65.0612 9.7129C62.8182 10.9137 60.0317 12.3951 59.9526 15.8607L61.8392 16.8529C62.7768 16.2324 63.8666 15.8408 65.0091 15.7139C65.5499 15.7374 66.072 15.9029 66.5155 16.1914C67.3306 16.6994 68.2854 16.9798 69.2666 16.9997C70.729 16.9109 72.1478 16.4993 73.4053 15.7989L72.3053 13.9126C71.3973 14.4193 70.3784 14.7291 69.3241 14.8191Z" fill="#C0C4CE"/>
<path d="M59.4452 2.1435C59.4452 1.43338 59.4328 0.710895 59.4586 0C58.5366 0.0230251 57.6355 0.2584 56.8355 0.68504C56.0355 1.11168 55.3624 1.71625 54.8753 2.44454C54.3887 3.17283 54.1038 4.00207 54.0462 4.85795C53.9887 5.71385 54.1608 6.5696 54.5462 7.3485C54.7909 7.8293 55.1086 8.2748 55.4893 8.6714L57.1129 7.14065C56.9204 6.93245 56.7575 6.70215 56.6285 6.45525C56.4038 6.00285 56.3022 5.50605 56.3328 5.0086C56.3629 4.51111 56.5242 4.02817 56.8027 3.60233C57.0807 3.1765 57.4672 2.82081 57.928 2.56655C58.3887 2.31229 58.9102 2.16726 59.4452 2.14425V2.1435Z" fill="white"/>
<path d="M4.87561 7.97355C3.18561 7.2387 1.6011 6.54015 1.6011 4.77682C1.61392 4.39304 1.709 4.01551 1.88073 3.66633C2.05246 3.31715 2.29735 3.00337 2.60115 2.74336C2.90496 2.48334 3.26159 2.28234 3.64999 2.15212C4.0384 2.02191 4.45082 1.9651 4.86314 1.98503C6.00936 2.01894 7.09758 2.4616 7.90247 3.22135L8.05957 3.38057L8.72419 2.30262L8.64608 2.21683C8.14785 1.75335 7.55532 1.38682 6.90312 1.1386C6.25086 0.890371 5.55199 0.765441 4.84732 0.771101C4.26547 0.754941 3.68601 0.846901 3.14287 1.04163C2.59972 1.23636 2.10379 1.52993 1.68417 1.90513C1.26455 2.28034 0.929683 2.72964 0.699124 3.22673C0.468567 3.72381 0.346988 4.25869 0.341499 4.80003C0.341499 7.299 2.3356 8.18065 4.27072 9.0376C6.0521 9.84585 7.72882 10.5931 7.72882 12.5767C7.74355 12.951 7.6743 13.3242 7.52543 13.6723C7.37661 14.0204 7.15145 14.3359 6.86425 14.5986C6.5771 14.8613 6.23425 15.0655 5.85753 15.1982C5.48081 15.3309 5.07847 15.3891 4.67621 15.3692C3.96973 15.3497 3.27476 15.1975 2.6332 14.9216C1.99165 14.6458 1.41674 14.2522 0.943054 13.7643L0.811807 13.6175L0 14.5602L0.0780973 14.6583C0.648624 15.2596 1.35025 15.7409 2.13632 16.0704C2.92239 16.3999 3.77494 16.57 4.63716 16.5693C5.2169 16.5945 5.79586 16.5069 6.33715 16.3121C6.87844 16.1173 7.37011 15.8197 7.78065 15.4382C8.19118 15.0567 8.51161 14.5997 8.72145 14.0964C8.93129 13.5932 9.02592 13.0548 8.99925 12.5156C9.00258 9.774 6.81489 8.8189 4.87561 7.97355Z" fill="#C0C4CE"/>
<path d="M21.4719 8.07035H12.6306V1.02783H11.3992V16.3276H12.6306V9.23635H21.4719V16.3276H22.6899V1.02783H21.4719V8.07035Z" fill="#C0C4CE"/>
<path d="M32.5936 0.771973C28.4018 0.771973 25.1157 4.2013 25.1157 8.5764C25.1157 13.0581 28.4035 16.5863 32.5936 16.5863C36.7197 16.5863 40.0715 12.9979 40.0715 8.5764C40.0864 4.2013 36.7986 0.771973 32.5936 0.771973ZM32.5936 15.3956C29.1097 15.3956 26.372 12.3951 26.372 8.57405C26.372 4.86503 29.1139 1.96042 32.5936 1.96042C36.0733 1.96042 38.8151 4.86348 38.8151 8.57405C38.8159 12.3943 36.0783 15.3956 32.5936 15.3956Z" fill="#C0C4CE"/>
<path d="M47.4341 1.0293H42.5095V16.3291H43.7409V10.1195H47.435C50.1336 10.1195 52.0047 8.2449 52.0047 5.5512C52.0047 2.85753 50.1718 1.0293 47.4341 1.0293ZM43.74 2.20535H47.3959C49.4922 2.20535 50.7368 3.45484 50.7368 5.56125C50.7368 7.6553 49.4531 8.96585 47.3959 8.96585H43.74V2.20535Z" fill="#C0C4CE"/>
<path d="M83.1946 10.3118H85.9365V12.8471C85.687 13.1655 83.9193 15.3577 81.1424 15.3577C77.736 15.3577 75.1602 12.4677 75.1602 8.63505C75.1602 4.81397 77.793 1.92402 81.2639 1.92402C82.8682 1.92294 84.422 2.44771 85.6516 3.40611L85.7951 3.52816L86.529 2.56071L86.4376 2.46262C85.0188 1.29155 83.172 0.669239 81.2763 0.723209C77.1376 0.723209 73.9021 4.18962 73.9021 8.6227C73.9021 13.0558 77.0854 16.5222 81.1591 16.5222C82.1301 16.5165 83.0881 16.3115 83.9639 15.9219C84.8403 15.5322 85.6129 14.9675 86.2274 14.2681C86.5752 13.9078 86.8865 13.5185 87.158 13.1052L87.1838 13.0681V9.1365H84.1096L83.1946 10.3118Z" fill="#C0C4CE"/>
<path d="M90.8176 9.16135H96.5816V7.9853H90.8176V2.15593H97.8386V0.992188H89.5864V16.292H98.2316V15.1043H90.8176V9.16135Z" fill="#C0C4CE"/>
<path d="M100.315 2.15593H105.715V16.2896H106.934V2.15593H112.334V0.992188H100.315V2.15593Z" fill="#C0C4CE"/>
<path d="M124.664 8.0347H115.835V0.992188H114.604V16.292H115.835V9.20075H124.664V16.292H125.883V0.992188H124.664V8.0347Z" fill="#C0C4CE"/>
<path d="M129.538 9.16135H135.302V7.9853H129.538V2.15593H136.559V0.992188H128.32V16.292H136.951V15.1043H129.537L129.538 9.16135Z" fill="#C0C4CE"/>
<path d="M149.069 15.1499C147.025 15.1499 146.645 13.888 146.161 12.2963C145.957 11.2815 145.484 10.3301 144.784 9.5284L145.113 9.4673C146.921 9.0632 148.139 7.34855 148.139 5.19265C148.19 4.45131 148.021 3.71106 147.652 3.05248C147.283 2.39389 146.726 1.84221 146.042 1.45738C145.211 1.0755 144.283 0.910432 143.358 0.979812H138.954V16.2927H140.172V9.6474H142.151C144.18 9.7084 144.56 10.9826 145.046 12.5744C145.53 14.2033 146.133 16.2247 149.054 16.2247H149.892V15.1592L149.069 15.1499ZM140.187 2.15204H143.33C143.996 2.09238 144.667 2.18936 145.282 2.43408C145.799 2.7078 146.224 3.1113 146.506 3.59853C146.789 4.08576 146.919 4.63712 146.881 5.1896C146.881 7.1863 145.728 8.4721 143.959 8.4721H140.202V2.15204H140.187Z" fill="#C0C4CE"/>
</g>
<defs>
<clipPath id="clip0_9_644">
<rect width="150" height="17" fill="white"/>
</clipPath>
</defs>
</svg>
