<svg width="80" height="22" viewBox="0 0 80 22" fill="none" xmlns="http://www.w3.org/2000/svg">
<g clip-path="url(#clip0_9_670)">
<path d="M51.2617 0H46.1826V21.5539H51.2617V0Z" fill="#C0C4CE"/>
<path d="M60.852 16.0898V21.6654L46.2151 13.5727V7.99707L60.852 16.0898Z" fill="#C0C4CE"/>
<path d="M46.1826 13.3975V19.1803L60.9494 11.0876V5.30481L46.1826 13.3975Z" fill="#C405F2"/>
<path d="M20.2677 4.63574L17.6227 13.8276L14.9939 4.71539L15.0101 4.63574H14.9615H10.1582H10.1095L10.142 4.71539L7.51318 13.8276L4.85193 4.63574H0L2.22312 12.4257L2.25558 12.3461L4.88438 21.5539H5.35497H5.3712H9.88235H9.89858H10.1258L12.5761 13.0789L14.9939 21.5539H15.4645H15.4807H19.9919H20.0081H20.2353L25.1197 4.63574H20.2677Z" fill="#C0C4CE"/>
<path d="M31.1723 16.265C32.0161 17.1253 33.0709 17.5713 34.3528 17.5713C35.6348 17.5713 36.6895 17.1412 37.5334 16.2331C38.3772 15.341 38.8315 14.2896 38.8315 13.047C38.8315 11.8045 38.3934 10.7531 37.5334 9.89281C36.6895 9.03256 35.6348 8.58651 34.3528 8.58651C33.0709 8.58651 32.0161 9.01663 31.1723 9.89281C30.3447 10.7531 29.939 11.8045 29.939 13.047C29.939 14.2896 30.3447 15.3729 31.1723 16.265ZM38.8315 4.65168H43.505V21.5699H38.8315V19.8334C37.3549 21.2831 35.5861 22 33.509 22C31.4319 22 28.9979 21.1397 27.3914 19.4352C25.7849 17.6987 24.9897 15.5641 24.9897 12.9993C24.9897 10.4344 25.8173 8.36348 27.4238 6.69078C29.0303 5.01808 31.0749 4.1897 33.509 4.1897C35.9431 4.1897 37.3549 4.93843 38.8315 6.41997V4.65168Z" fill="#C0C4CE"/>
<path d="M67.0832 11.2788H75.213C74.7424 9.33524 73.282 8.12453 71.2374 8.12453C69.1927 8.12453 67.6187 9.30338 67.067 11.2788M79.8378 14.7516H67.1319C67.7323 16.8863 69.3063 17.9377 71.8378 17.9377C74.3692 17.9377 75.5863 17.3801 77.2252 16.2969L79.1725 19.6104C77.0629 21.1875 74.5315 21.9681 71.6106 21.9681C68.6897 21.9681 66.2232 21.1079 64.5842 19.4033C62.9777 17.6987 62.1501 15.5959 62.1501 13.0948C62.1501 10.5938 62.994 8.42721 64.6654 6.7545C66.3368 5.04994 68.5437 4.22156 71.2536 4.22156C73.9635 4.22156 75.8946 5.00215 77.5335 6.51555C79.1725 8.02894 80 10.0999 80 12.7444C80 15.3888 79.9351 14.0188 79.8378 14.7835" fill="#C0C4CE"/>
</g>
<defs>
<clipPath id="clip0_9_670">
<rect width="80" height="22" fill="white"/>
</clipPath>
</defs>
</svg>
