<svg width="142" height="40" viewBox="0 0 142 40" fill="none" xmlns="http://www.w3.org/2000/svg">
<g clip-path="url(#clip0_145_10390)">
<path d="M90.9895 0H81.9741V39.189H90.9895V0Z" fill="white"/>
<path d="M108.012 29.254V39.3916L82.0317 24.6776V14.54L108.012 29.254Z" fill="white"/>
<path d="M81.9741 24.359V34.8731L108.185 20.1591V9.64502L81.9741 24.359Z" fill="#C405F2"/>
<path d="M35.9753 8.42871L31.2803 25.1412L26.6142 8.57353L26.643 8.42871H26.5566H18.0308H17.9444L18.002 8.57353L13.3359 25.1412L8.61217 8.42871H0L3.94604 22.5924L4.00365 22.4475L8.66978 39.189H9.50507H9.53387H17.5412H17.57H17.9732L22.3225 23.7799L26.6142 39.189H27.4495H27.4783H35.4856H35.5144H35.9176L44.5874 8.42871H35.9753Z" fill="white"/>
<path d="M55.331 29.5728C56.8287 31.1369 58.7009 31.9479 60.9764 31.9479C63.2519 31.9479 65.1241 31.1658 66.6218 29.5149C68.1196 27.8928 68.9261 25.9812 68.9261 23.7219C68.9261 21.4627 68.1484 19.5511 66.6218 17.987C65.1241 16.4229 63.2519 15.6119 60.9764 15.6119C58.7009 15.6119 56.8287 16.3939 55.331 17.987C53.862 19.5511 53.1419 21.4627 53.1419 23.7219C53.1419 25.9812 53.862 27.9508 55.331 29.5728ZM68.9261 8.45765H77.2214V39.218H68.9261V36.0608C66.305 38.6966 63.1655 40 59.4786 40C55.7918 40 51.4713 38.4359 48.6198 35.3367C45.7683 32.1796 44.3569 28.2983 44.3569 23.6351C44.3569 18.9718 45.8259 15.2064 48.6774 12.1651C51.5289 9.12383 55.1582 7.61768 59.4786 7.61768C63.7991 7.61768 66.305 8.97901 68.9261 11.6727V8.45765Z" fill="white"/>
<path d="M119.073 20.5071H133.503C132.668 16.9734 130.075 14.7721 126.446 14.7721C122.817 14.7721 120.023 16.9155 119.044 20.5071M141.712 26.8213H119.159C120.225 30.7026 123.019 32.6142 127.512 32.6142C132.005 32.6142 134.165 31.6005 137.075 29.6309L140.531 35.6555C136.787 38.523 132.293 39.9423 127.109 39.9423C121.924 39.9423 117.546 38.3782 114.637 35.279C111.785 32.1798 110.316 28.3564 110.316 23.809C110.316 19.2616 111.814 15.3224 114.781 12.2811C117.748 9.18194 121.665 7.67578 126.475 7.67578C131.285 7.67578 134.713 9.09504 137.622 11.8467C140.531 14.5983 142 18.3637 142 23.1718C142 27.9799 141.885 25.489 141.712 26.8793" fill="white"/>
</g>
<defs>
<clipPath id="clip0_145_10390">
<rect width="142" height="40" fill="white"/>
</clipPath>
</defs>
</svg>
