<svg width="395" height="64" viewBox="0 0 395 64" fill="none" xmlns="http://www.w3.org/2000/svg">
<rect width="64" height="64" rx="15" fill="#000109"/>
<path d="M20.1124 63.9718C18.3054 63.9758 15.1149 64.0674 13.4243 63.8975C10.0192 63.5265 6.84722 62.0315 4.43657 59.6591C2.01345 57.3166 0.482312 54.2395 0.0956127 50.9348C-0.016099 49.9016 0.0100585 48.7303 0.0102629 47.6798L0.0121712 24.5934L0.0119675 17.9375C0.0126486 15.7433 -0.105943 13.5874 0.389267 11.4417C1.04087 8.73645 2.45879 6.26376 4.48173 4.30489C6.54683 2.30693 9.15563 0.926387 12.0001 0.326297C13.9419 -0.0840717 16.0699 0.00829843 18.0636 0.0101565L24.4962 0.0142716L48.4556 0.00690413C52.7667 0.0182516 56.49 1.33204 59.5702 4.35778C61.6137 6.35275 63.0326 8.87276 63.6607 11.6236C64.1041 13.614 63.9869 15.9784 63.9835 18.038L63.9795 24.8266L63.9808 49.3349C63.9522 52.6416 62.9032 55.7518 60.7562 58.3372C59.5055 54.8208 57.1357 50.0237 53.5719 48.3461C53.5099 48.3169 53.4479 48.2884 53.3852 48.2598L53.3955 47.6042C54.3137 47.9493 54.7373 48.1988 55.3293 48.9666C59.7971 46.0879 59.8454 40.3796 56.0534 36.972C55.4308 36.4126 54.0065 35.4312 53.5957 34.8087C53.1094 34.0715 53.1189 32.1908 52.6646 31.3151C51.153 27.2979 48.1648 28.1574 44.7862 29.3816C44.7208 28.9216 44.6785 28.4611 44.6315 27.9989C44.9803 27.6826 45.7541 26.9914 45.9087 26.6035C46.4925 25.1412 47.1246 24.8518 48.2526 23.8792C48.474 23.6882 48.6709 23.4723 48.8405 23.236C50.104 21.4467 48.835 18.9053 49.9072 16.9953C50.1136 16.6264 50.4426 15.6576 50.5666 15.2518C51.5679 11.9712 51.7245 8.43392 51.1905 5.0594C51.0747 4.41286 50.8186 3.14937 50.1933 2.7972C48.6375 1.92099 46.049 4.2378 45.0879 5.14965C42.9845 7.14495 41.2202 9.3406 39.4608 11.6056C38.6284 12.6765 37.8226 13.7483 37.106 14.8899C36.3553 16.107 36.2845 17.639 35.6312 18.8814C35.619 18.9006 35.606 18.9199 35.5938 18.9391C31.4727 18.5594 29.1501 18.5259 25.1512 19.9171C23.8528 18.6552 21.246 16.2891 19.4506 15.9198C17.9881 15.619 15.3389 17.4649 13.8989 18.04C13.1294 18.3472 11.0387 19.0878 10.46 19.4454C9.20999 20.218 9.53811 23.5839 9.46659 24.8455C9.42518 25.603 9.2792 26.6731 9.71726 27.1844C10.7915 27.6717 12.6611 24.7392 13.1945 23.9304C13.8222 24.5076 14.2102 24.7599 14.9472 25.2043C16.0976 28.2745 16.2189 27.314 18.7184 28.9619C18.65 29.832 18.334 30.4518 18.2419 31.3096C18.1712 31.9679 18.7102 32.6115 18.7545 33.1497C18.8624 34.6899 18.9331 36.2746 20.0216 37.5155C20.9521 38.5766 21.0165 38.9018 21.1247 40.2409C21.9291 39.2893 22.4705 38.0657 23.2777 37.0729C24.0894 36.0755 25.0784 35.7477 25.4826 34.3654C26.0504 32.4237 26.0176 29.728 25.7443 27.704C25.7132 27.4742 25.1653 26.4963 25.0395 26.2626C25.2361 24.9276 25.6303 24.1846 26.3212 23.0603C26.2998 23.3859 26.3011 23.7422 26.2953 24.0708C27.1988 23.0856 27.2864 22.155 28.5511 21.0887C30.6369 19.3299 32.6143 19.4638 35.1953 19.597L34.7423 20.2932C35.2253 20.773 35.7968 21.1872 36.3546 21.7467C36.1278 21.7165 35.5815 21.6139 35.4071 21.7375C35.4392 22.0629 35.5427 21.9511 35.3853 22.2201C35.1503 22.3441 35.0897 22.4011 34.882 22.5714C35.1708 23.9046 35.0155 24.3689 33.7137 25.0099C32.1866 24.8055 32.3678 24.8216 30.8658 25.1142L30.7697 24.9903C30.0783 25.2037 28.5435 26.9473 28.4125 27.6415C28.2442 28.533 28.3886 28.5645 27.8658 29.5568C27.3345 30.5657 27.9281 32.3196 28.0791 33.378C28.1743 34.3024 27.9727 34.6534 28.3983 35.6316C28.6847 35.7855 28.7976 35.8831 29.0217 36.1206C29.5393 36.6708 30.2179 37.0537 30.8222 37.5414C32.1981 38.6543 32.9175 40.1208 33.0632 41.8481C33.1416 42.7752 33.0952 44.2709 32.4509 45.0109L32.3759 45.0062C32.3323 44.7706 32.3221 44.6771 32.2268 44.4508L32.1001 44.4216C31.5504 44.7753 31.1369 45.9591 30.2806 46.492C29.1084 47.222 28.054 47.135 26.7611 46.9326C26.0368 46.7986 24.4671 46.6002 24.0036 45.9731C23.627 45.4641 24.8265 45.0892 25.1716 44.9107C26.4272 43.4268 27.4542 41.4858 25.0135 40.4791C24.3514 40.3219 23.9559 40.3345 23.2753 40.3305C22.8652 40.4081 22.6657 40.3504 22.2901 40.3464C21.7107 40.3405 20.9442 40.8567 20.6176 41.3246C19.8845 42.3737 20.115 44.4103 20.5515 45.5464C20.9279 46.5259 21.7409 47.5611 22.9195 47.1516C22.9469 47.1463 22.9742 47.141 23.0016 47.1357C24.6998 47.8497 24.865 47.4907 26.603 47.4489C27.0091 47.439 27.9011 47.5936 28.6333 47.5763C26.8064 48.5943 24.5863 48.9871 22.868 47.5047C21.5045 50.1995 22.4134 51.68 24.4501 53.5912C21.9775 56.6762 20.704 60.1329 20.1124 63.9718Z" fill="#FEB600"/>
<path d="M26.7611 46.9326C26.0368 46.7986 24.4671 46.6002 24.0036 45.9731C23.627 45.4641 24.8265 45.0892 25.1716 44.9106C25.4358 45.1515 26.5923 46.6075 26.7611 46.9326Z" fill="#AB7B00"/>
<path d="M23.2753 40.3305C23.9248 40.0286 24.2835 38.9024 24.9838 38.8892C25.481 39.2017 24.9999 39.9323 25.0135 40.4792C24.3514 40.3219 23.956 40.3345 23.2753 40.3305Z" fill="#AB7B00"/>
<path d="M4.05495 31.6898C5.09224 32.1875 6.11991 32.7662 7.14228 33.2964C7.50255 33.4829 7.99313 33.7662 7.9528 34.2088C7.59301 34.6229 5.38922 35.6787 4.79259 35.9873C4.51631 36.1499 4.25092 36.3901 3.95053 36.2341C3.84522 36.0205 3.8914 35.7743 3.90755 35.5301C4.80383 35.0078 5.811 34.5101 6.74073 34.031C6.22168 33.7496 5.67307 33.5101 5.1564 33.2307C4.46106 32.8551 3.56553 32.5923 4.05495 31.6898Z" fill="#AB7B00"/>
<path d="M8.00253 45.19L12.1006 45.1814C12.7298 45.1801 13.3624 45.1695 13.9903 45.202C14.4144 45.2245 14.2807 45.7362 14.2006 45.989C12.2598 46.0514 10.0149 46.0321 8.06724 45.9525C7.78619 45.9412 7.93346 45.3546 8.00253 45.19Z" fill="#AB7B00"/>
<path d="M3.94126 48.5744C4.62263 48.573 9.16371 48.5067 9.41656 48.6693C9.49156 48.9719 9.46043 49.0535 9.41799 49.3713C7.6992 49.3813 5.90963 49.4005 4.18955 49.3587C3.96851 49.3534 4.01721 49.3521 3.89985 49.2167C3.84392 48.9327 3.87771 48.867 3.94126 48.5744Z" fill="#AB7B00"/>
<path d="M8.88276 36.3091C10.182 36.2965 11.5354 36.2328 12.8235 36.3403C13.178 36.3702 13.0472 36.9369 12.9558 37.1472C11.6852 37.1585 10.3002 37.2109 9.02963 37.122C8.66295 37.0961 8.81042 36.5361 8.88276 36.3091Z" fill="#AB7B00"/>
<path d="M11.8466 48.5797C12.4034 48.575 15.834 48.4908 16.0958 48.6892C16.1747 48.9287 16.1332 49.1059 16.1087 49.3574C15.5493 49.3793 12.1543 49.4709 11.8888 49.2705C11.7668 49.0395 11.821 48.8464 11.8466 48.5797Z" fill="#AB7B00"/>
<path d="M7.96255 41.7984C8.48412 41.7838 11.5749 41.7108 11.8441 41.8793C11.9334 42.1693 11.8983 42.2861 11.8689 42.5967C11.2525 42.6053 8.36743 42.7971 7.96698 42.4626C7.87182 42.1999 7.918 42.0857 7.96255 41.7984Z" fill="#AB7B00"/>
<path d="M56.7911 23.3171C57.7522 23.3005 58.7167 23.2789 59.6779 23.2765C60.0634 23.2756 60.547 23.2613 60.7282 23.6288C60.7228 23.8656 60.6928 23.8707 60.5538 24.062C59.5232 24.0777 58.4565 24.1101 57.4252 24.0807C57.037 24.0697 56.695 24.041 56.5833 23.6521C56.6399 23.4465 56.6283 23.4565 56.7911 23.3171Z" fill="#AB7B00"/>
<path d="M55.9042 31.5146C56.4763 31.5154 58.9987 31.4329 59.2984 31.6713C59.3713 31.9002 59.3298 32.0163 59.2909 32.2525C58.7984 32.2884 56.2877 32.3859 55.9798 32.1902C55.8531 31.9533 55.8926 31.7947 55.9042 31.5146Z" fill="#AB7B00"/>
<path d="M4.01442 41.7639C4.56978 41.7586 5.12868 41.736 5.68335 41.738C6.08817 41.74 6.4372 41.7254 6.61253 42.1056C6.58944 42.3585 6.59864 42.4135 6.47044 42.6418C5.83689 42.6538 4.65765 42.748 4.04153 42.5655C3.88241 42.5191 3.85748 42.3863 3.81525 42.2596C3.86334 42.02 3.85911 41.961 4.01442 41.7639Z" fill="#AB7B00"/>
<path d="M9.41903 51.9839C10.0255 51.9779 11.5693 51.8028 11.9015 52.2978C11.9009 52.617 11.9361 52.682 11.6344 52.8161C10.999 52.8293 9.68598 52.9488 9.21264 52.6767C9.02273 52.3529 9.07865 52.1478 9.41903 51.9839Z" fill="#AB7B00"/>
<path d="M56.3782 20.1042C57.056 20.1162 58.7439 19.9014 59.1356 20.3732C59.1731 20.6206 59.1438 20.6563 59.0552 20.8856C58.385 20.8796 56.6616 21.1059 56.2788 20.6397C56.2434 20.38 56.2774 20.3418 56.3782 20.1042Z" fill="#AB7B00"/>
<path d="M3.94227 45.1947C4.55811 45.1934 6.1528 44.9677 6.52574 45.4137C6.60026 45.6353 6.55237 45.7581 6.50816 45.9877C5.85145 46.0009 4.28061 46.2033 3.88308 45.7581C3.83962 45.4946 3.86475 45.4601 3.94227 45.1947Z" fill="#AB7B00"/>
<path d="M52.7898 20.1052C53.4744 20.0906 54.4873 19.9294 54.9921 20.2168C55.1385 20.4783 55.0826 20.575 55.0752 20.9032C54.396 20.9088 53.3307 21.0872 52.8518 20.7687C52.7122 20.5561 52.7674 20.3673 52.7898 20.1052Z" fill="#AB7B00"/>
<path d="M55.1951 26.5505C55.7441 26.5446 57.2747 26.3329 57.5996 26.7339C57.6555 26.9574 57.616 27.0443 57.5649 27.2672C57.0023 27.2652 55.4649 27.4525 55.1277 27.0649C55.0636 26.8521 55.1215 26.7622 55.1951 26.5505Z" fill="#AB7B00"/>
<path d="M52.8416 23.3037C53.394 23.3015 54.5078 23.096 54.8238 23.5695C54.8293 23.8284 54.8299 23.8168 54.7414 24.0616C54.189 24.0894 53.0582 24.2877 52.7606 23.8003C52.7558 23.541 52.7565 23.5513 52.8416 23.3037Z" fill="#AB7B00"/>
<path d="M6.52798 52.0125C6.97469 51.9932 7.38359 51.8804 7.70858 52.1923C7.78923 52.4398 7.7425 52.5553 7.69427 52.8094C7.30975 52.8293 6.88007 52.915 6.59153 52.6966C6.45952 52.473 6.50958 52.2779 6.52798 52.0125Z" fill="#AB7B00"/>
<path d="M52.8424 26.5299C53.2408 26.5163 53.5542 26.4347 53.8307 26.7467C53.8723 26.9988 53.8498 27.0101 53.7735 27.2484C53.3927 27.2736 53.0569 27.3709 52.7879 27.0801C52.7347 26.8478 52.7804 26.7587 52.8424 26.5299Z" fill="#AB7B00"/>
<path d="M59.7276 34.6435C60.1342 34.6335 60.3604 34.5711 60.6608 34.8014C60.752 35.0151 60.701 35.1392 60.6574 35.3695C60.2746 35.4225 60.0811 35.4949 59.7793 35.2945C59.6574 35.0496 59.6996 34.9282 59.7276 34.6435Z" fill="#AB7B00"/>
<path d="M57.8156 34.6561C58.1671 34.6481 58.5145 34.5692 58.7454 34.8505C58.7726 35.0914 58.7372 35.1538 58.6677 35.3827C58.2876 35.4219 58.0955 35.4982 57.7992 35.2527C57.7189 35.0138 57.7665 34.9023 57.8156 34.6561Z" fill="#AB7B00"/>
<path d="M28.1863 51.9561C28.4995 51.9474 28.5878 51.9249 28.8724 52.0277C28.8876 52.2613 28.434 52.5705 28.3108 52.9588C28.0909 53.6522 28.1417 54.3954 28.1421 55.1174C28.404 55.1831 28.6241 55.2508 28.8676 55.3723C29.5215 55.7001 30.0092 56.2747 30.2172 56.9622C30.4401 57.6855 30.3538 58.4666 29.9778 59.1282C29.5466 59.8714 28.9365 60.2006 28.1265 60.4076C26.8268 60.5384 25.6797 59.8913 25.265 58.6624C25.0155 57.9463 25.081 57.162 25.4459 56.4951C25.8756 55.7153 26.4615 55.3723 27.2935 55.1393C27.2739 53.9309 27.1039 52.7909 28.1863 51.9561Z" fill="#FEB600"/>
<path d="M27.9918 56.4997C28.185 56.5322 28.1757 56.5249 28.3427 56.6225C28.3173 56.7963 27.5517 58.8017 27.4386 59.1057C27.163 59.0619 27.2512 59.1282 27.0991 58.9723C27.1644 58.5741 27.8143 56.9602 27.9918 56.4997Z" fill="#AB7B00"/>
<path d="M26.7415 56.9204C26.9296 57.0989 26.8821 56.9967 26.9234 57.2204C26.8022 57.4354 26.4531 57.6325 26.232 57.7824C26.5016 57.9855 26.8433 58.1766 26.8969 58.4885L26.7484 58.661C26.3383 58.3677 26.0002 58.1142 25.6105 57.7964C25.9145 57.5223 26.4017 57.1766 26.7415 56.9204Z" fill="#AB7B00"/>
<path d="M28.5309 56.9596C28.9296 57.006 29.5022 57.5588 29.794 57.8402L28.8413 58.5316C28.6886 58.6517 28.7501 58.6133 28.5548 58.6723L28.5415 58.4792C28.7283 58.1474 28.8911 58.0499 29.1872 57.8077C28.8319 57.5369 28.5264 57.4181 28.5309 56.9596Z" fill="#AB7B00"/>
<path d="M32.3521 47.4429C35.4337 43.2138 39.2353 39.8023 43.2297 36.4C45.1806 34.7377 47.3753 33.0834 49.0884 31.1824C49.4685 30.7609 49.5966 30.1712 49.5537 29.6166C49.6742 29.628 49.7682 29.697 49.8302 29.7945C50.2948 30.523 49.5475 31.5696 49.0135 32.0893C45.6976 35.3111 41.9075 38.0663 38.5146 41.227C36.3696 43.2006 34.3561 45.3062 32.4863 47.5305L32.3521 47.4429Z" fill="#AB7B00"/>
<path d="M32.316 32.4025C32.5537 32.3839 32.5537 32.3441 32.7274 32.4383C32.8378 32.7887 33.0769 33.5791 33.4011 33.7456C35.1524 34.6475 35.2035 33.3083 35.7355 32.5485L35.8622 32.5545C36.2995 33.0422 35.7089 33.7961 35.367 34.2214C33.1797 36.1598 30.3179 34.0157 30.9455 32.7682C31.25 32.4802 31.8814 32.4589 32.316 32.4025Z" fill="#AB7B00"/>
<path d="M41.8564 49.597C45.5089 47.8623 49.2962 46.4309 53.3954 47.6042L53.3852 48.2598C49.5543 46.9731 45.5852 48.2419 41.9722 49.723C41.9538 49.7317 41.9355 49.7403 41.9171 49.7496L41.8564 49.597Z" fill="#AB7B00"/>
<path d="M20.0213 32.6089C20.3354 32.5883 20.7027 32.5877 21.0218 32.5784C21.1072 34.2175 22.1853 34.6488 23.5323 33.7304C23.3268 34.1292 23.253 34.2679 22.9792 34.6329C22.8352 34.7397 22.6194 34.8724 22.4551 34.9448C21.9633 35.1571 21.4016 35.1531 20.9129 34.9341C20.2202 34.6322 19.326 33.6016 19.6551 32.7257C19.6856 32.6447 19.9191 32.6288 20.0213 32.6089Z" fill="#AB7B00"/>
<path d="M21.8061 43.5569C21.9148 43.5702 21.8673 43.5669 21.9755 43.6883L21.9144 43.8608C21.983 43.7706 21.9586 43.8005 21.9788 43.675L21.8817 43.9332L21.9384 43.8827C21.7326 44.1787 21.5668 44.1196 21.2418 44.1289C21.0997 43.9929 21.0987 43.9995 21.0062 43.8297L21.0801 43.7547C21.4328 43.7268 21.5104 43.7394 21.8061 43.5569Z" fill="#AB7B00"/>
<path d="M32.3521 47.4429L32.4863 47.5305C32.2894 47.794 31.5231 48.934 31.2792 48.9586C31.3603 48.7423 32.1763 47.634 32.3521 47.4429Z" fill="#AB7B00"/>
<path d="M41.9171 49.7496C41.7318 49.8617 40.5581 50.4039 40.3694 50.3714C40.8333 50.0874 41.351 49.8027 41.8564 49.597L41.9171 49.7496Z" fill="#AB7B00"/>
<path d="M81.1463 52.9157V44.1446L119.918 44.2121C121.896 44.2121 123.402 43.7622 124.436 42.8627C125.515 41.9181 126.054 40.4112 126.054 38.3422C126.054 36.2731 125.515 34.7888 124.436 33.8892C123.402 32.9446 121.896 32.4723 119.918 32.4723H95.7784C90.7886 32.4723 86.9002 31.2803 84.1132 28.8964C81.3711 26.4675 80 22.9141 80 18.2361C80 13.5582 81.3711 10.0273 84.1132 7.64337C86.9002 5.21446 90.7886 4 95.7784 4H133.673V12.7711L96.9247 12.7036C94.9917 12.7036 93.4858 13.1534 92.4069 14.053C91.3281 14.9076 90.7886 16.302 90.7886 18.2361C90.7886 20.1703 91.3281 21.5871 92.4069 22.4867C93.4858 23.3414 94.9917 23.7687 96.9247 23.7687H121.064C126.054 23.7687 129.92 25.0056 132.662 27.4795C135.449 29.9084 136.843 33.5293 136.843 38.3422C136.843 43.11 135.449 46.7309 132.662 49.2048C129.92 51.6787 126.054 52.9157 121.064 52.9157H81.1463Z" fill="#000109"/>
<path d="M137.538 52.5783V4.33735H148.327V52.5783H137.538Z" fill="#000109"/>
<path d="M176.027 52.9157C167.441 52.9157 160.788 50.8691 156.068 46.7759C151.348 42.6378 148.988 36.5205 148.988 28.4241C148.988 20.3727 151.348 14.3004 156.068 10.2072C160.788 6.06908 167.599 4 176.499 4H188.636C197.537 4 204.347 6.06908 209.067 10.2072C213.787 14.3004 216.147 20.3727 216.147 28.4241C216.147 36.5205 213.787 42.6378 209.067 46.7759C204.347 50.8691 197.649 52.9157 188.974 52.9157H188.097V60H177.308V52.9157H176.027ZM188.097 35.7108V44.1446C193.896 44.0996 198.189 42.8402 200.976 40.3663C203.763 37.8924 205.157 33.9116 205.157 28.4241C205.157 22.9365 203.74 18.9558 200.908 16.4819C198.121 14.008 193.783 12.7711 187.895 12.7711H177.241C171.397 12.7711 167.059 14.008 164.227 16.4819C161.395 18.9558 159.979 22.9365 159.979 28.4241C159.979 33.9116 161.395 37.9149 164.227 40.4337C167.059 42.9076 171.42 44.1446 177.308 44.1446V35.7108H188.097Z" fill="#000109"/>
<path d="M214.083 52.5783V42.9301H224.872V52.5783H214.083Z" fill="#000109"/>
<path d="M227.719 52.5783V4.33735H235.676L257.253 4.26988C265.974 4.26988 272.739 6.31647 277.549 10.4096C282.359 14.5028 284.764 20.5076 284.764 28.4241C284.764 36.3406 282.359 42.3454 277.549 46.4386C272.739 50.5317 265.974 52.5783 257.253 52.5783H227.719ZM256.512 13.041H238.508V43.8072H256.512C262.176 43.8072 266.469 42.5703 269.39 40.0964C272.312 37.6225 273.773 33.7317 273.773 28.4241C273.773 23.0715 272.312 19.1807 269.39 16.7518C266.469 14.2779 262.176 13.041 256.512 13.041Z" fill="#000109"/>
<path d="M285.458 52.5783V4.33735H338.322V13.1084H296.247V23.7687H334.411V32.5398H296.247V43.8072H338.322V52.5783H285.458Z" fill="#000109"/>
<path d="M356.633 52.5783L334.921 4.33735H346.653L364.522 44.1446H365.399L383.267 4.33735H395L373.288 52.5783H356.633Z" fill="#000109"/>
</svg>
