<svg width="24" height="24" viewBox="0 0 24 24" fill="none" xmlns="http://www.w3.org/2000/svg">
<path d="M4.07471 3L5.51728 19.1952L11.9903 21L18.4814 19.1886L19.9251 3H4.07471ZM16.9282 6.71038L16.448 12.1055L16.4494 12.1346L16.4474 12.2016V12.2011L16.1063 15.9734L16.0687 16.3086L11.9999 17.4339L11.9968 17.4368L7.93502 16.3051L7.65999 13.1863H9.65176L9.79308 14.7722L12.0005 15.3704L11.9999 15.3716V15.3713L14.2155 14.7646L14.4496 12.182H9.81804L9.7783 11.7454L9.68777 10.7226L9.64028 10.1734H14.6257L14.807 8.16487H7.2138L7.17406 7.72858L7.08367 6.70551L7.03604 6.15631H16.9757L16.9282 6.71038Z" fill="#1FA0FF"/>
</svg>
