<svg width="24" height="24" viewBox="0 0 24 24" fill="none" xmlns="http://www.w3.org/2000/svg">
<path d="M12.0002 1.50002C10.4301 1.49714 8.87934 1.84642 7.46209 2.52214C6.04484 3.19786 4.79717 4.18281 3.81093 5.4045C2.82469 6.62618 2.12498 8.0535 1.76331 9.58137C1.40165 11.1092 1.38724 12.6988 1.72114 14.233C2.05503 15.7671 2.72874 17.2069 3.69267 18.4463C4.6566 19.6856 5.8862 20.6931 7.29097 21.3944C8.69573 22.0957 10.2399 22.473 11.8098 22.4986C13.3797 22.5242 14.9353 22.1974 16.3622 21.5423L9.00018 10.5V17.25C9.00018 17.4489 8.92116 17.6397 8.78051 17.7803C8.63986 17.921 8.44909 18 8.25018 18H6.75018C6.55127 18 6.3605 17.921 6.21985 17.7803C6.0792 17.6397 6.00018 17.4489 6.00018 17.25V6.75002C6.00018 6.55111 6.0792 6.36034 6.21985 6.21969C6.3605 6.07904 6.55127 6.00002 6.75018 6.00002H8.57568C8.70517 6.00012 8.83242 6.03375 8.94506 6.09762C9.0577 6.1615 9.15188 6.25344 9.21843 6.36452L17.8367 20.727C19.7083 19.4748 21.1278 17.6541 21.8857 15.5335C22.6435 13.4129 22.6995 11.1049 22.0453 8.95009C21.3912 6.79527 20.0617 4.90784 18.2529 3.56637C16.4442 2.2249 14.2521 1.50047 12.0002 1.50002ZM18.0002 13.5H15.0002V6.75002C15.0002 6.55111 15.0792 6.36034 15.2198 6.21969C15.3605 6.07904 15.5513 6.00002 15.7502 6.00002H17.2502C17.4491 6.00002 17.6399 6.07904 17.7805 6.21969C17.9212 6.36034 18.0002 6.55111 18.0002 6.75002V13.5Z" fill="#CFD8DC"/>
</svg>
