<svg width="279" height="32" viewBox="0 0 279 32" fill="none" xmlns="http://www.w3.org/2000/svg">
<g clip-path="url(#clip0_145_10370)">
<path d="M81.5608 30.5143C76.5343 30.5143 68.0281 27.4531 68.0281 15.9797C68.0281 5.94793 74.8243 1.45762 81.5608 1.45762C90.6001 1.45762 95.9978 6.88604 95.9978 15.9797C95.9978 25.76 91.2747 30.5143 81.5608 30.5143ZM102.585 5.19017C96.9887 1.84229 89.5215 0 81.5608 0C73.5948 0 66.1278 1.84229 60.5352 5.19017C56.4104 7.68323 54.0461 11.6154 54.0461 15.9795C54.0461 20.3396 56.4104 24.2754 60.5352 26.7773C66.1202 30.1276 73.5872 31.9719 81.5608 31.9719C89.5291 31.9719 96.9963 30.1276 102.587 26.7773C106.712 24.2793 109.078 20.3443 109.078 15.9795C109.078 11.6116 106.712 7.67965 102.585 5.19017Z" fill="white"/>
<path d="M279 1.91389V0.454346H256.065V1.91389H260.998V14.4807H241.776V1.91086L246.711 1.91472V0.690939L246.701 0.454346H223.788V1.91389H228.723V30.0821H223.788V31.5391H246.711V30.0821H241.776V15.9394H260.998V30.0821H256.065V31.5391H278.768L279 31.5259V30.0821H274.056V1.91389H279Z" fill="white"/>
<path d="M121.031 21.3684L129.919 10.1727L140.149 21.3665L121.031 21.3684ZM137.073 0H136.266L112.22 30.0841L106.719 30.0813V31.5392H120.572V30.0822L114.074 30.0739L119.911 22.8272L141.48 22.8205L147.997 30.0822H141.689L141.68 31.5392H170.411V30.0822L164.038 30.0758L137.072 0H137.073Z" fill="white"/>
<path d="M39.4929 3.54505C39.1444 3.31011 37.9575 2.55041 36.091 1.80809C34.0196 0.982223 30.6474 0 26.3569 0C19.4805 0 13.1092 1.33932 8.41623 3.77337C2.91081 6.62711 0.000732422 10.848 0.000732422 15.9795C0.000732422 26.4602 9.65681 31.9997 27.9254 31.9997C32.4319 31.9997 36.348 30.8203 39.5671 28.4947L45.1079 31.5332L46.1398 31.5467V19.3251L45.0871 19.3298L44.9659 19.3971L44.9343 19.4925C44.8971 19.6067 43.9712 22.33 41.5141 25.0023C39.1981 27.5163 35.0083 30.514 28.184 30.514C23.5955 30.514 19.8695 28.7878 17.414 25.5229C15.4821 22.9554 14.3735 19.4848 14.3735 16.0018C14.3735 6.55431 21.4885 1.45706 28.184 1.45706C32.7374 1.45706 36.8619 2.92323 40.1148 5.69535C42.8329 8.01027 44.3866 10.7294 44.9548 12.5684L44.9845 12.6677H46.1395V0.454161L45.0906 0.470154L39.4923 3.54477L39.4929 3.54505Z" fill="white"/>
<path d="M208.768 3.54505C208.42 3.31011 207.231 2.55041 205.367 1.80809C203.295 0.982223 199.923 0 195.631 0C188.755 0 182.383 1.33932 177.69 3.77337C172.185 6.62711 169.275 10.848 169.275 15.9795C169.275 26.4602 178.931 31.9997 197.201 31.9997C201.708 31.9997 205.623 30.8203 208.841 28.4947L214.382 31.5332L215.414 31.5467V19.3298H214.36L214.24 19.3971L214.208 19.4925C214.171 19.6078 213.245 22.3311 210.787 25.0023C208.474 27.5163 204.286 30.514 197.458 30.514C192.869 30.514 189.143 28.7878 186.688 25.5229C184.754 22.9535 183.645 19.4831 183.645 16.0018C183.645 6.55431 190.762 1.45706 197.458 1.45706C202.011 1.45706 206.135 2.92323 209.389 5.69535C212.107 8.01358 213.661 10.7314 214.229 12.5684L214.258 12.6677H215.413V0.454161L214.364 0.470154L208.768 3.54477L208.768 3.54505Z" fill="white"/>
</g>
<defs>
<clipPath id="clip0_145_10370">
<rect width="279" height="32" fill="white"/>
</clipPath>
</defs>
</svg>
